<?xml version="1.0" encoding="utf-8"?>
<!-- Generator: Adobe Illustrator 22.0.1, SVG Export Plug-In . SVG Version: 6.00 Build 0)  -->
<svg version="1.1" id="Layer_1" xmlns="http://www.w3.org/2000/svg" xmlns:xlink="http://www.w3.org/1999/xlink" x="0px" y="0px"
	 viewBox="0 0 567 551" style="enable-background:new 0 0 567 551;" xml:space="preserve">
<style type="text/css">
	.st0{fill:#1F3568;}
	.st1{fill:url(#SVGID_1_);}
	.st2{fill:url(#SVGID_2_);}
	.st3{fill:url(#SVGID_3_);}
	.st4{fill:url(#SVGID_4_);}
	.st5{fill:url(#SVGID_5_);}
	.st6{fill:none;}
	.st7{fill:url(#SVGID_6_);}
	.st8{fill:url(#SVGID_7_);}
	.st9{fill:url(#SVGID_8_);}
	.st10{fill:url(#SVGID_9_);}
	.st11{fill:url(#SVGID_10_);}
	.st12{fill:url(#SVGID_11_);}
	.st13{fill:url(#SVGID_12_);}
	.st14{fill:url(#SVGID_13_);}
	.st15{fill:url(#SVGID_14_);}
	.st16{fill:url(#SVGID_15_);}
	.st17{fill:url(#SVGID_16_);}
	.st18{fill:url(#SVGID_17_);}
	.st19{fill:url(#SVGID_18_);}
	.st20{clip-path:url(#SVGID_20_);fill:url(#SVGID_21_);}
	.st21{fill:url(#SVGID_22_);}
	.st22{fill:url(#SVGID_23_);}
	.st23{fill:#FCC15A;}
</style>
<g>
	<g>
		
			<image style="overflow:visible;opacity:0.3;enable-background:new    ;" width="567" height="155" xlink:href="192B34916F116779.png"  transform="matrix(0.9996 0 0 0.9996 0.1268 206.6247)">
		</image>
		<path class="st0" d="M31.9,139.4H535c8.1,0,14.7,6.6,14.7,14.7v141.4c0,8.1-6.6,14.7-14.7,14.7H31.9c-8.1,0-14.7-6.6-14.7-14.7
			V154.1C17.2,146,23.8,139.4,31.9,139.4z"/>
		
			<linearGradient id="SVGID_1_" gradientUnits="userSpaceOnUse" x1="30.8181" y1="118.6132" x2="28.7981" y2="112.8332" gradientTransform="matrix(1 0 0 -1 0 414)">
			<stop  offset="0" style="stop-color:#29266D"/>
			<stop  offset="1" style="stop-color:#110E3E"/>
		</linearGradient>
		<ellipse class="st1" cx="29.8" cy="298.3" rx="3.8" ry="3.6"/>
		
			<linearGradient id="SVGID_2_" gradientUnits="userSpaceOnUse" x1="538.228" y1="118.6271" x2="536.1981" y2="112.8471" gradientTransform="matrix(1 0 0 -1 0 414)">
			<stop  offset="0" style="stop-color:#29266D"/>
			<stop  offset="1" style="stop-color:#110E3E"/>
		</linearGradient>
		<ellipse class="st2" cx="537.2" cy="298.3" rx="3.8" ry="3.6"/>
		
			<linearGradient id="SVGID_3_" gradientUnits="userSpaceOnUse" x1="538.1525" y1="265.5637" x2="536.1225" y2="259.7737" gradientTransform="matrix(1 0 0 -1 0 414)">
			<stop  offset="0" style="stop-color:#29266D"/>
			<stop  offset="1" style="stop-color:#110E3E"/>
		</linearGradient>
		<path class="st3" d="M540.9,151.4c0.1-2.1-1.5-3.8-3.6-3.9c-2.1-0.1-3.8,1.5-3.9,3.6c-0.1,2.1,1.5,3.8,3.6,3.9c0.1,0,0.1,0,0.2,0
			C539.2,155,540.9,153.4,540.9,151.4z"/>
		
			<linearGradient id="SVGID_4_" gradientUnits="userSpaceOnUse" x1="30.7254" y1="265.5555" x2="28.7054" y2="259.7656" gradientTransform="matrix(1 0 0 -1 0 414)">
			<stop  offset="0" style="stop-color:#29266D"/>
			<stop  offset="1" style="stop-color:#110E3E"/>
		</linearGradient>
		<path class="st4" d="M33.5,151.4c0.1-2.1-1.5-3.8-3.6-3.9s-3.8,1.5-3.9,3.6s1.5,3.8,3.6,3.9h0.1C31.8,155,33.4,153.4,33.5,151.4
			L33.5,151.4z"/>
		
			<linearGradient id="SVGID_5_" gradientUnits="userSpaceOnUse" x1="59.6317" y1="189.15" x2="546.1588" y2="189.15" gradientTransform="matrix(1 0 0 -1 0 414)">
			<stop  offset="9.000000e-02" style="stop-color:#FCB415"/>
			<stop  offset="9.000000e-02" style="stop-color:#F7B017"/>
			<stop  offset="0.11" style="stop-color:#E1A01F"/>
			<stop  offset="0.12" style="stop-color:#D09425"/>
			<stop  offset="0.15" style="stop-color:#C58B29"/>
			<stop  offset="0.18" style="stop-color:#BE862B"/>
			<stop  offset="0.26" style="stop-color:#BC852C"/>
			<stop  offset="0.31" style="stop-color:#C1882A"/>
			<stop  offset="0.37" style="stop-color:#CE9225"/>
			<stop  offset="0.43" style="stop-color:#E5A31D"/>
			<stop  offset="0.48" style="stop-color:#FCB415"/>
			<stop  offset="0.81" style="stop-color:#A06127"/>
			<stop  offset="0.82" style="stop-color:#AA6A26"/>
			<stop  offset="0.91" style="stop-color:#D89422"/>
			<stop  offset="0.95" style="stop-color:#EAA421"/>
		</linearGradient>
		<path class="st5" d="M549.8,151.4c0-6.6-5.6-12-12.5-12H29.8c-6.9,0-12.6,5.4-12.6,12v146.9c0,6.6,5.6,12,12.6,12h507.4
			c6.9,0,12.6-5.4,12.6-12V151.4z M541,286.9c-1.2-0.4-2.5-0.6-3.8-0.6c-6.9,0-12.6,5.4-12.6,12c0,1.2,0.2,2.5,0.6,3.6H406.7
			l-1.1-1.7c-1.9-3.3-5.4-5.4-9.2-5.5H170.1c-3.8,0.1-7.3,2.2-9.2,5.5l-1.1,1.7H41.7c0.4-1.2,0.6-2.4,0.6-3.6c0-6.6-5.6-12-12.5-12
			c-1.3,0-2.6,0.2-3.8,0.6V162.8c1.2,0.4,2.5,0.6,3.8,0.6c6.9,0,12.5-5.4,12.5-12c0-1.2-0.2-2.5-0.6-3.6h483.5
			c-0.4,1.2-0.6,2.4-0.6,3.6c0,6.6,5.6,12,12.6,12c1.3,0,2.6-0.2,3.8-0.6V286.9z"/>
		<path class="st6" d="M176.6,147.8H41.7c0.4,1.2,0.6,2.4,0.6,3.6c0,6.6-5.6,12-12.5,12c-1.3,0-2.6-0.2-3.8-0.6v124.1
			c1.2-0.4,2.5-0.6,3.8-0.6c6.9,0,12.5,5.4,12.5,12c0,1.2-0.2,2.5-0.6,3.6h118l1.1-1.7c1.9-3.3,5.4-5.4,9.2-5.5h226.2
			c3.8,0.1,7.3,2.2,9.2,5.5l1.1,1.7h118.6c-0.4-1.2-0.6-2.4-0.6-3.6c0-6.6,5.6-12,12.6-12c1.3,0,2.6,0.2,3.8,0.6V162.8
			c-1.2,0.4-2.5,0.6-3.8,0.6c-6.9,0-12.6-5.4-12.6-12c0-1.2,0.2-2.5,0.6-3.6H176.6L176.6,147.8z"/>
		
			<linearGradient id="SVGID_6_" gradientUnits="userSpaceOnUse" x1="283.4" y1="115.47" x2="283.4" y2="263.32" gradientTransform="matrix(1 0 0 -1 0 414)">
			<stop  offset="0" style="stop-color:#FFDA70"/>
			<stop  offset="1" style="stop-color:#F9A945"/>
		</linearGradient>
		<path class="st7" d="M541.5,162.1c-0.2-0.1-0.3-0.1-0.5-0.1c-0.1,0-0.2,0-0.3,0c-1.2,0.4-2.4,0.5-3.6,0.5
			c-6.3,0.1-11.5-4.8-11.7-11.1c0-1.1,0.2-2.2,0.5-3.3c0-0.1,0.1-0.2,0.1-0.3c0-0.5-0.4-0.8-0.9-0.8H171.8c-2.1,0-2.1,0.8,0,0.8
			h353.4c-0.4,1.2-0.6,2.4-0.6,3.6c0,6.6,5.6,12,12.6,12c1.3,0,2.6-0.2,3.8-0.6v124.1c-1.2-0.4-2.5-0.6-3.8-0.6
			c-6.9,0-12.6,5.4-12.6,12c0,1.2,0.2,2.5,0.6,3.6H406.7l-1.1-1.7c-1.9-3.3-5.4-5.4-9.2-5.5H170.1c-3.8,0.1-7.3,2.2-9.2,5.5
			l-1.1,1.7h-118c0.4-1.2,0.6-2.4,0.6-3.6c0-6.6-5.6-12-12.5-12c-1.3,0-2.6,0.2-3.8,0.6V162.8c1.2,0.4,2.5,0.6,3.8,0.6
			c6.9,0,12.5-5.4,12.5-12c0-1.2-0.2-2.5-0.6-3.6h134.9V147h-135c-0.3,0-0.5,0.1-0.7,0.4c-0.2,0.2-0.2,0.5-0.1,0.7
			c0.4,1.1,0.5,2.2,0.5,3.4c-0.2,6.3-5.4,11.3-11.7,11.1c-1.2,0-2.4-0.2-3.6-0.5c-0.1,0-0.2,0-0.3,0c-0.2,0-0.4,0.1-0.5,0.2
			c-0.2,0.2-0.4,0.4-0.4,0.7v124.1c0,0.3,0.1,0.5,0.4,0.7c0.2,0.1,0.3,0.2,0.5,0.2c0.1,0,0.2,0,0.3,0c1.2-0.4,2.4-0.5,3.6-0.5
			c6.3-0.1,11.5,4.8,11.7,11.1c0,1.2-0.2,2.3-0.5,3.4c-0.1,0.3,0,0.5,0.1,0.7c0.2,0.2,0.4,0.3,0.7,0.4h118c0.3,0,0.6-0.2,0.7-0.4
			l1.1-1.7c1.8-3,5-5,8.5-5.1h226.2c3.5,0.1,6.7,2,8.5,5.1l1.1,1.7c0.2,0.3,0.4,0.4,0.7,0.4h118.6c0.3,0,0.5-0.1,0.7-0.4
			c0.2-0.2,0.2-0.5,0.1-0.7c-0.4-1.1-0.6-2.2-0.5-3.4c0.2-6.3,5.4-11.3,11.7-11.1c1.2,0,2.4,0.2,3.6,0.5c0.1,0,0.2,0,0.3,0
			c0.2,0,0.4-0.1,0.5-0.2c0.2-0.2,0.4-0.4,0.4-0.7V162.8C541.9,162.5,541.8,162.3,541.5,162.1z"/>
	</g>
</g>
<g>
	<g>
		
			<image style="overflow:visible;opacity:0.3;enable-background:new    ;" width="567" height="154" xlink:href="192B34916F11677B.png"  transform="matrix(1 0 0 1 0 305.01)">
		</image>
		<path class="st0" d="M31.9,239.3H535c8.1,0,14.7,6.6,14.7,14.7v141.4c0,8.1-6.6,14.7-14.7,14.7H31.9c-8.1,0-14.7-6.6-14.7-14.7
			V254.1C17.2,245.9,23.8,239.3,31.9,239.3z"/>
		
			<linearGradient id="SVGID_7_" gradientUnits="userSpaceOnUse" x1="30.8119" y1="18.6954" x2="28.7919" y2="12.9154" gradientTransform="matrix(1 0 0 -1 0 414)">
			<stop  offset="0" style="stop-color:#29266D"/>
			<stop  offset="1" style="stop-color:#110E3E"/>
		</linearGradient>
		<ellipse class="st8" cx="29.8" cy="398.2" rx="3.8" ry="3.6"/>
		
			<linearGradient id="SVGID_8_" gradientUnits="userSpaceOnUse" x1="538.2219" y1="18.7094" x2="536.1918" y2="12.9294" gradientTransform="matrix(1 0 0 -1 0 414)">
			<stop  offset="0" style="stop-color:#29266D"/>
			<stop  offset="1" style="stop-color:#110E3E"/>
		</linearGradient>
		<ellipse class="st9" cx="537.2" cy="398.2" rx="3.8" ry="3.6"/>
		
			<linearGradient id="SVGID_9_" gradientUnits="userSpaceOnUse" x1="538.1462" y1="165.6459" x2="536.1163" y2="159.8559" gradientTransform="matrix(1 0 0 -1 0 414)">
			<stop  offset="0" style="stop-color:#29266D"/>
			<stop  offset="1" style="stop-color:#110E3E"/>
		</linearGradient>
		<path class="st10" d="M540.9,251.3c0.1-2.1-1.5-3.8-3.6-3.9c-2.1-0.1-3.8,1.5-3.9,3.6c-0.1,2.1,1.5,3.8,3.6,3.9c0.1,0,0.1,0,0.2,0
			C539.2,254.9,540.9,253.3,540.9,251.3z"/>
		
			<linearGradient id="SVGID_10_" gradientUnits="userSpaceOnUse" x1="30.7321" y1="165.6331" x2="28.7122" y2="159.8432" gradientTransform="matrix(1 0 0 -1 0 414)">
			<stop  offset="0" style="stop-color:#29266D"/>
			<stop  offset="1" style="stop-color:#110E3E"/>
		</linearGradient>
		<path class="st11" d="M33.5,251.3c0.1-2.1-1.5-3.8-3.6-3.9S26.1,249,26,251s1.5,3.8,3.6,3.9h0.1C31.8,255,33.4,253.4,33.5,251.3
			L33.5,251.3z"/>
		
			<linearGradient id="SVGID_11_" gradientUnits="userSpaceOnUse" x1="59.6317" y1="89.25" x2="546.1588" y2="89.25" gradientTransform="matrix(1 0 0 -1 0 414)">
			<stop  offset="9.000000e-02" style="stop-color:#FCB415"/>
			<stop  offset="9.000000e-02" style="stop-color:#F7B017"/>
			<stop  offset="0.11" style="stop-color:#E1A01F"/>
			<stop  offset="0.12" style="stop-color:#D09425"/>
			<stop  offset="0.15" style="stop-color:#C58B29"/>
			<stop  offset="0.18" style="stop-color:#BE862B"/>
			<stop  offset="0.26" style="stop-color:#BC852C"/>
			<stop  offset="0.31" style="stop-color:#C1882A"/>
			<stop  offset="0.37" style="stop-color:#CE9225"/>
			<stop  offset="0.43" style="stop-color:#E5A31D"/>
			<stop  offset="0.48" style="stop-color:#FCB415"/>
			<stop  offset="0.81" style="stop-color:#A06127"/>
			<stop  offset="0.82" style="stop-color:#AA6A26"/>
			<stop  offset="0.91" style="stop-color:#D89422"/>
			<stop  offset="0.95" style="stop-color:#EAA421"/>
		</linearGradient>
		<path class="st12" d="M549.8,251.3c0-6.6-5.6-12-12.5-12H29.8c-6.9,0-12.6,5.4-12.6,12v146.9c0,6.6,5.6,12,12.6,12h507.4
			c6.9,0,12.6-5.4,12.6-12V251.3z M541,386.8c-1.2-0.4-2.5-0.6-3.8-0.6c-6.9,0-12.6,5.4-12.6,12c0,1.2,0.2,2.5,0.6,3.6H406.7
			l-1.1-1.7c-1.9-3.3-5.4-5.4-9.2-5.5H170.1c-3.8,0.1-7.3,2.2-9.2,5.5l-1.1,1.7H41.7c0.4-1.2,0.6-2.4,0.6-3.6c0-6.6-5.6-12-12.5-12
			c-1.3,0-2.6,0.2-3.8,0.6V262.7c1.2,0.4,2.5,0.6,3.8,0.6c6.9,0,12.5-5.4,12.5-12c0-1.2-0.2-2.5-0.6-3.6h483.5
			c-0.4,1.2-0.6,2.4-0.6,3.6c0,6.6,5.6,12,12.6,12c1.3,0,2.6-0.2,3.8-0.6V386.8z"/>
		<path class="st6" d="M176.6,247.7H41.7c0.4,1.2,0.6,2.4,0.6,3.6c0,6.6-5.6,12-12.5,12c-1.3,0-2.6-0.2-3.8-0.6v124.1
			c1.2-0.4,2.5-0.6,3.8-0.6c6.9,0,12.5,5.4,12.5,12c0,1.2-0.2,2.5-0.6,3.6h118l1.1-1.7c1.9-3.3,5.4-5.4,9.2-5.5h226.2
			c3.8,0.1,7.3,2.2,9.2,5.5l1.1,1.7h118.6c-0.4-1.2-0.6-2.4-0.6-3.6c0-6.6,5.6-12,12.6-12c1.3,0,2.6,0.2,3.8,0.6V262.7
			c-1.2,0.4-2.5,0.6-3.8,0.6c-6.9,0-12.6-5.4-12.6-12c0-1.2,0.2-2.5,0.6-3.6L176.6,247.7L176.6,247.7z"/>
		
			<linearGradient id="SVGID_12_" gradientUnits="userSpaceOnUse" x1="283.4" y1="15.55" x2="283.4" y2="163.4" gradientTransform="matrix(1 0 0 -1 0 414)">
			<stop  offset="0" style="stop-color:#FFDA70"/>
			<stop  offset="1" style="stop-color:#F9A945"/>
		</linearGradient>
		<path class="st13" d="M541.5,262c-0.2-0.1-0.3-0.1-0.5-0.1c-0.1,0-0.2,0-0.3,0c-1.2,0.4-2.4,0.5-3.6,0.5
			c-6.3,0.1-11.5-4.8-11.7-11.1c0-1.1,0.2-2.2,0.5-3.3c0-0.1,0.1-0.2,0.1-0.3c0-0.5-0.4-0.8-0.9-0.8H171.8c-2.1,0-2.1,0.8,0,0.8
			h353.4c-0.4,1.2-0.6,2.4-0.6,3.6c0,6.6,5.6,12,12.6,12c1.3,0,2.6-0.2,3.8-0.6v124.1c-1.2-0.4-2.5-0.6-3.8-0.6
			c-6.9,0-12.6,5.4-12.6,12c0,1.2,0.2,2.5,0.6,3.6H406.7l-1.1-1.7c-1.9-3.3-5.4-5.4-9.2-5.5H170.1c-3.8,0.1-7.3,2.2-9.2,5.5
			l-1.1,1.7h-118c0.4-1.2,0.6-2.4,0.6-3.6c0-6.6-5.6-12-12.5-12c-1.3,0-2.6,0.2-3.8,0.6V262.7c1.2,0.4,2.5,0.6,3.8,0.6
			c6.9,0,12.5-5.4,12.5-12c0-1.2-0.2-2.5-0.6-3.6h134.9v-0.8h-135c-0.3,0-0.5,0.1-0.7,0.4c-0.2,0.2-0.2,0.5-0.1,0.7
			c0.4,1.1,0.5,2.2,0.5,3.4c-0.2,6.3-5.4,11.3-11.7,11.1c-1.2,0-2.4-0.2-3.6-0.5c-0.1,0-0.2,0-0.3,0c-0.2,0-0.4,0.1-0.5,0.2
			c-0.2,0.2-0.4,0.4-0.4,0.7V387c0,0.3,0.1,0.5,0.4,0.7c0.2,0.1,0.3,0.2,0.5,0.2c0.1,0,0.2,0,0.3,0c1.2-0.4,2.4-0.5,3.6-0.5
			c6.3-0.1,11.5,4.8,11.7,11.1c0,1.2-0.2,2.3-0.5,3.4c-0.1,0.3,0,0.5,0.1,0.7c0.2,0.2,0.4,0.3,0.7,0.4h118c0.3,0,0.6-0.2,0.7-0.4
			l1.1-1.7c1.8-3,5-5,8.5-5.1h226.2c3.5,0.1,6.7,2,8.5,5.1l1.1,1.7c0.2,0.3,0.4,0.4,0.7,0.4h118.6c0.3,0,0.5-0.1,0.7-0.4
			c0.2-0.2,0.2-0.5,0.1-0.7c-0.4-1.1-0.6-2.2-0.5-3.4c0.2-6.3,5.4-11.3,11.7-11.1c1.2,0,2.4,0.2,3.6,0.5c0.1,0,0.2,0,0.3,0
			c0.2,0,0.4-0.1,0.5-0.2c0.2-0.2,0.4-0.4,0.4-0.7V262.7C541.9,262.4,541.8,262.2,541.5,262z"/>
	</g>
</g>
<g>
	<g>
		
			<image style="overflow:visible;opacity:0.3;enable-background:new    ;" width="567" height="154" xlink:href="192B34916F11677B.png"  transform="matrix(1 0 0 1 0 400.3434)">
		</image>
		<path class="st0" d="M31.9,334.6H535c8.1,0,14.7,6.6,14.7,14.7v141.4c0,8.1-6.6,14.7-14.7,14.7H31.9c-8.1,0-14.7-6.6-14.7-14.7
			V349.4C17.2,341.2,23.8,334.6,31.9,334.6z"/>
		
			<linearGradient id="SVGID_13_" gradientUnits="userSpaceOnUse" x1="30.8119" y1="-76.6379" x2="28.7919" y2="-82.4179" gradientTransform="matrix(1 0 0 -1 0 414)">
			<stop  offset="0" style="stop-color:#29266D"/>
			<stop  offset="1" style="stop-color:#110E3E"/>
		</linearGradient>
		<ellipse class="st14" cx="29.8" cy="493.5" rx="3.8" ry="3.6"/>
		
			<linearGradient id="SVGID_14_" gradientUnits="userSpaceOnUse" x1="538.2219" y1="-76.6239" x2="536.1918" y2="-82.4039" gradientTransform="matrix(1 0 0 -1 0 414)">
			<stop  offset="0" style="stop-color:#29266D"/>
			<stop  offset="1" style="stop-color:#110E3E"/>
		</linearGradient>
		<ellipse class="st15" cx="537.2" cy="493.5" rx="3.8" ry="3.6"/>
		
			<linearGradient id="SVGID_15_" gradientUnits="userSpaceOnUse" x1="538.1462" y1="70.3126" x2="536.1163" y2="64.5226" gradientTransform="matrix(1 0 0 -1 0 414)">
			<stop  offset="0" style="stop-color:#29266D"/>
			<stop  offset="1" style="stop-color:#110E3E"/>
		</linearGradient>
		<path class="st16" d="M540.9,346.6c0.1-2.1-1.5-3.8-3.6-3.9s-3.8,1.5-3.9,3.6c-0.1,2.1,1.5,3.8,3.6,3.9c0.1,0,0.1,0,0.2,0
			C539.2,350.2,540.9,348.6,540.9,346.6z"/>
		
			<linearGradient id="SVGID_16_" gradientUnits="userSpaceOnUse" x1="30.7321" y1="70.2998" x2="28.7122" y2="64.5099" gradientTransform="matrix(1 0 0 -1 0 414)">
			<stop  offset="0" style="stop-color:#29266D"/>
			<stop  offset="1" style="stop-color:#110E3E"/>
		</linearGradient>
		<path class="st17" d="M33.5,346.6c0.1-2.1-1.5-3.8-3.6-3.9c-2.1-0.1-3.8,1.6-3.9,3.6s1.5,3.8,3.6,3.9h0.1
			C31.8,350.3,33.4,348.7,33.5,346.6L33.5,346.6z"/>
		
			<linearGradient id="SVGID_17_" gradientUnits="userSpaceOnUse" x1="59.6317" y1="-6.0833" x2="546.1588" y2="-6.0833" gradientTransform="matrix(1 0 0 -1 0 414)">
			<stop  offset="9.000000e-02" style="stop-color:#FCB415"/>
			<stop  offset="9.000000e-02" style="stop-color:#F7B017"/>
			<stop  offset="0.11" style="stop-color:#E1A01F"/>
			<stop  offset="0.12" style="stop-color:#D09425"/>
			<stop  offset="0.15" style="stop-color:#C58B29"/>
			<stop  offset="0.18" style="stop-color:#BE862B"/>
			<stop  offset="0.26" style="stop-color:#BC852C"/>
			<stop  offset="0.31" style="stop-color:#C1882A"/>
			<stop  offset="0.37" style="stop-color:#CE9225"/>
			<stop  offset="0.43" style="stop-color:#E5A31D"/>
			<stop  offset="0.48" style="stop-color:#FCB415"/>
			<stop  offset="0.81" style="stop-color:#A06127"/>
			<stop  offset="0.82" style="stop-color:#AA6A26"/>
			<stop  offset="0.91" style="stop-color:#D89422"/>
			<stop  offset="0.95" style="stop-color:#EAA421"/>
		</linearGradient>
		<path class="st18" d="M549.8,346.6c0-6.6-5.6-12-12.5-12H29.8c-6.9,0-12.6,5.4-12.6,12v146.9c0,6.6,5.6,12,12.6,12h507.4
			c6.9,0,12.6-5.4,12.6-12V346.6z M541,482.1c-1.2-0.4-2.5-0.6-3.8-0.6c-6.9,0-12.6,5.4-12.6,12c0,1.2,0.2,2.5,0.6,3.6H406.7
			l-1.1-1.7c-1.9-3.3-5.4-5.4-9.2-5.5H170.1c-3.8,0.1-7.3,2.2-9.2,5.5l-1.1,1.7H41.7c0.4-1.2,0.6-2.4,0.6-3.6c0-6.6-5.6-12-12.5-12
			c-1.3,0-2.6,0.2-3.8,0.6V358c1.2,0.4,2.5,0.6,3.8,0.6c6.9,0,12.5-5.4,12.5-12c0-1.2-0.2-2.5-0.6-3.6h483.5
			c-0.4,1.2-0.6,2.4-0.6,3.6c0,6.6,5.6,12,12.6,12c1.3,0,2.6-0.2,3.8-0.6V482.1z"/>
		<path class="st6" d="M176.6,343H41.7c0.4,1.2,0.6,2.4,0.6,3.6c0,6.6-5.6,12-12.5,12c-1.3,0-2.6-0.2-3.8-0.6v124.1
			c1.2-0.4,2.5-0.6,3.8-0.6c6.9,0,12.5,5.4,12.5,12c0,1.2-0.2,2.5-0.6,3.6h118l1.1-1.7c1.9-3.3,5.4-5.4,9.2-5.5h226.2
			c3.8,0.1,7.3,2.2,9.2,5.5l1.1,1.7h118.6c-0.4-1.2-0.6-2.4-0.6-3.6c0-6.6,5.6-12,12.6-12c1.3,0,2.6,0.2,3.8,0.6V358
			c-1.2,0.4-2.5,0.6-3.8,0.6c-6.9,0-12.6-5.4-12.6-12c0-1.2,0.2-2.5,0.6-3.6L176.6,343L176.6,343z"/>
		
			<linearGradient id="SVGID_18_" gradientUnits="userSpaceOnUse" x1="283.4" y1="-79.7833" x2="283.4" y2="68.0667" gradientTransform="matrix(1 0 0 -1 0 414)">
			<stop  offset="0" style="stop-color:#FFDA70"/>
			<stop  offset="1" style="stop-color:#F9A945"/>
		</linearGradient>
		<path class="st19" d="M541.5,357.3c-0.2-0.1-0.3-0.1-0.5-0.1c-0.1,0-0.2,0-0.3,0c-1.2,0.4-2.4,0.5-3.6,0.5
			c-6.3,0.1-11.5-4.8-11.7-11.1c0-1.1,0.2-2.2,0.5-3.3c0-0.1,0.1-0.2,0.1-0.3c0-0.5-0.4-0.8-0.9-0.8H171.8c-2.1,0-2.1,0.8,0,0.8
			h353.4c-0.4,1.2-0.6,2.4-0.6,3.6c0,6.6,5.6,12,12.6,12c1.3,0,2.6-0.2,3.8-0.6v124.1c-1.2-0.4-2.5-0.6-3.8-0.6
			c-6.9,0-12.6,5.4-12.6,12c0,1.2,0.2,2.5,0.6,3.6H406.7l-1.1-1.7c-1.9-3.3-5.4-5.4-9.2-5.5H170.1c-3.8,0.1-7.3,2.2-9.2,5.5
			l-1.1,1.7h-118c0.4-1.2,0.6-2.4,0.6-3.6c0-6.6-5.6-12-12.5-12c-1.3,0-2.6,0.2-3.8,0.6V358c1.2,0.4,2.5,0.6,3.8,0.6
			c6.9,0,12.5-5.4,12.5-12c0-1.2-0.2-2.5-0.6-3.6h134.9v-0.8h-135c-0.3,0-0.5,0.1-0.7,0.4c-0.2,0.2-0.2,0.5-0.1,0.7
			c0.4,1.1,0.5,2.2,0.5,3.4C41.2,353,36,358,29.7,357.8c-1.2,0-2.4-0.2-3.6-0.5c-0.1,0-0.2,0-0.3,0c-0.2,0-0.4,0.1-0.5,0.2
			c-0.2,0.2-0.4,0.4-0.4,0.7v124.1c0,0.3,0.1,0.5,0.4,0.7c0.2,0.1,0.3,0.2,0.5,0.2c0.1,0,0.2,0,0.3,0c1.2-0.4,2.4-0.5,3.6-0.5
			c6.3-0.1,11.5,4.8,11.7,11.1c0,1.2-0.2,2.3-0.5,3.4c-0.1,0.3,0,0.5,0.1,0.7c0.2,0.2,0.4,0.3,0.7,0.4h118c0.3,0,0.6-0.2,0.7-0.4
			l1.1-1.7c1.8-3,5-5,8.5-5.1h226.2c3.5,0.1,6.7,2,8.5,5.1l1.1,1.7c0.2,0.3,0.4,0.4,0.7,0.4h118.6c0.3,0,0.5-0.1,0.7-0.4
			c0.2-0.2,0.2-0.5,0.1-0.7c-0.4-1.1-0.6-2.2-0.5-3.4c0.2-6.3,5.4-11.3,11.7-11.1c1.2,0,2.4,0.2,3.6,0.5c0.1,0,0.2,0,0.3,0
			c0.2,0,0.4-0.1,0.5-0.2c0.2-0.2,0.4-0.4,0.4-0.7V358C541.9,357.7,541.8,357.5,541.5,357.3z"/>
	</g>
</g>
<g>
	<g>
		<path id="XMLID_1_" class="st0" d="M61.8,147.8h438.9c7.1,0,12.8,7.7,12.8,17.2v165c0,9.5-5.8,17.2-12.8,17.2H61.8
			c-7.1,0-12.8-7.7-12.8-17.2V165.1C48.9,155.5,54.7,147.8,61.8,147.8z"/>
	</g>
	<g>
		<defs>
			<path id="SVGID_19_" d="M61.8,147.8h438.9c7.1,0,12.8,7.7,12.8,17.2v165c0,9.5-5.8,17.2-12.8,17.2H61.8
				c-7.1,0-12.8-7.7-12.8-17.2V165.1C48.9,155.5,54.7,147.8,61.8,147.8z"/>
		</defs>
		<clipPath id="SVGID_20_">
			<use xlink:href="#SVGID_19_"  style="overflow:visible;"/>
		</clipPath>
		
			<radialGradient id="SVGID_21_" cx="280.4708" cy="342.6511" r="211.6479" gradientTransform="matrix(0.9021 0 0 -1.0695 28.2873 452.3153)" gradientUnits="userSpaceOnUse">
			<stop  offset="0" style="stop-color:#FFFFFF;stop-opacity:0.6"/>
			<stop  offset="0.9995" style="stop-color:#1F3568;stop-opacity:0.1"/>
		</radialGradient>
		<rect x="104.5" y="-156.1" class="st20" width="353.6" height="483.9"/>
	</g>
</g>
<rect x="26.1" y="230.5" class="st0" width="23.5" height="44.5"/>
<rect x="510.1" y="230.5" class="st0" width="30.9" height="44.5"/>
<linearGradient id="SVGID_22_" gradientUnits="userSpaceOnUse" x1="530.1" y1="220.6" x2="552.8" y2="197.9" gradientTransform="matrix(1 0 0 -1 0 462)">
	<stop  offset="0" style="stop-color:#FFDA70"/>
	<stop  offset="1" style="stop-color:#F9AA45"/>
</linearGradient>
<rect x="541" y="230.5" class="st21" width="0.9" height="44.5"/>
<linearGradient id="SVGID_23_" gradientUnits="userSpaceOnUse" x1="14.075" y1="212.275" x2="36.925" y2="189.425" gradientTransform="matrix(1 0 0 -1 0 462)">
	<stop  offset="0" style="stop-color:#FFC670"/>
	<stop  offset="1" style="stop-color:#F9AA45"/>
</linearGradient>
<rect x="24.9" y="238.9" class="st22" width="1.2" height="44.5"/>
<path class="st0" d="M40.3,310.3h486.4c7.8,0,14.2,5.1,14.2,11.3v108.7c0,6.2-6.4,11.3-14.2,11.3H40.3c-7.8,0-14.2-5.1-14.2-11.3
	V321.7C26.1,315.4,32.5,310.3,40.3,310.3z"/>
<rect x="541.1" y="332.5" class="st23" width="0.8" height="78"/>
<rect x="24.9" y="317.7" class="st23" width="1.2" height="115"/>
</svg>
