<?xml version="1.0" encoding="utf-8"?>
<!-- Generator: Adobe Illustrator 22.0.1, SVG Export Plug-In . SVG Version: 6.00 Build 0)  -->
<svg version="1.1" id="Layer_1" xmlns="http://www.w3.org/2000/svg" xmlns:xlink="http://www.w3.org/1999/xlink" x="0px" y="0px"
	 viewBox="0 0 568 987.8" style="enable-background:new 0 0 568 987.8;" xml:space="preserve">
<style type="text/css">
	.st0{fill:#1F3568;}
	.st1{clip-path:url(#SVGID_2_);fill:url(#SVGID_3_);}
	.st2{fill:url(#SVGID_4_);}
	.st3{fill:url(#SVGID_5_);}
	.st4{fill:url(#SVGID_6_);}
	.st5{fill:url(#SVGID_7_);}
	.st6{fill:url(#SVGID_8_);}
	.st7{fill:none;}
	.st8{fill:url(#SVGID_9_);}
	.st9{fill:url(#SVGID_10_);}
	.st10{fill:url(#SVGID_11_);}
	.st11{fill:url(#SVGID_12_);}
	.st12{fill:#FCB415;}
	.st13{fill:#FED36A;}
	.st14{fill:url(#SVGID_13_);}
	.st15{fill:url(#SVGID_14_);}
	.st16{fill:url(#SVGID_15_);}
	.st17{fill:url(#SVGID_16_);}
</style>
<g>
	<g>
		<g>
			<g>
				<path id="XMLID_1_" class="st0" d="M32.2,44.6h503.1c8.1,0,14.7,6.6,14.7,14.7v372c0,8.1-6.6,14.7-14.7,14.7H32.2
					c-8.1,0-14.7-6.6-14.7-14.7v-372C17.5,51.2,24.1,44.6,32.2,44.6z"/>
			</g>
			<g>
				<defs>
					<path id="SVGID_1_" d="M32.2,44.6h503.1c8.1,0,14.7,6.6,14.7,14.7v372c0,8.1-6.6,14.7-14.7,14.7H32.2
						c-8.1,0-14.7-6.6-14.7-14.7v-372C17.5,51.2,24.1,44.6,32.2,44.6z"/>
				</defs>
				<clipPath id="SVGID_2_">
					<use xlink:href="#SVGID_1_"  style="overflow:visible;"/>
				</clipPath>
				
					<radialGradient id="SVGID_3_" cx="152.9718" cy="730.4936" r="211.646" gradientTransform="matrix(1.228 0 0 -1.0632 95.4506 897.1608)" gradientUnits="userSpaceOnUse">
					<stop  offset="0" style="stop-color:#FFFFFF;stop-opacity:0.3"/>
					<stop  offset="0.9995" style="stop-color:#1F3568;stop-opacity:0.1"/>
				</radialGradient>
				<rect x="42.6" y="-120" class="st1" width="481.4" height="481"/>
			</g>
		</g>
		
			<linearGradient id="SVGID_4_" gradientUnits="userSpaceOnUse" x1="31.1305" y1="384.8393" x2="29.1005" y2="379.0493" gradientTransform="matrix(1 0 0 -1 0 816)">
			<stop  offset="0" style="stop-color:#29266D"/>
			<stop  offset="1" style="stop-color:#110E3E"/>
		</linearGradient>
		<ellipse class="st2" cx="30.1" cy="434.1" rx="3.8" ry="3.6"/>
		
			<linearGradient id="SVGID_5_" gradientUnits="userSpaceOnUse" x1="538.5359" y1="384.8549" x2="536.506" y2="379.0648" gradientTransform="matrix(1 0 0 -1 0 816)">
			<stop  offset="0" style="stop-color:#29266D"/>
			<stop  offset="1" style="stop-color:#110E3E"/>
		</linearGradient>
		<ellipse class="st3" cx="537.5" cy="434.1" rx="3.8" ry="3.6"/>
		
			<linearGradient id="SVGID_6_" gradientUnits="userSpaceOnUse" x1="538.5139" y1="762.3927" x2="536.484" y2="756.6127" gradientTransform="matrix(1 0 0 -1 0 816)">
			<stop  offset="0" style="stop-color:#29266D"/>
			<stop  offset="1" style="stop-color:#110E3E"/>
		</linearGradient>
		<path class="st4" d="M541.3,56.5c0.1-2.1-1.5-3.8-3.6-3.9c-2.1-0.1-3.8,1.5-3.9,3.6c-0.1,2.1,1.5,3.8,3.6,3.9c0.1,0,0.1,0,0.2,0
			C539.5,60.2,541.2,58.6,541.3,56.5C541.3,56.6,541.3,56.6,541.3,56.5z"/>
		
			<linearGradient id="SVGID_7_" gradientUnits="userSpaceOnUse" x1="31.0407" y1="762.4009" x2="29.0107" y2="756.6209" gradientTransform="matrix(1 0 0 -1 0 816)">
			<stop  offset="0" style="stop-color:#29266D"/>
			<stop  offset="1" style="stop-color:#110E3E"/>
		</linearGradient>
		<path class="st5" d="M33.8,56.5c0.1-2.1-1.5-3.8-3.6-3.9c-2.1-0.1-3.8,1.5-3.9,3.6s1.5,3.8,3.6,3.9c0.1,0,0.1,0,0.2,0
			C32.1,60.2,33.8,58.6,33.8,56.5z"/>
		
			<linearGradient id="SVGID_8_" gradientUnits="userSpaceOnUse" x1="-1320.3385" y1="563.3" x2="-820.149" y2="563.3" gradientTransform="matrix(-1 0 0 -1 -806.42 808.6)">
			<stop  offset="9.000000e-02" style="stop-color:#FCB415"/>
			<stop  offset="9.000000e-02" style="stop-color:#F7B017"/>
			<stop  offset="0.11" style="stop-color:#E1A01F"/>
			<stop  offset="0.12" style="stop-color:#D09425"/>
			<stop  offset="0.15" style="stop-color:#C58B29"/>
			<stop  offset="0.18" style="stop-color:#BE862B"/>
			<stop  offset="0.26" style="stop-color:#BC852C"/>
			<stop  offset="0.31" style="stop-color:#C1882A"/>
			<stop  offset="0.37" style="stop-color:#CE9225"/>
			<stop  offset="0.43" style="stop-color:#E5A31D"/>
			<stop  offset="0.48" style="stop-color:#FCB415"/>
			<stop  offset="0.81" style="stop-color:#A06127"/>
			<stop  offset="0.82" style="stop-color:#AA6A26"/>
			<stop  offset="0.91" style="stop-color:#D89422"/>
			<stop  offset="0.95" style="stop-color:#EAA421"/>
		</linearGradient>
		<path class="st6" d="M10,294.8c0,3.4,2.1,6.7,5.7,8.8l1.7,1v129.5c0,6.6,5.6,12,12.5,12h507.5c6.9,0,12.6-5.4,12.6-12V304.6l1.8-1
			c3.6-2.1,5.7-5.3,5.7-8.8V143.4c0-3.4-2.1-6.7-5.7-8.8l-1.8-1V56.5c0-6.6-5.6-12-12.6-12H30.1c-6.9,0-12.6,5.4-12.6,12v77.1
			l-1.7,1c-3.6,2.1-5.7,5.3-5.7,8.8v151.4H10z M541.3,181v241.7c-1.2-0.4-2.5-0.6-3.8-0.6c-6.9,0-12.6,5.4-12.6,12
			c0,1.2,0.2,2.5,0.6,3.6H407l-1.1-1.7c-1.9-3.3-5.4-5.4-9.2-5.5H170.4c-3.8,0.1-7.3,2.2-9.2,5.5l-1.1,1.7H42
			c0.4-1.2,0.6-2.4,0.6-3.6c0-6.6-5.6-12-12.5-12c-1.3,0-2.6,0.2-3.8,0.6V68c1.2,0.4,2.5,0.6,3.8,0.6c6.9,0,12.5-5.4,12.5-12
			c0-1.2-0.2-2.5-0.6-3.7h483.6c-0.4,1.2-0.6,2.4-0.6,3.7c0,6.6,5.6,12,12.6,12c1.3,0,2.6-0.2,3.8-0.6L541.3,181z"/>
		<path class="st7" d="M176.9,52.9H42c0.4,1.2,0.6,2.4,0.6,3.7c0,6.6-5.6,12-12.5,12c-1.3,0-2.6-0.2-3.8-0.6v354.7
			c1.2-0.4,2.5-0.6,3.8-0.6c6.9,0,12.6,5.4,12.6,12c0,1.2-0.2,2.5-0.6,3.6h118l1.1-1.7c1.9-3.3,5.4-5.4,9.2-5.5h226.3
			c3.8,0.1,7.3,2.2,9.2,5.5l1.1,1.7h118.6c-0.4-1.2-0.6-2.4-0.6-3.6c0-6.6,5.6-12,12.6-12c1.3,0,2.6,0.2,3.8,0.6V68
			c-1.2,0.4-2.5,0.6-3.8,0.6c-6.9,0-12.6-5.4-12.6-12c0-1.2,0.2-2.5,0.6-3.7L176.9,52.9L176.9,52.9z"/>
		
			<linearGradient id="SVGID_9_" gradientUnits="userSpaceOnUse" x1="283.85" y1="387.96" x2="283.85" y2="754.59" gradientTransform="matrix(1 0 0 -1 0 816)">
			<stop  offset="0" style="stop-color:#FFDA70"/>
			<stop  offset="1" style="stop-color:#F9A945"/>
		</linearGradient>
		<path class="st8" d="M541.9,67.3c-0.2-0.1-0.3-0.2-0.5-0.2c-0.1,0-0.2,0-0.3,0c-1.2,0.4-2.4,0.5-3.6,0.5c-6.4,0-11.7-5-11.7-11.1
			c0-1.1,0.2-2.3,0.5-3.3c0-0.1,0.1-0.2,0.1-0.3c0-0.5-0.4-0.8-0.9-0.8l0,0H172.1c-2.1,0-2.1,0.8,0,0.8h353.4
			c-0.4,1.2-0.6,2.4-0.6,3.7c0,6.6,5.6,12,12.6,12c1.3,0,2.6-0.2,3.8-0.6v354.7c-1.2-0.4-2.5-0.6-3.8-0.6c-6.9,0-12.6,5.4-12.6,12
			c0,1.2,0.2,2.5,0.6,3.6H407l-1.1-1.7c-1.9-3.3-5.4-5.4-9.2-5.5H170.4c-3.8,0.1-7.3,2.2-9.2,5.5l-1.1,1.7H42
			c0.4-1.2,0.6-2.4,0.6-3.6c0-6.6-5.6-12-12.5-12c-1.3,0-2.6,0.2-3.8,0.6V68c1.2,0.4,2.5,0.6,3.8,0.6c6.9,0,12.5-5.4,12.5-12
			c0-1.2-0.2-2.5-0.6-3.7h134.9v-0.8H42c-0.3,0-0.5,0.1-0.7,0.3s-0.2,0.5-0.1,0.7c0.4,1.1,0.6,2.2,0.6,3.4c0,6.1-5.2,11.1-11.7,11.1
			c-1.2,0-2.4-0.2-3.6-0.5c-0.1,0-0.2,0-0.3,0c-0.2,0-0.4,0.1-0.5,0.2c-0.2,0.2-0.3,0.4-0.4,0.7v354.7c0,0.3,0.1,0.5,0.4,0.7
			c0.2,0.1,0.3,0.2,0.5,0.2c0.1,0,0.2,0,0.3,0c1.2-0.4,2.4-0.5,3.6-0.5c6.3-0.1,11.5,4.8,11.7,11.1c0,1.2-0.2,2.3-0.6,3.4
			c-0.1,0.3,0,0.5,0.1,0.8c0.2,0.2,0.4,0.3,0.7,0.3h118c0.3,0,0.6-0.1,0.7-0.4l1.1-1.7c1.8-3,5-5,8.5-5.1h226.3
			c3.5,0.1,6.7,2.1,8.5,5.1l1.1,1.7c0.2,0.3,0.4,0.4,0.8,0.4h118.6c0.3,0,0.5-0.1,0.7-0.3c0.2-0.2,0.2-0.5,0.1-0.8
			c-0.4-1.1-0.6-2.2-0.5-3.4c0.2-6.3,5.4-11.3,11.7-11.1c1.2,0,2.4,0.2,3.6,0.5c0.1,0,0.2,0,0.3,0c0.2,0,0.4-0.1,0.5-0.2
			c0.2-0.1,0.4-0.4,0.4-0.7V68C542.2,67.7,542.1,67.4,541.9,67.3L541.9,67.3z"/>
	</g>
</g>
<g>
	<g>
		<path class="st0" d="M32.2,379.2h503.1c8.1,0,14.7,6.6,14.7,14.7v372c0,8.1-6.6,14.7-14.7,14.7H32.2c-8.1,0-14.7-6.6-14.7-14.7
			v-372C17.5,385.8,24.1,379.2,32.2,379.2z"/>
		
			<linearGradient id="SVGID_10_" gradientUnits="userSpaceOnUse" x1="31.1165" y1="50.1992" x2="29.0865" y2="44.4092" gradientTransform="matrix(1 0 0 -1 0 816)">
			<stop  offset="0" style="stop-color:#29266D"/>
			<stop  offset="1" style="stop-color:#110E3E"/>
		</linearGradient>
		<ellipse class="st9" cx="30.1" cy="768.7" rx="3.8" ry="3.6"/>
		
			<linearGradient id="SVGID_11_" gradientUnits="userSpaceOnUse" x1="538.5219" y1="50.2148" x2="536.492" y2="44.4249" gradientTransform="matrix(1 0 0 -1 0 816)">
			<stop  offset="0" style="stop-color:#29266D"/>
			<stop  offset="1" style="stop-color:#110E3E"/>
		</linearGradient>
		<ellipse class="st10" cx="537.5" cy="768.7" rx="3.8" ry="3.6"/>
		
			<linearGradient id="SVGID_12_" gradientUnits="userSpaceOnUse" x1="538.524" y1="427.7442" x2="536.4941" y2="421.9642" gradientTransform="matrix(1 0 0 -1 0 816)">
			<stop  offset="0" style="stop-color:#29266D"/>
			<stop  offset="1" style="stop-color:#110E3E"/>
		</linearGradient>
		<path class="st11" d="M541.3,391.2c0.1-2.1-1.5-3.8-3.6-3.9s-3.8,1.5-3.9,3.6c-0.1,2.1,1.5,3.8,3.6,3.9c0.1,0,0.1,0,0.2,0
			C539.5,394.8,541.2,393.2,541.3,391.2L541.3,391.2z"/>
		<path class="st12" d="M17.3,768.7c0,6.6,5.6,12,12.5,12h507.7c6.9,0,12.6-5.4,12.6-12V639.2v-3.4c0-4.4,0-6.6,0-10V498.1
			c0-3.4,0-6.7,0-14.2v-15.7v-77.1c0-6.6,0.1-1,0-12H17.4c0,5.4,0,5.4,0,12v77.1 M541.3,515.6v241.7c-1.2-0.4-2.5-0.6-3.8-0.6
			c-6.9,0-12.6,5.4-12.6,12c0,1.2,0.2,2.5,0.6,3.7H407l-1.1-1.7c-1.9-3.3-5.4-5.4-9.2-5.5H170.4c-3.8,0.1-7.3,2.2-9.2,5.5l-1.1,1.7
			H42c0.4-1.2,0.6-2.4,0.6-3.7c0-6.6-5.6-12-12.5-12c-1.3,0-2.6,0.2-3.8,0.6V402.6c1.2,0.4,2.5,0.6,3.8,0.6c6.9,0,12.5-5.4,12.5-12
			c0-1.2-0.2-2.5-0.6-3.7h483.6c-0.4,1.2-0.6,2.4-0.6,3.7c0,6.6,5.6,12,12.6,12c1.3,0,2.6-0.2,3.8-0.6L541.3,515.6z"/>
		<path class="st7" d="M176.9,387.5H42c0.4,1.2,0.6,2.4,0.6,3.7c0,6.6-5.6,12-12.5,12c-1.3,0-2.6-0.2-3.8-0.6v354.7
			c1.2-0.4,2.5-0.6,3.8-0.6c6.9,0,12.6,5.4,12.6,12c0,1.2-0.2,2.5-0.6,3.6h118l1.1-1.7c1.9-3.3,5.4-5.4,9.2-5.5h226.3
			c3.8,0.1,7.3,2.2,9.2,5.5l1.1,1.7h118.6c-0.4-1.2-0.6-2.4-0.6-3.6c0-6.6,5.6-12,12.6-12c1.3,0,2.6,0.2,3.8,0.6V402.6
			c-1.2,0.4-2.5,0.6-3.8,0.6c-6.9,0-12.6-5.4-12.6-12c0-1.2,0.2-2.5,0.6-3.6L176.9,387.5L176.9,387.5z"/>
		<path class="st13" d="M542.2,379.2c-0.2-0.1-7.2,0-7.3,0s6.3,22.5,6.2,22.5c-1.2,0.4-2.4,0.5-3.6,0.5c-6.4,0-11.7-5-11.7-11.1
			c0-1.1,0.2-2.3,0.5-3.3c0-0.1,0.1-0.2,0.1-0.3c0-0.5-0.4-0.8-0.9-0.8l0,0H172.1c-2.1,0-2.1,0.8,0,0.8h353.4
			c-0.4,1.2-0.6,2.4-0.6,3.6c0,6.6,5.6,12,12.6,12c1.3,0,2.6-0.2,3.8-0.6v354.7c-1.2-0.4-2.5-0.6-3.8-0.6c-6.9,0-12.6,5.4-12.6,12
			c0,1.2,0.2,2.5,0.6,3.6H407l-1.1-1.7c-1.9-3.3-5.4-5.4-9.2-5.5H170.4c-3.8,0.1-7.3,2.2-9.2,5.5l-1.1,1.7H42
			c0.4-1.2,0.6-2.4,0.6-3.6c0-6.6-5.6-12-12.5-12c-1.3,0-2.6,0.2-3.8,0.6V402.6c1.2,0.4,2.5,0.6,3.8,0.6c6.9,0,12.5-5.4,12.5-12
			c0-1.2-0.2-2.5-0.6-3.7h134.9v-0.8H42c-0.3,0-0.5,0.1-0.7,0.3c-0.2,0.2-0.2,0.5-0.1,0.7c0.4,1.1,0.6,2.2,0.6,3.4
			c0,6.1-5.2,11.1-11.7,11.1c-1.2,0-2.4-0.2-3.6-0.5c-0.1,0-0.2,0-0.3,0c-0.2,0,6-22.6-0.9-22.6c0.2,9.5,0,10.4,0,23.5v354.7
			c0,0.3,0.1,0.5,0.4,0.7c0.2,0.1,0.3,0.2,0.5,0.2c0.1,0,0.2,0,0.3,0c1.2-0.4,2.4-0.5,3.6-0.5c6.3-0.1,11.5,4.8,11.7,11.1
			c0,1.2-0.2,2.3-0.6,3.4c-0.1,0.3,0,0.5,0.1,0.8c0.2,0.2,0.4,0.3,0.7,0.3h118c0.3,0,0.6-0.1,0.7-0.4l1.1-1.7c1.8-3,5-5,8.5-5.1
			h226.3c3.5,0.1,6.7,2.1,8.5,5.1l1.1,1.7c0.2,0.3,0.4,0.4,0.8,0.4h118.6c0.3,0,0.5-0.1,0.7-0.3s0.2-0.5,0.1-0.8
			c-0.4-1.1-0.6-2.2-0.5-3.4c0.2-6.3,5.4-11.3,11.7-11.1c1.2,0,2.4,0.2,3.6,0.5c0.1,0,0.2,0,0.3,0c0.2,0,0.4-0.1,0.5-0.2
			c0.2-0.1,0.4-0.4,0.4-0.7V402.6c0-0.3,0-6.3,0-8.6c0-0.3,0-0.9,0-1.1L542.2,379.2z"/>
	</g>
</g>
<path class="st0" d="M40.5,368H527c7.9,0,14.2,4.7,14.2,10.5v265.1c0,5.8-6.4,10.5-14.2,10.5H40.5c-7.9,0-14.2-4.7-14.2-10.5V378.5
	C26.2,372.7,32.6,368,40.5,368z"/>
<g>
	<g>
		<path class="st0" d="M32.2,549.4h503.1c8.1,0,14.7,6.6,14.7,14.7v372c0,8.1-6.6,14.7-14.7,14.7H32.2c-8.1,0-14.7-6.6-14.7-14.7
			v-372C17.5,556,24.1,549.4,32.2,549.4z"/>
		
			<linearGradient id="SVGID_13_" gradientUnits="userSpaceOnUse" x1="31.1165" y1="-119.9653" x2="29.0865" y2="-125.7553" gradientTransform="matrix(1 0 0 -1 0 816)">
			<stop  offset="0" style="stop-color:#29266D"/>
			<stop  offset="1" style="stop-color:#110E3E"/>
		</linearGradient>
		<ellipse class="st14" cx="30.1" cy="938.9" rx="3.8" ry="3.6"/>
		
			<linearGradient id="SVGID_14_" gradientUnits="userSpaceOnUse" x1="538.5219" y1="-119.9497" x2="536.492" y2="-125.7396" gradientTransform="matrix(1 0 0 -1 0 816)">
			<stop  offset="0" style="stop-color:#29266D"/>
			<stop  offset="1" style="stop-color:#110E3E"/>
		</linearGradient>
		<ellipse class="st15" cx="537.5" cy="938.9" rx="3.8" ry="3.6"/>
		
			<linearGradient id="SVGID_15_" gradientUnits="userSpaceOnUse" x1="538.524" y1="257.5797" x2="536.4941" y2="251.7997" gradientTransform="matrix(1 0 0 -1 0 816)">
			<stop  offset="0" style="stop-color:#29266D"/>
			<stop  offset="1" style="stop-color:#110E3E"/>
		</linearGradient>
		<path class="st16" d="M541.3,561.4c0.1-2.1-1.5-3.8-3.6-3.9c-2.1-0.1-3.8,1.5-3.9,3.6c-0.1,2.1,1.5,3.8,3.6,3.9c0.1,0,0.1,0,0.2,0
			C539.5,565,541.2,563.4,541.3,561.4L541.3,561.4z"/>
		<path class="st12" d="M17.3,938.9c0,6.6,5.6,12,12.5,12h507.7c6.9,0,12.6-5.4,12.6-12V809.4V806c0-4.4,0-6.6,0-10V668.3
			c0-3.4,0-6.7,0-14.2v-15.7v-77.1c0-6.6,0.1-1,0-12H17.4c0,5.4,0,5.4,0,12v77.1 M541.3,685.8v241.7c-1.2-0.4-2.5-0.6-3.8-0.6
			c-6.9,0-12.6,5.4-12.6,12c0,1.2,0.2,2.5,0.6,3.7H407l-1.1-1.7c-1.9-3.3-5.4-5.4-9.2-5.5H170.4c-3.8,0.1-7.3,2.2-9.2,5.5l-1.1,1.7
			H42c0.4-1.2,0.6-2.4,0.6-3.7c0-6.6-5.6-12-12.5-12c-1.3,0-2.6,0.2-3.8,0.6V572.8c1.2,0.4,2.5,0.6,3.8,0.6c6.9,0,12.5-5.4,12.5-12
			c0-1.2-0.2-2.5-0.6-3.7h483.6c-0.4,1.2-0.6,2.4-0.6,3.7c0,6.6,5.6,12,12.6,12c1.3,0,2.6-0.2,3.8-0.6L541.3,685.8z"/>
		<path class="st7" d="M176.9,557.7H42c0.4,1.2,0.6,2.4,0.6,3.7c0,6.6-5.6,12-12.5,12c-1.3,0-2.6-0.2-3.8-0.6v354.7
			c1.2-0.4,2.5-0.6,3.8-0.6c6.9,0,12.6,5.4,12.6,12c0,1.2-0.2,2.5-0.6,3.6h118l1.1-1.7c1.9-3.3,5.4-5.4,9.2-5.5h226.3
			c3.8,0.1,7.3,2.2,9.2,5.5l1.1,1.7h118.6c-0.4-1.2-0.6-2.4-0.6-3.6c0-6.6,5.6-12,12.6-12c1.3,0,2.6,0.2,3.8,0.6V572.8
			c-1.2,0.4-2.5,0.6-3.8,0.6c-6.9,0-12.6-5.4-12.6-12c0-1.2,0.2-2.5,0.6-3.6L176.9,557.7L176.9,557.7z"/>
		<path class="st13" d="M542.2,549.4c-0.2-0.1-7.2,0-7.3,0s6.3,22.5,6.2,22.5c-1.2,0.4-2.4,0.5-3.6,0.5c-6.4,0-11.7-5-11.7-11.1
			c0-1.1,0.2-2.3,0.5-3.3c0-0.1,0.1-0.2,0.1-0.3c0-0.5-0.4-0.8-0.9-0.8l0,0H172.1c-2.1,0-2.1,0.8,0,0.8h353.4
			c-0.4,1.2-0.6,2.4-0.6,3.6c0,6.6,5.6,12,12.6,12c1.3,0,2.6-0.2,3.8-0.6v354.7c-1.2-0.4-2.5-0.6-3.8-0.6c-6.9,0-12.6,5.4-12.6,12
			c0,1.2,0.2,2.5,0.6,3.6H407l-1.1-1.7c-1.9-3.3-5.4-5.4-9.2-5.5H170.4c-3.8,0.1-7.3,2.2-9.2,5.5l-1.1,1.7H42
			c0.4-1.2,0.6-2.4,0.6-3.6c0-6.6-5.6-12-12.5-12c-1.3,0-2.6,0.2-3.8,0.6V572.8c1.2,0.4,2.5,0.6,3.8,0.6c6.9,0,12.5-5.4,12.5-12
			c0-1.2-0.2-2.5-0.6-3.7h134.9v-0.8H42c-0.3,0-0.5,0.1-0.7,0.3s-0.2,0.5-0.1,0.7c0.4,1.1,0.6,2.2,0.6,3.4c0,6.1-5.2,11.1-11.7,11.1
			c-1.2,0-2.4-0.2-3.6-0.5c-0.1,0-0.2,0-0.3,0c-0.2,0,6-22.6-0.9-22.6c0.2,9.5,0,10.4,0,23.5v354.7c0,0.3,0.1,0.5,0.4,0.7
			c0.2,0.1,0.3,0.2,0.5,0.2c0.1,0,0.2,0,0.3,0c1.2-0.4,2.4-0.5,3.6-0.5c6.3-0.1,11.5,4.8,11.7,11.1c0,1.2-0.2,2.3-0.6,3.4
			c-0.1,0.3,0,0.5,0.1,0.8c0.2,0.2,0.4,0.3,0.7,0.3h118c0.3,0,0.6-0.1,0.7-0.4l1.1-1.7c1.8-3,5-5,8.5-5.1h226.3
			c3.5,0.1,6.7,2.1,8.5,5.1l1.1,1.7c0.2,0.3,0.4,0.4,0.8,0.4h118.6c0.3,0,0.5-0.1,0.7-0.3s0.2-0.5,0.1-0.8c-0.4-1.1-0.6-2.2-0.5-3.4
			c0.2-6.3,5.4-11.3,11.7-11.1c1.2,0,2.4,0.2,3.6,0.5c0.1,0,0.2,0,0.3,0c0.2,0,0.4-0.1,0.5-0.2c0.2-0.1,0.4-0.4,0.4-0.7V572.8
			c0-0.3,0-6.3,0-8.6c0-0.3,0-0.9,0-1.1L542.2,549.4z"/>
	</g>
</g>
<path class="st0" d="M40.5,538.2H527c7.9,0,14.2,4.7,14.2,10.5v265.1c0,5.8-6.4,10.5-14.2,10.5H40.5c-7.9,0-14.2-4.7-14.2-10.5
	V548.7C26.2,542.9,32.6,538.2,40.5,538.2z"/>
<linearGradient id="SVGID_16_" gradientUnits="userSpaceOnUse" x1="2.075" y1="439.925" x2="40.725" y2="478.575" gradientTransform="matrix(1 0 0 -1 0 830)">
	<stop  offset="0" style="stop-color:#F3B621"/>
	<stop  offset="0.9995" style="stop-color:#F7A117"/>
</linearGradient>
<rect x="17.5" y="336" class="st17" width="7.8" height="69.5"/>
</svg>
