<?xml version="1.0" encoding="utf-8"?>
<!-- Generator: Adobe Illustrator 22.0.1, SVG Export Plug-In . SVG Version: 6.00 Build 0)  -->
<svg version="1.1" id="Layer_1" xmlns="http://www.w3.org/2000/svg" xmlns:xlink="http://www.w3.org/1999/xlink" x="0px" y="0px"
	 viewBox="0 0 248.6 70" style="enable-background:new 0 0 248.6 70;" xml:space="preserve">
<style type="text/css">
	.st0{fill:#FFFFFF;}
	.st1{fill:#1F3568;}
	.st2{fill:#4285F4;}
	.st3{fill:#34A853;}
	.st4{fill:#FBBC04;}
	.st5{fill:#EA4335;}
	.st6{fill:#C5221F;}
</style>
<path class="st0" d="M38.5,6.3c-7.4,0-13.5,6-13.5,13.4s6,13.5,13.5,13.5c7.4,0,13.5-6,13.5-13.4l0,0C52,12.4,45.9,6.3,38.5,6.3z"/>
<title>Asset 4</title>
<g id="Layer_2_1_">
	<g id="Layer_1-2">
		<path class="st1" d="M228.7,39H20C9.8,39,1,31.4,0.1,21.3C-0.9,10.6,7,1.1,17.7,0.1C18.3,0,18.9,0,19.5,0h208.8
			c10.1,0,19,7.6,19.9,17.7c1,10.7-6.9,20.2-17.6,21.2C229.9,39,229.3,39,228.7,39z M20,2C10.3,1.7,2.3,9.4,2.1,19.1
			S9.5,36.8,19.1,37c0.3,0,0.6,0,0.8,0h209.3c9.6-0.6,17-8.9,16.4-18.5c-0.5-8.9-7.6-16-16.4-16.5L20,2z"/>
		<path class="st1" d="M64.1,13.6l2.8,7.9l2.8-7.9h3v11h-2.3v-3l0.2-5.2l-3,8.2h-1.5l-3-8.1l0.3,5.2v3h-2.3v-11H64.1z"/>
		<path class="st1" d="M79.2,24.6c-0.1-0.2-0.2-0.5-0.2-0.7c-0.5,0.6-1.2,0.9-2,0.9c-0.7,0-1.4-0.2-2-0.7c-0.5-0.4-0.8-1.1-0.8-1.7
			c0-0.8,0.3-1.6,1-2c0.8-0.5,1.8-0.8,2.8-0.7h1v-0.5c0-0.3-0.1-0.7-0.3-0.9c-0.2-0.2-0.6-0.4-0.9-0.3c-0.3,0-0.6,0.1-0.9,0.3
			c-0.2,0.2-0.3,0.4-0.3,0.7h-2.2c0-0.5,0.2-0.9,0.4-1.3c0.3-0.4,0.7-0.7,1.2-0.9c0.6-0.2,1.2-0.4,1.8-0.3c0.9,0,1.7,0.2,2.4,0.8
			c0.6,0.5,0.9,1.3,0.9,2.1v3.5c0,0.6,0.1,1.2,0.3,1.8v0.1H79.2z M77.4,23.1c0.3,0,0.6-0.1,0.9-0.2c0.3-0.1,0.5-0.3,0.6-0.6v-1.4
			h-0.8c-1.1,0-1.7,0.4-1.7,1.1v0.1c0,0.3,0.1,0.5,0.3,0.7C76.8,23,77.1,23.1,77.4,23.1z"/>
		<path class="st1" d="M87.1,22.3c0-0.3-0.2-0.5-0.4-0.6c-0.4-0.2-0.8-0.3-1.3-0.4c-1.9-0.4-2.9-1.2-2.9-2.5c0-0.7,0.3-1.4,0.9-1.8
			c0.7-0.5,1.5-0.8,2.3-0.7c0.9-0.1,1.8,0.2,2.5,0.7c0.6,0.4,0.9,1.1,0.9,1.9H87c0-0.3-0.1-0.6-0.3-0.8c-0.3-0.2-0.6-0.3-0.9-0.3
			c-0.3,0-0.6,0.1-0.8,0.2c-0.2,0.2-0.3,0.4-0.3,0.6c0,0.2,0.1,0.5,0.3,0.6c0.4,0.2,0.8,0.3,1.2,0.4c0.5,0.1,0.9,0.2,1.4,0.4
			c1,0.2,1.7,1.1,1.7,2.2c0,0.7-0.4,1.4-1,1.8c-0.7,0.5-1.6,0.7-2.5,0.7c-0.6,0-1.2-0.1-1.8-0.4c-0.5-0.2-0.9-0.6-1.2-1
			c-0.3-0.4-0.4-0.9-0.4-1.3h2.1c0,0.3,0.2,0.7,0.4,0.9c0.3,0.2,0.7,0.3,1.1,0.3c0.4,0,0.7-0.1,1-0.2C87.1,22.8,87.2,22.6,87.1,22.3
			z"/>
		<path class="st1" d="M95.5,23.8c-0.5,0.7-1.4,1-2.2,1c-0.7,0.1-1.5-0.2-2-0.8c-0.5-0.6-0.8-1.4-0.7-2.2v-5.3h2.2v5.3
			c0,0.9,0.4,1.3,1.2,1.3c0.6,0.1,1.2-0.2,1.5-0.8v-5.8h2.2v8.1h-2L95.5,23.8z"/>
		<path class="st1" d="M102.2,21.3l-0.8,0.8v2.5h-2.1V13h2.1v6.4l0.4-0.5l2.1-2.4h2.6l-2.9,3.4l3.2,4.7h-2.5L102.2,21.3z"/>
		<path class="st1" d="M113.4,16.5l0.1,0.9c0.6-0.7,1.4-1.1,2.3-1.1c0.9-0.1,1.8,0.4,2.2,1.2c0.5-0.8,1.5-1.3,2.4-1.2
			c0.8-0.1,1.5,0.2,2,0.8c0.5,0.7,0.7,1.5,0.7,2.3v5.2h-2.2v-5.2c0-0.4-0.1-0.7-0.3-1c-0.3-0.2-0.6-0.4-0.9-0.3
			c-0.6,0-1.2,0.4-1.4,0.9v5.6H116v-5.2c0-0.4-0.1-0.7-0.3-1c-0.3-0.2-0.6-0.4-0.9-0.3c-0.6,0-1.1,0.3-1.3,0.8v5.8h-2.2v-8.1H113.4z
			"/>
		<path class="st1" d="M128.4,24.7c-1.1,0-2.1-0.4-2.9-1.1c-0.8-0.8-1.2-1.8-1.1-2.9v-0.2c0-0.8,0.1-1.5,0.5-2.2
			c0.3-0.6,0.8-1.1,1.3-1.5c0.6-0.4,1.3-0.5,2-0.5c1-0.1,1.9,0.3,2.6,1c0.7,0.8,1.1,1.9,1,3v0.9h-5.2c0,0.5,0.3,0.9,0.6,1.3
			c0.4,0.3,0.9,0.5,1.3,0.5c0.8,0,1.5-0.3,2-0.9l1.1,1.2c-0.3,0.5-0.8,0.8-1.3,1.1C129.8,24.6,129.1,24.8,128.4,24.7z M128.2,18
			c-0.4,0-0.7,0.2-1,0.4c-0.3,0.4-0.5,0.8-0.5,1.2h3v-0.2c0-0.4-0.1-0.8-0.4-1.1C129,18.2,128.6,18,128.2,18L128.2,18z"/>
		<path class="st1" d="M135.3,24.6h-2.2V13h2.2V24.6z"/>
		<path class="st1" d="M141.8,24.6c-0.1-0.2-0.2-0.5-0.2-0.7c-0.5,0.6-1.3,0.9-2.1,0.9c-0.7,0-1.4-0.2-2-0.7
			c-0.5-0.4-0.8-1.1-0.8-1.7c0-0.8,0.3-1.6,1-2c0.8-0.5,1.8-0.8,2.8-0.7h1v-0.5c0-0.3-0.1-0.7-0.3-0.9c-0.2-0.2-0.6-0.4-0.9-0.3
			c-0.3,0-0.6,0.1-0.9,0.3c-0.2,0.2-0.3,0.4-0.3,0.7h-2.2c0-0.5,0.2-0.9,0.4-1.3c0.3-0.4,0.7-0.7,1.2-0.9c0.6-0.2,1.2-0.3,1.8-0.3
			c0.9,0,1.7,0.2,2.4,0.8c0.6,0.5,0.9,1.3,0.9,2.1v3.5c0,0.6,0.1,1.2,0.3,1.8v0.1H141.8z M140,23.1c0.3,0,0.6-0.1,0.9-0.2
			c0.3-0.1,0.5-0.3,0.6-0.6v-1.4h-0.8c-1.1,0-1.7,0.4-1.7,1.1v0.1c0,0.3,0.1,0.5,0.3,0.7C139.4,23,139.7,23.1,140,23.1L140,23.1z"/>
		<path class="st1" d="M147.6,24.6h-2.2V13h2.2L147.6,24.6z"/>
		<path class="st1" d="M154.3,23.8c-0.5,0.7-1.4,1-2.2,1c-0.7,0-1.5-0.2-2-0.8c-0.5-0.6-0.7-1.4-0.7-2.2v-5.3h2.2v5.3
			c0,0.9,0.4,1.3,1.2,1.3c0.6,0.1,1.2-0.2,1.5-0.8v-5.8h2.2v8.1h-2.1L154.3,23.8z"/>
		<path class="st1" d="M158,14.3c0-0.3,0.1-0.6,0.3-0.8c0.2-0.2,0.6-0.3,0.9-0.3c0.3,0,0.6,0.1,0.9,0.3c0.2,0.2,0.3,0.5,0.3,0.8
			c0,0.3-0.1,0.6-0.3,0.8c-0.5,0.4-1.3,0.4-1.8,0C158.1,14.9,158,14.6,158,14.3z M160.3,24.6h-2.2v-8.1h2.2V24.6z"/>
		<path class="st1" d="M174.7,23.2c-0.5,0.5-1.1,0.9-1.7,1.1c-0.8,0.3-1.6,0.4-2.5,0.4c-0.9,0-1.7-0.2-2.5-0.6
			c-0.7-0.4-1.3-1-1.7-1.8c-0.4-0.9-0.6-1.8-0.6-2.8v-0.8c0-1,0.2-1.9,0.6-2.8c0.3-0.8,0.9-1.4,1.6-1.8c0.7-0.4,1.6-0.7,2.4-0.6
			c1.1-0.1,2.2,0.3,3.1,0.9c0.8,0.7,1.2,1.7,1.3,2.7h-2.2c0-0.5-0.3-1-0.7-1.4c-0.4-0.3-0.9-0.5-1.4-0.4c-0.7,0-1.4,0.3-1.8,0.9
			c-0.5,0.8-0.7,1.7-0.6,2.6v0.7c-0.1,0.9,0.2,1.8,0.6,2.6c0.5,0.6,1.2,0.9,1.9,0.9c0.7,0.1,1.3-0.1,1.8-0.5v-1.9h-2v-1.7h4.3
			L174.7,23.2z"/>
		<path class="st1" d="M178.4,16.5l0.1,0.9c0.6-0.7,1.4-1.1,2.3-1.1c0.9-0.1,1.8,0.4,2.2,1.2c0.5-0.8,1.5-1.3,2.4-1.2
			c0.8-0.1,1.5,0.2,2,0.8c0.5,0.7,0.7,1.5,0.6,2.3v5.2h-2.2v-5.2c0-0.4-0.1-0.7-0.3-1c-0.3-0.2-0.6-0.4-0.9-0.3
			c-0.6,0-1.2,0.4-1.4,0.9v5.6h-2.2v-5.2c0-0.4-0.1-0.7-0.3-1c-0.3-0.2-0.6-0.4-0.9-0.3c-0.6,0-1.1,0.3-1.3,0.8v5.8h-2.2v-8.1H178.4
			z"/>
		<path class="st1" d="M194.4,24.6c-0.1-0.2-0.2-0.5-0.2-0.7c-0.5,0.6-1.3,0.9-2.1,0.9c-0.7,0-1.4-0.2-2-0.7
			c-0.5-0.4-0.8-1.1-0.8-1.7c0-0.8,0.3-1.5,0.9-2c0.8-0.5,1.8-0.8,2.8-0.7h1v-0.5c0-0.3-0.1-0.7-0.3-0.9c-0.2-0.2-0.6-0.4-0.9-0.3
			c-0.3,0-0.6,0.1-0.9,0.3c-0.2,0.2-0.3,0.4-0.3,0.7h-2.2c0-0.5,0.1-0.9,0.4-1.3c0.3-0.4,0.7-0.7,1.2-0.9c0.6-0.2,1.2-0.4,1.8-0.3
			c0.9,0,1.7,0.2,2.4,0.8c0.6,0.5,0.9,1.3,0.9,2.1v3.5c0,0.6,0.1,1.2,0.3,1.8v0.1H194.4z M192.7,23.1c0.3,0,0.6-0.1,0.9-0.2
			c0.3-0.1,0.5-0.3,0.6-0.6v-1.4h-0.8c-1.1,0-1.7,0.4-1.7,1.1v0.1c0,0.3,0.1,0.5,0.3,0.7C192.1,23,192.4,23.1,192.7,23.1L192.7,23.1
			z"/>
		<path class="st1" d="M198,14.3c0-0.3,0.1-0.6,0.3-0.8c0.5-0.4,1.3-0.4,1.8,0c0.4,0.4,0.4,1.2,0,1.6c-0.2,0.2-0.6,0.3-0.9,0.3
			c-0.3,0-0.6-0.1-0.9-0.3C198.1,14.9,198,14.6,198,14.3z M200.3,24.6h-2.2v-8.1h2.2V24.6z"/>
		<path class="st1" d="M204.4,24.6h-2.2V13h2.2V24.6z"/>
	</g>
</g>
<path class="st2" d="M31.7,25.5h2.5v-6.1l-3.6-2.7v7.8C30.6,25.1,31.1,25.5,31.7,25.5"/>
<path class="st3" d="M42.9,25.5h2.5c0.6,0,1.1-0.5,1.1-1.1v-7.8l-3.6,2.7"/>
<path class="st4" d="M42.9,14.7v4.7l3.6-2.7v-1.4c0-1.3-1.5-2.1-2.6-1.3"/>
<path class="st5" d="M34.2,19.4v-4.7l4.3,3.2l4.3-3.2v4.7l-4.3,3.2"/>
<path class="st6" d="M30.6,15.3v1.4l3.6,2.7v-4.7l-1-0.8C32.1,13.2,30.6,13.9,30.6,15.3"/>
</svg>
