<svg id="Layer_1" xmlns="http://www.w3.org/2000/svg" xmlns:xlink="http://www.w3.org/1999/xlink" viewBox="0 0 782.9 184.7"><style>.st0{opacity:.3}.st1{fill:#ffda70}.st2{fill:url(#SVGID_1_)}.st3{enable-background:new}</style><g id="Layer_2_1_"><g id="Layer_1-2"><image width="3263" height="738" xlink:href="F84439FBE22F64EF.png" transform="translate(0 7.577) scale(.2399)" overflow="visible" class=""/><path class="st1" d="M86.8 0H696c34.3 0 62.1 27.8 62.1 62.1s-27.8 62.1-62.1 62.1H86.8c-34.3 0-62.1-27.8-62.1-62.1C24.6 27.8 52.5 0 86.8 0z"/><linearGradient id="SVGID_1_" gradientUnits="userSpaceOnUse" x1="64.993" y1="264.886" x2="878.383" y2="-85.884" gradientTransform="matrix(1 0 0 -1 0 186)"><stop offset="0" stop-color="#FCB415"/><stop offset="0" stop-color="#F7B017"/><stop offset="0" stop-color="#E1A01F"/><stop offset=".01" stop-color="#D09425"/><stop offset=".01" stop-color="#C58B29"/><stop offset=".02" stop-color="#BE862B"/><stop offset=".03" stop-color="#BC852C"/><stop offset=".08" stop-color="#C1882A"/><stop offset=".13" stop-color="#CE9225"/><stop offset=".18" stop-color="#E5A31D"/><stop offset=".23" stop-color="#FCB415"/><stop offset=".42" stop-color="#F9B216"/><stop offset=".55" stop-color="#F0AB19"/><stop offset=".66" stop-color="#E1A01F"/><stop offset=".76" stop-color="#CC9126"/><stop offset=".81" stop-color="#BC852C"/></linearGradient><path class="st2" d="M86.9 5.4h608.9c31.2 0 56.5 25.3 56.5 56.5s-25.3 56.5-56.5 56.5H86.9c-31.2 0-56.5-25.3-56.5-56.5.1-31.2 25.4-56.5 56.5-56.5z"/><g class="st3"><path d="M107.8 71.3h14.4v5.4h-21.1V43.9h6.8v27.4zM125.6 46c0-1 .3-1.8 1-2.4.7-.6 1.5-.9 2.7-.9 1.1 0 2 .3 2.7.9.7.6 1 1.4 1 2.4s-.3 1.8-1 2.4c-.7.6-1.6.9-2.6.9-1.1 0-2-.3-2.6-.9-.9-.6-1.2-1.4-1.2-2.4zm6.9 30.7H126V52.3h6.5v24.4zM144.2 55c1.7-2.1 3.9-3.1 6.5-3.1 5.3 0 8 3.1 8 9.2v15.6h-6.5V61.3c0-1.4-.3-2.4-.9-3.1-.6-.7-1.6-1-3-1-1.9 0-3.3.7-4.1 2.2v17.3h-6.5V42.1h6.5V55zm33.7 21.7c-.3-.6-.5-1.3-.7-2.2-1.6 1.8-3.6 2.6-6.2 2.6-2.4 0-4.4-.7-5.9-2.1-1.6-1.4-2.4-3.1-2.4-5.2 0-2.6 1-4.6 2.9-6s4.7-2.1 8.3-2.1h3v-1.4c0-1.1-.3-2-.9-2.7-.6-.7-1.5-1-2.7-1-1.1 0-2 .3-2.6.8-.6.5-.9 1.2-.9 2.2h-6.5c0-1.4.4-2.7 1.3-3.9.9-1.2 2.1-2.1 3.7-2.8 1.6-.7 3.4-1 5.4-1 3 0 5.4.8 7.2 2.3 1.8 1.5 2.6 3.6 2.6 6.4v10.6c0 2.3.3 4.1 1 5.3v.4h-6.6zm-5.4-4.5c1 0 1.8-.2 2.7-.6.8-.4 1.4-1 1.8-1.7v-4.2h-2.4c-3.3 0-5 1.1-5.2 3.4v.4c0 .8.3 1.5.9 2s1.2.7 2.2.7zm23.8-25.9v6h4.2v4.8h-4.2v12.2c0 .9.2 1.5.5 1.9.3.4 1 .6 2 .6.7 0 1.4-.1 1.9-.2v4.9c-1.3.4-2.6.6-3.9.6-4.6 0-6.9-2.3-7-6.9V57.1h-3.6v-4.8h3.6v-6h6.5zm29.4 25.6c1.2 0 2.2-.3 2.9-1s1.1-1.5 1.2-2.6h6.1c0 1.7-.5 3.2-1.4 4.5-.9 1.4-2.1 2.4-3.6 3.2-1.5.8-3.2 1.1-5.1 1.1-3.5 0-6.2-1.1-8.3-3.3-2-2.2-3-5.3-3-9.2v-.4c0-3.8 1-6.8 3-9s4.7-3.4 8.2-3.4c3.1 0 5.5.9 7.3 2.6s2.8 4 2.8 6.9h-6.1c0-1.3-.4-2.3-1.2-3.1-.8-.8-1.7-1.2-3-1.2-1.5 0-2.7.6-3.4 1.7-.8 1.1-1.2 2.9-1.2 5.4v.7c0 2.5.4 4.3 1.1 5.4 1 1.2 2.2 1.7 3.7 1.7zm28.1 4.8c-.3-.6-.5-1.3-.7-2.2-1.6 1.8-3.6 2.6-6.2 2.6-2.4 0-4.4-.7-5.9-2.1-1.6-1.4-2.4-3.1-2.4-5.2 0-2.6 1-4.6 2.9-6s4.7-2.1 8.3-2.1h3v-1.4c0-1.1-.3-2-.9-2.7-.6-.7-1.5-1-2.7-1-1.1 0-2 .3-2.6.8-.6.5-.9 1.2-.9 2.2h-6.5c0-1.4.4-2.7 1.3-3.9.9-1.2 2.1-2.1 3.7-2.8 1.6-.7 3.4-1 5.4-1 3 0 5.4.8 7.2 2.3 1.8 1.5 2.6 3.6 2.6 6.4v10.6c0 2.3.3 4.1 1 5.3v.4h-6.6zm-5.4-4.5c1 0 1.8-.2 2.7-.6.8-.4 1.4-1 1.8-1.7v-4.2h-2.4c-3.3 0-5 1.1-5.2 3.4v.4c0 .8.3 1.5.9 2s1.2.7 2.2.7z"/></g><path d="M278.1 58.4c-.9-.1-1.7-.2-2.3-.2-2.5 0-4.1.8-4.8 2.5v16h-6.5V52.3h6.2l.2 2.9c1.3-2.2 3.1-3.4 5.4-3.4.7 0 1.4.1 2 .3l-.2 6.3z" class=""/><g class="st3"><path d="M294.7 76.7c-.3-.6-.5-1.3-.7-2.2-1.6 1.8-3.6 2.6-6.2 2.6-2.4 0-4.4-.7-5.9-2.1-1.6-1.4-2.4-3.1-2.4-5.2 0-2.6 1-4.6 2.9-6s4.7-2.1 8.3-2.1h3v-1.4c0-1.1-.3-2-.9-2.7-.6-.7-1.5-1-2.7-1-1.1 0-2 .3-2.6.8-.6.5-.9 1.2-.9 2.2h-6.5c0-1.4.4-2.7 1.3-3.9.9-1.2 2.1-2.1 3.7-2.8 1.6-.7 3.4-1 5.4-1 3 0 5.4.8 7.2 2.3 1.8 1.5 2.6 3.6 2.6 6.4v10.6c0 2.3.3 4.1 1 5.3v.4h-6.6zm-5.4-4.5c1 0 1.8-.2 2.7-.6.8-.4 1.4-1 1.8-1.7v-4.2h-2.4c-3.3 0-5 1.1-5.2 3.4v.4c0 .8.3 1.5.9 2s1.2.7 2.2.7zm49.5-7.5c0 3.8-.9 6.8-2.6 9-1.7 2.3-4 3.4-6.9 3.4-2.5 0-4.5-.9-6-2.6V86h-6.5V52.3h6l.2 2.4c1.6-1.9 3.6-2.8 6.2-2.8 3 0 5.3 1.1 7 3.3 1.7 2.2 2.5 5.3 2.5 9.2v.3zm-6.5-.4c0-2.3-.4-4-1.2-5.3-.8-1.2-2-1.8-3.5-1.8-2 0-3.5.8-4.2 2.3v10c.8 1.6 2.2 2.4 4.3 2.4 3 0 4.6-2.5 4.6-7.6zm21.8 12.9c-3.6 0-6.5-1.1-8.7-3.3-2.2-2.2-3.4-5.1-3.4-8.8v-.6c0-2.5.5-4.6 1.4-6.6.9-1.9 2.3-3.4 4-4.5 1.7-1 3.7-1.6 5.9-1.6 3.3 0 6 1.1 7.9 3.2 1.9 2.1 2.9 5.1 2.9 9v2.7h-15.5c.2 1.6.8 2.9 1.9 3.8 1.1 1 2.4 1.4 4 1.4 2.5 0 4.5-.9 5.9-2.7l3.2 3.6c-1 1.4-2.3 2.5-4 3.2-1.7.8-3.5 1.2-5.5 1.2zm-.8-20.1c-1.3 0-2.3.4-3.1 1.3-.8.9-1.3 2.1-1.5 3.8h9.1v-.5c0-1.4-.4-2.6-1.2-3.4-.8-.8-1.9-1.2-3.3-1.2zm20.5-4.8l.2 2.8c1.7-2.2 4.1-3.3 7-3.3 2.6 0 4.5.8 5.8 2.3 1.3 1.5 1.9 3.8 1.9 6.8v15.8h-6.5V61.1c0-1.4-.3-2.4-.9-3-.6-.6-1.6-.9-3-.9-1.8 0-3.2.8-4.1 2.3v17.2h-6.5V52.3h6.1zm34.5 21.9c-1.6 2-3.8 2.9-6.7 2.9-2.6 0-4.6-.8-6-2.3-1.4-1.5-2.1-3.7-2.1-6.6v-16h6.5V68c0 2.5 1.2 3.8 3.5 3.8 2.2 0 3.7-.8 4.6-2.3V52.3h6.5v24.4h-6.1l-.2-2.5zm20.1-7.3l-2.3 2.3v7.4h-6.5V42.1h6.5v19.2l1.3-1.6 6.2-7.3h7.8l-8.8 10.2 9.6 14.2h-7.5l-6.3-9.9zm29.9 9.8c-.3-.6-.5-1.3-.7-2.2-1.6 1.8-3.6 2.6-6.2 2.6-2.4 0-4.4-.7-5.9-2.1-1.6-1.4-2.4-3.1-2.4-5.2 0-2.6 1-4.6 2.9-6 1.9-1.4 4.7-2.1 8.3-2.1h3v-1.4c0-1.1-.3-2-.9-2.7-.6-.7-1.5-1-2.7-1-1.1 0-2 .3-2.6.8-.6.5-.9 1.2-.9 2.2h-6.5c0-1.4.4-2.7 1.3-3.9.9-1.2 2.1-2.1 3.7-2.8 1.6-.7 3.4-1 5.4-1 3 0 5.4.8 7.2 2.3 1.8 1.5 2.6 3.6 2.6 6.4v10.6c0 2.3.3 4.1 1 5.3v.4h-6.6zm-5.4-4.5c1 0 1.8-.2 2.7-.6.8-.4 1.4-1 1.8-1.7v-4.2H455c-3.3 0-5 1.1-5.2 3.4v.4c0 .8.3 1.5.9 2s1.2.7 2.2.7z"/></g><path d="M482.6 58.4c-.9-.1-1.7-.2-2.3-.2-2.5 0-4.1.8-4.8 2.5v16H469V52.3h6.2l.2 2.9c1.3-2.2 3.1-3.4 5.4-3.4.7 0 1.4.1 2 .3l-.2 6.3z" class=""/><g class="st3"><path d="M499.2 76.7c-.3-.6-.5-1.3-.7-2.2-1.6 1.8-3.6 2.6-6.2 2.6-2.4 0-4.4-.7-5.9-2.1-1.6-1.4-2.4-3.1-2.4-5.2 0-2.6 1-4.6 2.9-6 1.9-1.4 4.7-2.1 8.3-2.1h3v-1.4c0-1.1-.3-2-.9-2.7-.6-.7-1.5-1-2.7-1-1.1 0-2 .3-2.6.8-.6.5-.9 1.2-.9 2.2h-6.5c0-1.4.4-2.7 1.3-3.9.9-1.2 2.1-2.1 3.7-2.8 1.6-.7 3.4-1 5.4-1 3 0 5.4.8 7.2 2.3 1.8 1.5 2.6 3.6 2.6 6.4v10.6c0 2.3.3 4.1 1 5.3v.4h-6.6zm-5.4-4.5c1 0 1.8-.2 2.7-.6.8-.4 1.4-1 1.8-1.7v-4.2h-2.4c-3.3 0-5 1.1-5.2 3.4v.4c0 .8.3 1.5.9 2s1.2.7 2.2.7zm22-19.9l.2 2.8c1.7-2.2 4.1-3.3 7-3.3 2.6 0 4.5.8 5.8 2.3 1.3 1.5 1.9 3.8 1.9 6.8v15.8h-6.5V61.1c0-1.4-.3-2.4-.9-3-.6-.6-1.6-.9-3-.9-1.8 0-3.2.8-4.1 2.3v17.2h-6.5V52.3h6.1zm37.8 2.7c1.7-2.1 3.9-3.1 6.5-3.1 5.3 0 8 3.1 8 9.2v15.6h-6.5V61.3c0-1.4-.3-2.4-.9-3.1-.6-.7-1.6-1-3-1-1.9 0-3.3.7-4.1 2.2v17.3H547V42.1h6.5V55zm33.6 21.7c-.3-.6-.5-1.3-.7-2.2-1.6 1.8-3.6 2.6-6.2 2.6-2.4 0-4.4-.7-5.9-2.1-1.6-1.4-2.4-3.1-2.4-5.2 0-2.6 1-4.6 2.9-6 1.9-1.4 4.7-2.1 8.3-2.1h3v-1.4c0-1.1-.3-2-.9-2.7-.6-.7-1.5-1-2.7-1-1.1 0-2 .3-2.6.8-.6.5-.9 1.2-.9 2.2h-6.5c0-1.4.4-2.7 1.3-3.9.9-1.2 2.1-2.1 3.7-2.8 1.6-.7 3.4-1 5.4-1 3 0 5.4.8 7.2 2.3 1.8 1.5 2.6 3.6 2.6 6.4v10.6c0 2.3.3 4.1 1 5.3v.4h-6.6zm-5.4-4.5c1 0 1.8-.2 2.7-.6.8-.4 1.4-1 1.8-1.7v-4.2h-2.4c-3.3 0-5 1.1-5.2 3.4v.4c0 .8.3 1.5.9 2s1.2.7 2.2.7zm15-7.9c0-3.8.9-6.8 2.6-9.1s4-3.4 7-3.4c2.4 0 4.3.9 5.9 2.7V42.1h6.5v34.6h-5.9l-.3-2.6c-1.6 2-3.7 3-6.3 3-2.9 0-5.2-1.1-6.9-3.4s-2.6-5.3-2.6-9.4zm6.5.5c0 2.3.4 4 1.2 5.3s2 1.8 3.5 1.8c2 0 3.4-.9 4.3-2.6v-9.6c-.8-1.7-2.2-2.6-4.2-2.6-3.2.1-4.8 2.6-4.8 7.7zM623.8 46c0-1 .3-1.8 1-2.4.7-.6 1.5-.9 2.7-.9 1.1 0 2 .3 2.7.9.7.6 1 1.4 1 2.4s-.3 1.8-1 2.4c-.7.6-1.6.9-2.6.9s-2-.3-2.6-.9c-.9-.6-1.2-1.4-1.2-2.4zm6.9 30.7h-6.5V52.3h6.5v24.4zm19.5 0c-.3-.6-.5-1.3-.7-2.2-1.6 1.8-3.6 2.6-6.2 2.6-2.4 0-4.4-.7-5.9-2.1-1.6-1.4-2.4-3.1-2.4-5.2 0-2.6 1-4.6 2.9-6 1.9-1.4 4.7-2.1 8.3-2.1h3v-1.4c0-1.1-.3-2-.9-2.7-.6-.7-1.5-1-2.7-1-1.1 0-2 .3-2.6.8-.6.5-.9 1.2-.9 2.2h-6.5c0-1.4.4-2.7 1.3-3.9.9-1.2 2.1-2.1 3.7-2.8 1.6-.7 3.4-1 5.4-1 3 0 5.4.8 7.2 2.3s2.6 3.6 2.6 6.4v10.6c0 2.3.3 4.1 1 5.3v.4h-6.6zm-5.4-4.5c1 0 1.8-.2 2.7-.6s1.4-1 1.8-1.7v-4.2h-2.4c-3.3 0-5 1.1-5.2 3.4v.4c0 .8.3 1.5.9 2s1.2.7 2.2.7zM667.2 55c1.7-2.1 3.9-3.1 6.5-3.1 5.3 0 8 3.1 8 9.2v15.6h-6.5V61.3c0-1.4-.3-2.4-.9-3.1-.6-.7-1.6-1-3-1-1.9 0-3.3.7-4.1 2.2v17.3h-6.5V42.1h6.5V55z"/></g></g></g></svg>