<svg id="Layer_1" xmlns="http://www.w3.org/2000/svg" viewBox="0 0 283.7 48.1"><style>.st0{fill:#ffda70}.st1{fill:url(#SVGID_1_)}</style><g id="Layer_2_1_"><g id="Layer_1-2"><g id="Layer_2-2"><g id="Layer_1-2-2"><path class="st0" d="M24 0h235.7c13.3 0 24 10.8 24 24 0 13.3-10.8 24-24 24H24C10.7 48 0 37.2 0 24S10.8 0 24 0z"/><linearGradient id="SVGID_1_" gradientUnits="userSpaceOnUse" x1="15.616" y1="417.896" x2="330.206" y2="553.566" gradientTransform="translate(0 -448.32)"><stop offset="0" stop-color="#FCB415"/><stop offset="0" stop-color="#F7B017"/><stop offset="0" stop-color="#E1A01F"/><stop offset=".01" stop-color="#D09425"/><stop offset=".01" stop-color="#C58B29"/><stop offset=".02" stop-color="#BE862B"/><stop offset=".03" stop-color="#BC852C"/><stop offset=".08" stop-color="#C1882A"/><stop offset=".13" stop-color="#CE9225"/><stop offset=".18" stop-color="#E5A31D"/><stop offset=".23" stop-color="#FCB415"/><stop offset=".42" stop-color="#F9B216"/><stop offset=".55" stop-color="#F0AB19"/><stop offset=".66" stop-color="#E1A01F"/><stop offset=".76" stop-color="#CC9126"/><stop offset=".81" stop-color="#BC852C"/></linearGradient><path class="st1" d="M24.1 2.2h235.5c12 0 21.8 9.8 21.8 21.8 0 12.1-9.8 21.8-21.8 21.8H24.1C12 45.8 2.3 36.1 2.3 24c0-12 9.8-21.8 21.8-21.8z"/></g></g></g></g><path d="M59 28.3h5.8v1.8h-8V17.3H59v11zm7.3-10.2c0-.3.1-.6.3-.8.2-.2.5-.3.9-.3s.7.1.9.3c.2.2.3.5.3.8 0 .3-.1.6-.3.8-.2.2-.5.3-.9.3s-.7-.1-.9-.3c-.2-.2-.3-.4-.3-.8zm2.3 12h-2.1v-9.5h2.1v9.5zm4.4-8.5c.7-.8 1.6-1.2 2.6-1.2 2 0 3 1.2 3.1 3.5v6.2h-2.1V24c0-.7-.1-1.1-.4-1.4-.3-.3-.7-.4-1.2-.4-.9 0-1.5.4-1.9 1.1v6.8H71V16.6h2v5zm13.5 8.5c-.1-.2-.2-.5-.2-.9-.7.7-1.5 1.1-2.5 1.1-.9 0-1.7-.3-2.3-.8-.6-.5-.9-1.2-.9-2 0-1 .4-1.8 1.1-2.3.7-.5 1.8-.8 3.2-.8h1.3v-.6c0-.5-.1-.9-.4-1.2-.3-.4-.8-.6-1.3-.6s-.9.1-1.2.4c-.3.2-.5.5-.5.9h-2.1c0-.5.2-1 .5-1.5s.8-.8 1.4-1.1c.6-.3 1.3-.4 2-.4 1.1 0 2 .3 2.6.8.7.6 1 1.3 1 2.3v4.3c0 .9.1 1.5.4 2v.1h-2.1zm-2.4-1.6c.4 0 .8-.1 1.2-.3.4-.2.6-.5.8-.8v-1.8H85c-.8 0-1.4.1-1.8.4-.4.3-.6.7-.6 1.2 0 .4.1.7.4 1 .3.2.7.3 1.1.3zm9.1-10.2v2.3h1.7v1.6h-1.7v5.3c0 .4.1.6.2.8.1.2.4.2.8.2.2 0 .5 0 .7-.1V30c-.5.1-.9.2-1.4.2-1.6 0-2.4-.9-2.4-2.7v-5.4h-1.6v-1.6H91v-2.3h2.2zm7.3 7c0-1.5.3-2.6 1-3.5.7-.9 1.6-1.3 2.7-1.3 1 0 1.8.3 2.4 1v-4.8h2.1v13.4h-1.9l-.1-1c-.6.8-1.5 1.2-2.5 1.2-1.1 0-2-.4-2.7-1.3s-1-2.2-1-3.7zm2.1.1c0 1 .2 1.7.6 2.2.4.5.9.8 1.6.8.9 0 1.5-.4 1.9-1.2v-4c-.4-.8-1-1.1-1.9-1.1-.7 0-1.2.3-1.6.8-.4.6-.6 1.4-.6 2.5zm12.6 4.8c-1.3 0-2.4-.4-3.3-1.3s-1.3-2-1.3-3.4v-.3c0-.9.2-1.8.5-2.5.4-.7.9-1.3 1.5-1.7.7-.4 1.4-.6 2.2-.6 1.3 0 2.3.4 3 1.2.7.8 1.1 2 1.1 3.5v.9h-6.2c.1.8.3 1.4.8 1.9s1 .7 1.7.7c1 0 1.8-.4 2.4-1.2l1.1 1.1c-.4.6-.9 1-1.5 1.3-.5.3-1.2.4-2 .4zm-.3-8.1c-.6 0-1.1.2-1.4.6-.4.4-.6 1-.7 1.7h4v-.2c0-.7-.2-1.2-.6-1.6s-.7-.5-1.3-.5zm8.4-3.8v2.3h1.7v1.6h-1.7v5.3c0 .4.1.6.2.8.1.2.4.2.8.2.2 0 .5 0 .7-.1V30c-.5.1-.9.2-1.4.2-1.6 0-2.4-.9-2.4-2.7v-5.4h-1.6v-1.6h1.6v-2.3h2.1zm8.9 11.8c-.1-.2-.2-.5-.2-.9-.7.7-1.5 1.1-2.5 1.1-.9 0-1.7-.3-2.3-.8-.6-.5-.9-1.2-.9-2 0-1 .4-1.8 1.1-2.3.7-.5 1.8-.8 3.2-.8h1.3v-.6c0-.5-.1-.9-.4-1.2-.3-.3-.7-.4-1.2-.4s-.9.1-1.2.4c-.3.2-.5.5-.5.9h-2.1c0-.5.2-1 .5-1.5s.8-.8 1.4-1.1c.6-.3 1.3-.4 2-.4 1.1 0 2 .3 2.6.8.7.6 1 1.3 1 2.3v4.3c0 .9.1 1.5.4 2v.1h-2.2zm-2.3-1.6c.4 0 .8-.1 1.2-.3.4-.2.6-.5.8-.8v-1.8h-1.1c-.8 0-1.4.1-1.8.4-.4.3-.6.7-.6 1.2 0 .4.1.7.4 1 .3.2.6.3 1.1.3zm6.3-10.4c0-.3.1-.6.3-.8.2-.2.5-.3.9-.3s.7.1.9.3c.2.2.3.5.3.8 0 .3-.1.6-.3.8-.2.2-.5.3-.9.3s-.7-.1-.9-.3c-.2-.2-.3-.4-.3-.8zm2.3 12h-2.1v-9.5h2.1v9.5zm4.6 0H141V16.6h2.1v13.5zm10.6-1.6c.5 0 1-.2 1.3-.5s.5-.7.6-1.1h2c0 .6-.2 1.1-.6 1.6-.3.5-.8.9-1.4 1.2-.6.3-1.2.4-1.9.4-1.3 0-2.4-.4-3.1-1.3-.8-.9-1.2-2-1.2-3.5v-.2c0-1.4.4-2.6 1.2-3.5.8-.9 1.8-1.3 3.1-1.3 1.1 0 2 .3 2.7 1 .7.7 1.1 1.5 1.1 2.6h-2c0-.5-.2-1-.6-1.3-.3-.3-.8-.5-1.3-.5-.7 0-1.2.2-1.6.7-.4.5-.6 1.3-.6 2.3v.3c0 1 .2 1.8.6 2.3s1 .8 1.7.8zm11.1 1.6c-.1-.2-.2-.5-.2-.9-.7.7-1.5 1.1-2.5 1.1-.9 0-1.7-.3-2.3-.8-.6-.5-.9-1.2-.9-2 0-1 .4-1.8 1.1-2.3.7-.5 1.8-.8 3.2-.8h1.3v-.6c0-.5-.1-.9-.4-1.2-.3-.3-.7-.4-1.2-.4s-.9.1-1.2.4c-.3.2-.5.5-.5.9h-2.1c0-.5.2-1 .5-1.5s.8-.8 1.4-1.1c.6-.3 1.3-.4 2-.4 1.1 0 2 .3 2.6.8.7.6 1 1.3 1 2.3v4.3c0 .9.1 1.5.4 2v.1h-2.2zm-2.3-1.6c.4 0 .8-.1 1.2-.3s.6-.5.8-.8v-1.8h-1.1c-.8 0-1.4.1-1.8.4-.4.3-.6.7-.6 1.2 0 .4.1.7.4 1 .3.2.7.3 1.1.3zm11.3-6c-.3 0-.6-.1-.9-.1-1 0-1.6.4-2 1.1V30h-2.1v-9.5h2l.1 1.1c.5-.8 1.2-1.2 2.1-1.2.3 0 .6 0 .8.1v2zm6.8 7.6c-.1-.2-.2-.5-.2-.9-.7.7-1.5 1.1-2.5 1.1-.9 0-1.7-.3-2.3-.8-.6-.5-.9-1.2-.9-2 0-1 .4-1.8 1.1-2.3.7-.5 1.8-.8 3.2-.8h1.3v-.6c0-.5-.1-.9-.4-1.2-.3-.3-.7-.4-1.2-.4s-.9.1-1.2.4c-.3.2-.5.5-.5.9h-2.1c0-.5.2-1 .5-1.5s.8-.8 1.4-1.1c.6-.3 1.3-.4 2-.4 1.1 0 2 .3 2.6.8.7.6 1 1.3 1 2.3v4.3c0 .9.1 1.5.4 2v.1h-2.2zm-2.4-1.6c.4 0 .8-.1 1.2-.3s.6-.5.8-.8v-1.8h-1.1c-.8 0-1.4.1-1.8.4-.4.3-.6.7-.6 1.2 0 .4.1.7.4 1 .3.2.7.3 1.1.3zm12.8-7.9l.1 1c.7-.8 1.6-1.2 2.7-1.2 1.3 0 2.1.5 2.6 1.5.7-1 1.7-1.5 2.9-1.5 1 0 1.8.3 2.3.9.5.6.8 1.4.8 2.6v6.2h-2.1v-6.2c0-.6-.1-1-.4-1.3s-.7-.4-1.3-.4c-.5 0-.9.1-1.2.4-.3.3-.5.6-.6 1v6.5h-2.1v-6.2c0-1.1-.6-1.7-1.7-1.7-.9 0-1.5.3-1.8 1v6.9H189v-9.5h2zm19.3 9.5c-.1-.2-.2-.5-.2-.9-.7.7-1.5 1.1-2.5 1.1-.9 0-1.7-.3-2.3-.8-.6-.5-.9-1.2-.9-2 0-1 .4-1.8 1.1-2.3.7-.5 1.8-.8 3.2-.8h1.3v-.6c0-.5-.1-.9-.4-1.2-.3-.3-.7-.4-1.2-.4s-.9.1-1.2.4c-.3.2-.5.5-.5.9h-2.1c0-.5.2-1 .5-1.5s.8-.8 1.4-1.1c.6-.3 1.3-.4 2-.4 1.1 0 2 .3 2.6.8.7.6 1 1.3 1 2.3v4.3c0 .9.1 1.5.4 2v.1h-2.2zm-2.4-1.6c.4 0 .8-.1 1.2-.3s.6-.5.8-.8v-1.8h-1.1c-.8 0-1.4.1-1.8.4-.4.3-.6.7-.6 1.2 0 .4.1.7.4 1 .3.2.7.3 1.1.3zm6.4-10.4c0-.3.1-.6.3-.8.2-.2.5-.3.9-.3s.7.1.9.3c.2.2.3.5.3.8 0 .3-.1.6-.3.8-.2.2-.5.3-.9.3s-.7-.1-.9-.3c-.2-.2-.3-.4-.3-.8zm2.3 12h-2.1v-9.5h2.1v9.5zm4.2-9.5l.1 1.1c.7-.8 1.6-1.3 2.8-1.3 2 0 3 1.1 3 3.4V30h-2.1v-6.1c0-.6-.1-1-.4-1.3-.3-.3-.7-.4-1.3-.4-.9 0-1.5.4-1.9 1.2v6.7h-2.1v-9.5h1.9z"/></svg>