<svg xmlns="http://www.w3.org/2000/svg" viewBox="0 0 46.41 46.41"><g data-name="Layer 2"><path d="M32.47 0H13.94A14 14 0 0 0 0 13.94v18.53a14 14 0 0 0 13.94 13.94h18.53a14 14 0 0 0 13.94-13.94V13.94A14 14 0 0 0 32.47 0zm9.57 32.47a9.58 9.58 0 0 1-9.57 9.57h-3.33V26.59a3 3 0 0 0 0-.31c0-.12 0-.17.15-.17H34c.17 0 .22-.07.24-.22.09-.84.19-1.68.28-2.53.06-.56.1-1.12.16-1.68s.13-1.06.2-1.59c0-.26 0-.29-.24-.29h-5.26c-.2 0-.21 0-.19-.21a1.62 1.62 0 0 0 0-.22c0-1.26 0-2.53.07-3.78a1.37 1.37 0 0 1 1-1.27 6.45 6.45 0 0 1 1.16-.14h3.07c.3 0 .32 0 .32-.32V8.12c0-.23 0-.27-.27-.27h-5.67a6.16 6.16 0 0 0-.75 0c-.52.09-1 .19-1.54.31a5.93 5.93 0 0 0-1.15.37 8.58 8.58 0 0 0-1.17.67 5.63 5.63 0 0 0-1.89 2.32 7.42 7.42 0 0 0-.59 2c-.07.53-.17 1.06-.19 1.59v4.44c0 .13 0 .17-.15.17H18.1c-.26 0-.29 0-.29.28v5.75c0 .25 0 .27.28.27h3.18c.32 0 .31 0 .31.32v15.61h-7.65a9.58 9.58 0 0 1-9.57-9.57V13.85a9.58 9.58 0 0 1 9.57-9.57h18.53a9.58 9.58 0 0 1 9.57 9.57z" fill="#fff" data-name="Layer 1"/></g></svg>