<svg xmlns="http://www.w3.org/2000/svg" viewBox="0 0 46.41 46.41"><g data-name="Layer 2"><g data-name="Layer 1" fill="#fff"><path d="M35.49 8.29A2.72 2.72 0 1 0 38.21 11a2.72 2.72 0 0 0-2.72-2.72zM23.4 30.53a7.33 7.33 0 1 1 7.32-7.32 7.34 7.34 0 0 1-7.32 7.32zm0-18.75a11.43 11.43 0 1 0 11.42 11.43A11.43 11.43 0 0 0 23.4 11.78z"/><path d="M13.94 4.37a9.58 9.58 0 0 0-9.57 9.57v18.53A9.58 9.58 0 0 0 13.94 42h18.53A9.58 9.58 0 0 0 42 32.47V13.94a9.58 9.58 0 0 0-9.57-9.57zm18.53 42H13.94A14 14 0 0 1 0 32.47V13.94A14 14 0 0 1 13.94 0h18.53a14 14 0 0 1 13.94 13.94v18.53a14 14 0 0 1-13.94 13.94z"/></g></g></svg>