<svg xmlns="http://www.w3.org/2000/svg" viewBox="0 0 867.89 488.46"><g data-name="Layer 2"><g data-name="Layer 1"><path d="M694.8 183.24c0-46.79-38.52-83.45-87.71-83.45a92.19 92.19 0 0 0-44.8 11.21v-6.84l-12.29-.58c-1.07 0-2.13-.07-3.19-.07a68.81 68.81 0 0 0-32.1 7.78l.74-5.45h-78.98l-7.52 11a63.58 63.58 0 0 0-24.3-15.47A93.74 93.74 0 0 0 377 96.08c-3.45-.18-6.81-.28-10-.28-3.58 0-7 .12-10.36.35h-.08l.44-44.51V36.21l-16.05 2.7-33.16 3.48-3.14.17c-7.44.38-15.34.64-24.16.81-6.37.12-12.88.18-19.91.19h-1.41c-63.4 0-80.89-3.39-81-3.4l-17.48-2.63-12.36 18.1.43 14.81c.12 5 .27 9.87.41 14.62.32 10.51.63 20.43.63 31.4v11.1a5.71 5.71 0 0 0 5.5 5.72c13.37.49 46.56 1.76 48.29 2.42a1 1 0 0 1 .08.14c2.06 16.63 1.75 33.34 1.42 51 0 0-.09 5.07-.07 5.07-.92 30.56-4.59 56.68-11.22 79.81l-4.6 14.2v.26h306.62v-.28l11.72-.17 12.35-18.11-4.25-16.19a130.59 130.59 0 0 1-2.74-17.4c12.88 30.62 44 51.74 81.36 51.74 31.59 0 58.78-15.05 74.34-38.17l12.4-18.1a81.55 81.55 0 0 0 13.87-45.76z" fill="#00754a"/><path d="M519.85 267.65l12.36-18.1-4.21-16.2a129.8 129.8 0 0 1-2.74-17.4c12.88 30.63 44 51.74 81.36 51.74 31.59 0 58.78-15 74.33-38.16l12.38-18.13a81.57 81.57 0 0 0 13.87-45.76v-.5c0-46.8-38.53-83.45-87.71-83.45a92.26 92.26 0 0 0-44.8 11.17V86l-12.34-.55c-1.07 0-2.14-.07-3.19-.07a68.89 68.89 0 0 0-32.16 7.8l.74-5.45h-78.91l-7.53 11A63.53 63.53 0 0 0 417 83.29 94.06 94.06 0 0 0 389.35 78c-3.45-.18-6.81-.27-10-.27-3.58 0-7 .12-10.36.34h-.08l.41-44.48V18.1l-16 2.7-33.16 3.49-3.14.17c-7.44.37-15.34.64-24.16.8-6.37.12-12.89.18-19.91.19h-1.41c-63.4 0-80.89-3.38-80.95-3.39l-17.48-2.64-12.38 18.11.43 14.81c.12 5 .27 9.87.41 14.62.32 10.51.62 20.43.62 31.4v11.1a5.69 5.69 0 0 0 5.49 5.71c13.38.49 46.57 1.77 48.3 2.43l.08.13c2.06 16.63 1.75 33.34 1.42 51 0 0-.09 5.07-.08 5.07-.91 30.57-4.58 56.69-11.21 79.82l-4.6 14.18h306.55z" fill="#00754a"/><path d="M519.85 267.65l12.36-18.1-4.21-16.2a129.8 129.8 0 0 1-2.74-17.4c12.88 30.63 44 51.74 81.36 51.74 31.59 0 58.78-15 74.33-38.16l12.38-18.13a81.57 81.57 0 0 0 13.87-45.76v-.5c0-46.8-38.53-83.45-87.71-83.45a92.26 92.26 0 0 0-44.8 11.17V86l-12.34-.55c-1.07 0-2.14-.07-3.19-.07a68.89 68.89 0 0 0-32.16 7.8l.74-5.45h-78.91l-7.53 11A63.53 63.53 0 0 0 417 83.29 94.06 94.06 0 0 0 389.35 78c-3.45-.18-6.81-.27-10-.27-3.58 0-7 .12-10.36.34h-.08l.41-44.48V18.1l-16 2.7-33.16 3.49-3.14.17c-7.44.37-15.34.64-24.16.8-6.37.12-12.89.18-19.91.19h-1.41c-63.4 0-80.89-3.38-80.95-3.39l-17.48-2.64-12.38 18.11.43 14.81c.12 5 .27 9.87.41 14.62.32 10.51.62 20.43.62 31.4v11.1a5.69 5.69 0 0 0 5.49 5.71c13.38.49 46.57 1.77 48.3 2.43l.08.13c2.06 16.63 1.75 33.34 1.42 51 0 0-.09 5.07-.08 5.07-.91 30.57-4.58 56.69-11.21 79.82l-4.6 14.18h306.55z" fill="#b0b2b4" style="mix-blend-mode:multiply"/><path d="M515.26 249.72l17-.17 12.36-18.11-4.25-16.19a128.54 128.54 0 0 1-2.74-17.4c12.87 30.62 44 51.74 81.36 51.74 31.58 0 58.78-15.05 74.33-38.17l12.38-18.13a81.48 81.48 0 0 0 13.88-45.76V147c0-46.79-38.53-83.45-87.71-83.45A92.13 92.13 0 0 0 587 74.76v-6.84l-12.34-.55c-1.07 0-2.14-.07-3.2-.07a68.86 68.86 0 0 0-32.09 7.78l.74-5.45h-78.92l-7.53 11a63.41 63.41 0 0 0-24.29-15.46 93.49 93.49 0 0 0-27.67-5.32c-3.45-.18-6.8-.27-10-.27-3.58 0-7 .11-10.36.34h-.09l.42-44.49V0l-16 2.7-33.17 3.48-3.14.17c-7.44.38-15.34.64-24.16.81-6.37.12-12.89.18-19.92.19h-1.41C220.48 7.35 203 4 202.93 4l-17.49-2.68-12.35 18.1.43 14.81c.12 5 .27 9.87.41 14.62.32 10.51.62 20.43.62 31.4v11.1a5.7 5.7 0 0 0 5.49 5.72c13.38.49 46.57 1.76 48.3 2.42l.08.14c2.06 16.63 1.75 33.34 1.42 51 0 0-.09 5.07-.08 5.07-.91 30.56-4.58 56.69-11.21 79.81l-4.6 14.2h301.31z" fill="#132d1b"/><path d="M631.81 63.58A92.13 92.13 0 0 0 587 74.76v-6.84l-12.34-.55c-1.07 0-2.14-.07-3.2-.07a68.86 68.86 0 0 0-32.09 7.78l.74-5.45h-78.92l2.46 15q1.19 7.22 2.07 14.18a64.38 64.38 0 0 0-7.05-12.29c-7.13-9.66-17-16.84-29.3-21.33a93.49 93.49 0 0 0-27.67-5.32c-3.45-.18-6.8-.27-10-.27-3.58 0-7 .11-10.36.34h-.09l.42-44.49V0l-16 2.7-33.17 3.48-3.14.17c-7.44.38-15.34.64-24.16.81-6.37.12-12.89.18-19.92.19h-1.41C220.48 7.35 203 4 202.93 4l-17.49-2.68.43 14.81c.13 5 .27 9.87.42 14.62.32 10.51.62 20.43.62 31.4v11.1a5.68 5.68 0 0 0 5.52 5.75c13.38.49 46.57 1.77 48.3 2.43l.08.13c2.06 16.64 1.75 33.34 1.42 51 0 0-.09 5.07-.08 5.07-.91 30.57-4.58 56.69-11.21 79.82l-4.61 14.19v.72h318.26l-4.27-17.1c0-.15-3.89-15.14-3.89-41.18 0-11.39 2.39-19.85 7.16-25.32.38 46.45 38.77 82.74 87.71 82.74 49.47 0 88.22-36.88 88.22-84v-.5c0-46.76-38.52-83.42-87.71-83.42z"/><path d="M364.55 15.42A219.81 219.81 0 0 1 333.21 19l-3.2.17c-8.19.42-16.38.67-24.57.82q-10.08.19-20.16.19h-1.41c-67.07 0-85.17-4.36-85.17-4.36.39 16.18 1 30.16 1 46.34a4.91 4.91 0 0 0 4.6 4.77c16 1 27.95 1.67 47.43 1.85l.85 4.69q.54 3.3.94 6.63c2.36 19.16 1.74 38.5 1.4 57.75l.06-1.52c-.76 28.52-3.87 57.16-11.75 84.65h75.61c-8.74-30.89-11.05-62.51-11.37-94.51-.15-16-.4-32 1.53-47.85q.4-3.36.94-6.72l.85-4.74c19.47-.19 29.76-.85 45.79-1.88h1.23l6.3-.68a4.84 4.84 0 0 0 4.31-4.77l.41-44.36v-.84c-1.4.22-2.83.51-4.28.79z" fill="#f8ec1d"/><path d="M364.55 15.42A219.81 219.81 0 0 1 333.21 19l-3.2.17c-8.19.42-16.38.67-24.57.82q-10.08.19-20.16.19h-1.41c-67.07 0-85.17-4.36-85.17-4.36.39 16.18 1 30.16 1 46.34a4.91 4.91 0 0 0 4.6 4.77c16 1 27.95 1.67 47.43 1.85l.85 4.69q.54 3.3.94 6.63c2.36 19.16 1.74 38.5 1.4 57.75l.06-1.52c-.76 28.52-3.87 57.16-11.75 84.65h75.61c-8.74-30.89-11.05-62.51-11.37-94.51-.15-16-.4-32 1.53-47.85q.4-3.36.94-6.72l.85-4.74c19.47-.19 29.76-.85 45.79-1.88h1.23l6.3-.68a4.84 4.84 0 0 0 4.31-4.77l.41-44.36v-.84c-1.4.22-2.83.51-4.28.79zM631.81 76.5c-23.94 0-44.24 9.73-57.72 24.89V80.28c-22.62-1-42.79 11.07-50.58 29.66 0 0-1-6.42 1.83-27.4H476.4c12.93 78.74-.61 136-.61 136h52.05s-4.33-16.06-4.33-44.5c0-27.15 12.85-44.16 35.68-45.64a69.18 69.18 0 0 0-2.69 19.1v.5c0 38.65 31.37 70.53 74.8 70.53 43.68 0 75.31-32.37 75.31-71V147c0-38.63-31.39-70.5-74.8-70.5zm28.35 71.5c0 16.32-11 30.12-28.35 30.12-16.83 0-28.87-14.06-28.87-30.63V147c0-16.31 11-30.12 28.36-30.12 16.82 0 28.86 14.05 28.86 30.62z" fill="#f8ec1d"/><path d="M461.26 195.5c-.51-9.48-1.12-19-1.35-28.46-.23-9.76 0-19.52-.07-29.28-.1-10.15-.93-20.21-4.4-29.87a53.21 53.21 0 0 0-7.17-13.71c-6-8.1-14-13.46-23.33-16.86A81.93 81.93 0 0 0 401 72.76c-11.28-.58-22.53-.25-33.63 2.06a82.36 82.36 0 0 0-13 3.47c-6.26 2.42-12.29 5.42-18.39 8.22-2.09 1-2.1 1.22-1.11 3.27q5.29 11.06 10.55 22.13c1.3 2.75 2.64 5.48 4 8.38.74-.33 1.23-.49 1.68-.75a73.12 73.12 0 0 1 35.64-10.11c5.05-.07 10.05.43 14.73 2.61 7.64 3.55 10.53 9.96 10.88 16.96V132.09l-1.62-.26c-3.68-.52-7.37-1.1-11.07-1.43-13-1.18-26-1-38.79 2.49a57.24 57.24 0 0 0-20.75 9.85 37.39 37.39 0 0 0-14 22.12 48.29 48.29 0 0 0-.34 17.94 39.32 39.32 0 0 0 7.68 18.41c8.19 10.5 19.46 15.35 32.28 16.92a59.33 59.33 0 0 0 21.95-1.3c9.36-2.37 17.39-6.84 23.72-14.21.32-.37.67-.72 1.22-1.29a12 12 0 0 1 .68 1.8c.59 3.47 1.23 7 1.68 10.44 0 .23.5 2.53.56 2.7h46.76v-2.71c-.31-6.04-.74-12.05-1.05-18.06zm-48.39-23.91a22.26 22.26 0 0 1-11.72 13.24 27.49 27.49 0 0 1-20 1.59c-5.27-1.52-9.49-4.66-10.71-10.21-1.64-7.41.54-13.62 7.75-17.63a29.29 29.29 0 0 1 9-3c.4 0 15.5-2.67 27.17 2.35-.05 4.58.08 9.19-1.49 13.66z" fill="#f8ec1d"/><path d="M364.55 15.42A219.81 219.81 0 0 1 333.21 19l-3.2.17c-8.19.42-16.38.67-24.57.82q-10.08.19-20.16.19h-1.41c-67.07 0-85.17-4.36-85.17-4.36.39 16.18 1 30.16 1 46.34a4.91 4.91 0 0 0 4.6 4.77c16 1 27.95 1.67 47.43 1.85l.85 4.69q.54 3.3.94 6.63c2.36 19.16 1.74 38.5 1.4 57.75l.06-1.52c-.76 28.52-3.87 57.16-11.75 84.65h75.61c-8.74-30.89-11.05-62.51-11.37-94.51-.15-16-.4-32 1.53-47.85q.4-3.36.94-6.72l.85-4.74c19.47-.19 29.76-.85 45.79-1.88h1.23l6.3-.68a4.84 4.84 0 0 0 4.31-4.77l.41-44.36v-.84c-1.4.22-2.83.51-4.28.79z" fill="#f8ec1d"/><path d="M306.7 213.78l-.55-2.35c-7.18-31.2-8.37-61.75-8.6-84.88v-1.77c-.15-15.46-.31-31.44 1.62-47.37.14-1.17.39-2.81.66-4.65s.58-3.9.83-5.83h4.69c-.25 1.95-.76 4.62-1 6.5s-.51 3.39-.64 4.53c-1.9 15.63-1.74 31.46-1.59 46.77v1.78c.23 22.9 1.39 53.13 8.48 83.9l.92 3.29zm56.6-156.57l-4.54.48.3-31.17c-9.12 1.4-17.42 2-25 2.41l-3.26.18c-7.71.39-15.85.66-24.89.83-6.51.12-13.17.19-20.34.19h-1.41c-39.95 0-63.55-.45-75.84-1.75L204.13 27l-.2-4.73 5.28.5c12.3 1.3 35.17 2.85 74.92 2.85h1.41c7.14 0 13.77-.07 20.25-.19 9-.17 17.09-.44 24.75-.83l3.24-.17c7.61-.43 15.9-1 25-2.43l4.88-.75zm324.01 130.98a64.07 64.07 0 0 0 14.43-40.66V147a63.72 63.72 0 0 0-19.63-46.26c-13-12.51-30.84-19.41-50.3-19.41-21.17 0-40.07 8-53.37 22.51C591.42 92.28 608.51 86 627.38 86c19.62 0 37.62 6.92 50.69 19.54a64.3 64.3 0 0 1 19.81 46.67v.5a64.26 64.26 0 0 1-10.57 35.48zm-118.08-86.81V85.13c-14 .58-26.5 6.52-34.65 16a49.73 49.73 0 0 1 30.78-11.45v28.16l3.87-4.35zm24.98 51.33c0 19.59 14.57 34.93 33.17 34.93A31.67 31.67 0 0 0 652 176.27a32.5 32.5 0 0 1-20.19 6.73c-18.92 0-33.74-15.59-33.74-35.5v-.5a37.54 37.54 0 0 1 4.79-18.61 35.42 35.42 0 0 0-8.65 23.79zm-77.09 60.99h4.71a223.07 223.07 0 0 1-3.19-39.63c0-12.53 2.64-23.11 7.54-31.32-7.36 8.63-11.4 21.06-11.4 36.49a236.13 236.13 0 0 0 2.34 34.46zM516 92c-2.07 17.21-1.29 23.1-1.19 23.77l2.36 15 3.39-8.11-1.88-12c-.1-.66-.87-6.49 1.11-23.29h-37.7c.23 1.55.45 3.08.66 4.61zm-112.75 97.22a32.32 32.32 0 0 1-14.05 3.25 33.87 33.87 0 0 1-9.42-1.37c-7.62-2.2-12.63-7.12-14.12-13.84a21.16 21.16 0 0 1 1.13-13.68c-4.89 4.73-6.67 11.2-5 18.73 1.46 6.61 6.21 11.25 13.72 13.42a33.17 33.17 0 0 0 9.27 1.35 31.81 31.81 0 0 0 13.8-3.19 26.25 26.25 0 0 0 9.52-7.6 28.94 28.94 0 0 1-4.85 2.93zm53.15 6.54c-.12-2.12-.23-4.23-.35-6.35-.41-7.28-.82-14.81-1-22.26-.14-5.75-.11-11.56-.08-17.19V137.8c-.09-8.54-.64-18.58-4.12-28.27a47.55 47.55 0 0 0-6.51-12.46c-5.08-6.89-12-11.86-21.08-15.18a76.53 76.53 0 0 0-22.49-4.27c-3.15-.16-6.19-.24-9-.24a113.41 113.41 0 0 0-23.34 2.21 79.34 79.34 0 0 0-12.28 3.23c-4.46 1.73-8.95 3.84-13.3 5.88l-2.51 1.17c.32.68.64 1.36 1 2 3.37-1.57 6.8-3.11 10.22-4.44a79.85 79.85 0 0 1 12.36-3.26A114.48 114.48 0 0 1 387.3 82c2.87 0 5.93.08 9.08.25A76.71 76.71 0 0 1 419 86.54c9.21 3.35 16.19 8.38 21.34 15.37a48.63 48.63 0 0 1 6.59 12.6c3.5 9.78 4.06 19.87 4.14 28.46v12.16c0 5.63-.06 11.44.08 17.19.17 7.43.59 15 1 22.22q.18 3.18.35 6.36c.19 3.55.41 7 .63 10.47h4.21c-.34-4.87-.66-10.29-.94-15.61z" fill="#d8a028"/><path d="M357.61 142.19a92.26 92.26 0 0 1 24.27-3c4.09 0 8.35.21 13 .63 2.93.26 6 .7 8.87 1.12l2 .29 6.58 1.06-.06-5.33-.65-.1-1.58-.26-1.95-.28c-3-.44-5.92-.85-8.83-1.12-4.65-.41-8.89-.62-13-.62a91.67 91.67 0 0 0-24.13 3 52.52 52.52 0 0 0-19 9 34.32 34.32 0 0 0-5.42 5.27c.21-.18.42-.37.65-.54a53.13 53.13 0 0 1 19.25-9.12z" fill="#d8a028"/><path d="M300 73.34c-.27 1.78-.51 3.39-.64 4.53-1.9 15.63-1.74 31.46-1.59 46.77v1.78c.23 22.9 1.39 53.13 8.48 83.9l.92 3.29-4.78.09-.55-2.36c-7.18-31.2-8.37-61.75-8.6-84.88v-1.77c-.15-15.46-.31-31.44 1.62-47.37.14-1.17.39-2.81.66-4.65l4.34.09m58.9-15.07l.4-31.62-4.88.73a247.14 247.14 0 0 1-25 2.33l-3.25.16c-7.65.36-15.75.6-24.74.73-6.49.1-13.12.14-20.26.11h-1.41c-39.75-.16-63.2-1.79-75.5-3.14l.21 4.5c12.29 1.36 35.33 3 75.27 3.17h1.4c7.17 0 13.82 0 20.33-.11 9.05-.13 17.19-.37 24.9-.74l3.26-.16c7.62-.4 15.92-.95 25-2.31l-.29 26.86zm152.86 39.43c-2.07 17.21-1.29 23.11-1.19 23.77l2.36 15 3.81-9.09-1.74-11.09c-.11-.66-.88-6.55 1.19-23.76h-33.31c.25 1.74.47 3.46.69 5.17zM561 94.83V123l7.52-8.46.75-.79v-.24l-3.84 4.31V89.65a49.76 49.76 0 0 0-30.54 11.23 42.88 42.88 0 0 0-3.18 4.17A50 50 0 0 1 561 94.83zm-36.93 50.54c-8.82 8.64-13.69 22-13.69 39a190.68 190.68 0 0 0 2 29.35h5.19a186.94 186.94 0 0 1-2.77-34.53c0-13.9 3.26-25.37 9.27-33.82zm65.74 11.94v.5c0 19.59 14.57 34.93 33.17 34.93A31.65 31.65 0 0 0 649.47 179a31.75 31.75 0 0 1-22.06 8.62c-18.61 0-33.18-15.35-33.18-34.94v-.49a36.15 36.15 0 0 1 6.17-20.64c-6.58 6.16-10.59 15.27-10.59 25.76zm108.09-5.17a64.29 64.29 0 0 0-19.8-46.67C665 92.85 647 85.9 627.41 85.9c-18.77 0-35.77 6.24-48.72 17.7-.32.35-.65.67-1 1l-4.69 5.3c13.13-12.17 30.62-18.82 50-18.82 19.61 0 37.61 6.94 50.69 19.56a64.29 64.29 0 0 1 19.8 46.67v.5a64.23 64.23 0 0 1-10.18 34.88q2-2.08 3.86-4.31a64.26 64.26 0 0 0 10.75-35.75zm-245.69 42.33c-.41-7.27-.82-14.79-1-22.23-.14-5.74-.11-11.56-.08-17.18V142.9c-.09-8.59-.64-18.69-4.15-28.46a48.17 48.17 0 0 0-6.59-12.6c-5.15-7-12.13-12-21.34-15.38a77 77 0 0 0-22.66-4.29c-3.15-.17-6.2-.25-9.08-.25a113.85 113.85 0 0 0-23.45 2.22 78.74 78.74 0 0 0-12.36 3.26c-3.44 1.33-6.88 2.88-10.27 4.45.42.88.83 1.75 1.25 2.62 1.32-.6 2.32-1 4.59-1.89a80.3 80.3 0 0 1 12.37-3.27 114.48 114.48 0 0 1 23.45-2.22c2.87 0 5.93.08 9.08.25a76.71 76.71 0 0 1 22.66 4.3C423.85 95 430.83 100 436 107a48.38 48.38 0 0 1 6.58 12.61c3.51 9.77 4.07 19.87 4.15 28.45v12.17c0 5.62-.06 11.43.07 17.18.18 7.43.6 15 1 22.22q.18 3.18.35 6.36c.12 2.3.26 3.76.4 5.37h4.78c-.27-3.42-.53-6.33-.75-10.54-.14-2.11-.25-4.23-.37-6.35z" fill="#f2c818"/><path d="M377.48 144.31c4.09 0 8.35.2 13 .62 2.93.26 6 .7 8.88 1.12l2 .29 6.59 1.06-.07-5.9-2.09-.33-2-.29c-2.92-.42-5.94-.86-8.87-1.12-4.66-.42-8.92-.63-13-.63a92.31 92.31 0 0 0-24.27 3 53.05 53.05 0 0 0-19.22 9.09l-.55.46a31.4 31.4 0 0 0-2.86 4 54 54 0 0 1 18.21-8.35 92.27 92.27 0 0 1 24.25-3.02zm-6.37 56.53a33.52 33.52 0 0 0 9.27 1.34 31.81 31.81 0 0 0 13.8-3.19 26.15 26.15 0 0 0 10.82-9.41 27.18 27.18 0 0 1-6.4 4.24 31.78 31.78 0 0 1-13.8 3.18 33 33 0 0 1-9.26-1.35c-7.52-2.17-12.27-6.81-13.73-13.42-1.23-5.55-.58-10.52 1.79-14.64-5.8 4.8-8 11.69-6.21 19.81 1.46 6.6 6.2 11.26 13.72 13.44z" fill="#f2c818"/><path d="M710.76 76.37a1.58 1.58 0 0 0-.13-.13 2.23 2.23 0 0 0 1.09-.72 2.56 2.56 0 0 0 .54-1.65 3 3 0 0 0-.32-1.36 1.91 1.91 0 0 0-.91-.91 3.94 3.94 0 0 0-1.54-.24h-3.39v8.8h1.44v-3.69h.83a3.64 3.64 0 0 1 .46 0 1.4 1.4 0 0 1 .34.18 2.08 2.08 0 0 1 .42.5 13 13 0 0 1 .66 1.12l1 1.86H713l-1.44-2.64a6.29 6.29 0 0 0-.8-1.12zm-.56-1.49a2.32 2.32 0 0 1-.9.14h-1.76v-2.24h2a1.31 1.31 0 0 1 1 .3 1.07 1.07 0 0 1 .29.79 1.23 1.23 0 0 1-.16.63.8.8 0 0 1-.47.38z" fill="#221f1f"/><path d="M709.17 68a7.72 7.72 0 1 0 7.72 7.72 7.73 7.73 0 0 0-7.72-7.72zm6.35 7.72a6.35 6.35 0 1 1-6.35-6.35 6.36 6.36 0 0 1 6.35 6.39z" fill="#221f1f"/><path d="M124 319a20.81 20.81 0 0 1-1.41 6 21.6 21.6 0 0 0-1.4 6.61q0-.56-1.69 9.84-5.48 35.14-11 96.15a51.93 51.93 0 0 1-20.1 3.79c-1.22 0-2.44-.05-3.66-.14q-8-34.57-16.45-63.11v-.28c0-.38-.37-.94-1.12-1.69A121.53 121.53 0 0 0 64 390.81q-1.27 7.31-3.09 14.76-.43 1.55-1.41 11.66-1.12 9.28-2.53 24.89-2.25 3.22-8 3.93-3.24.29-9.42 1.27-7.87 2-9.56 2-4.78 0-5.76-3.51-.29-1.83-.85-5.48l-2.1-15.61q-3.94-26.56-5.35-36.12-3.22-20.24-6.74-35.85c-1-4.49-1.78-7.68-2.25-9.55a52.27 52.27 0 0 0-3.28-9.2Q0 326.15 0 321a17.26 17.26 0 0 1 .7-5q7.45-2.25 32.47-5.77l3 6.47q.13.28 3.93 28.68a205.1 205.1 0 0 0 5.34 28 281.9 281.9 0 0 0 8.56-53.7q3.09-4.06 11-4.07c.56 0 3.19.14 7.87.42a12.38 12.38 0 0 1 5.06 7.45 49.56 49.56 0 0 1 1.2 9.56 46.74 46.74 0 0 0 1.19 9.41q.85 3 3.66 17.15a78.35 78.35 0 0 0 4.92 16.59q3-10.4 3.51-28.82.57-21.36 1.83-28.95l2.05-2.42 26.57-1a7.47 7.47 0 0 1 1.14 4zm77.85 62.29q0 13-4.78 19.84a14.23 14.23 0 0 1-2.11 2.55 23.57 23.57 0 0 1-3.79 1.88q-11.8 5.2-29.1 5.21t-24.53-4.66a25.43 25.43 0 0 1-10.33-13.63q-2.1-6.09-2.11-16.39v-27.7q0-13.29 3.94-21.16a13.65 13.65 0 0 1 1.4-2.22 16 16 0 0 1 2.53-1.66q8-4.65 20.39-4.65a107.8 107.8 0 0 1 22.07 2.44Q189.2 324 195 328.67q4.23 3.33 4.64 11.85.28 4.32.71 13 .13 3.54.84 14 .67 8.57.66 13.77zm-26.28-12.23q0-11.1-.85-19.54a23.36 23.36 0 0 0-.28-3.11 6.49 6.49 0 0 0-1-1.56q-3.53-4.32-11.11-4.33a13.59 13.59 0 0 0-4.07 3.56q.42 25.1.42 25.31c0 1.11-.07 2.76-.21 4.94s-.21 3.83-.21 4.94q0 7.56 4.43 10.89a6.34 6.34 0 0 0 1.85 1.1 13.32 13.32 0 0 0 3.86.45c3 0 5.15-.78 6.57-2.33q.59-11.1.6-20.32zm113.57-51.21q0 .86-.7 5.77-.84 5.63-1.69 22.07-1.26 21.49-1.26 48.07 0 2.67.56 53.42l-2.82 2.38-25.93-.84-2.11-2.11q-6.34-22.91-25.37-69.86v3.52c0 7.12 3.15 20.57 4.22 33q-4.92 3.09-13.92 3.09c-1.68 0-4.24-.12-7.66-.35s-5.92-.35-7.52-.35l-2-1.83c1.59-24.27 2.38-28.82 2.38-55q0-17-.42-34.16c1.6-1.68 4.08-2.53 7.45-2.53h5.48a40.38 40.38 0 0 0 6.4-.77 40.38 40.38 0 0 1 6.4-.77 9.69 9.69 0 0 1 3.37.56 44.76 44.76 0 0 1 5.34 12.93q3.51 12.64 3.8 13.49 2.52 7.32 5.2 14.76a120.25 120.25 0 0 0 6.18 14.34q.7-7.86.71-17.71 0-7.17-.57-21.44t-.56-21.43c0-1 .75-1.88 2.25-2.53.47-.09 1.22-.28 2.25-.56l1.12-.43H288a10.47 10.47 0 0 1 1.14 5.27zm84.48 48.08q0 12.51-5.76 42.45a37.21 37.21 0 0 1-6.47 15.32 24.62 24.62 0 0 1-13.49 9.3 120.69 120.69 0 0 1-30.09 3.51 165.15 165.15 0 0 1-21.92-1.51l-2-2q.13-12 1.12-41.89 1-26.7 1-42 0-13.5-.57-24.88l3-2q7.59-.27 13.21-.28 26.56 0 43.15 7.87a44.22 44.22 0 0 1 6.47 3.66q12.36 9.12 12.35 32.45zm-37 23.23q0-23.42-4.08-35.06a13.78 13.78 0 0 0-7-7.72c-.57-.18-1.41-.51-2.53-1a9.78 9.78 0 0 0-3.94-1.26 2.59 2.59 0 0 0-2.81 2.66 217.05 217.05 0 0 0-1.13 22.73q0 6 .14 18.16t.15 18.16a9 9 0 0 0 5.62 1.69 22 22 0 0 0 8.71-2.18 10.23 10.23 0 0 0 6.25-6.64q.66-2.38.65-9.54zm108.83-73.55l-1.13 23.33a11.11 11.11 0 0 1-6.88 2.11 20.87 20.87 0 0 1-4.36-.56 49.32 49.32 0 0 0-11-1.13c-1.87 0-4.64.05-8.29.14s-6.42.14-8.29.14a7.47 7.47 0 0 0-1.55 4.78 30.33 30.33 0 0 0 .56 4.71 29.13 29.13 0 0 1 .56 4.71q4.08 2.54 10.69 2.53h.14l1.83-.18c3-.23 5.67-.4 8-.52h1.69a22.36 22.36 0 0 1 7.73 1l-1 21.22-35.28.41a6 6 0 0 0-2.25 5.15 22.78 22.78 0 0 0 .35 3.27 21.15 21.15 0 0 1 .35 3.13l2.11 1.53h25.87q5.34 0 15.88-.28 1.54 3 1.83 8.85c-.1-2.05-.14.94-.14 9 0 1.32-1.22 2.67-3.66 4.08q-4.63.28-9.7.28-8.71 0-26.07-.91t-26.08-.92l-.84-1.4q1.26-17.29 1.55-46.95.42-34.15 1-47.09l1.55-1.13c3.46.19 7.12.28 11 .28q8 0 24.88-.84 16.31-1 24.88-.84h2.95zm93.63 125.66a4.11 4.11 0 0 1-.28 1.55 27.3 27.3 0 0 1-13.8 3.23 75.63 75.63 0 0 1-13.63-1.55q-4.08-5.47-5.91-17.71-2.1-13.91-4.07-18.27-4.08-8.85-14.62-11l-2 1.82v4.5a315 315 0 0 0 2 36.55l-1.12 2-32.34.84-1.54-1.55q1.54-20.52 1.69-46.24v5.06l-.15-51.73a94.87 94.87 0 0 0-1.05-11.67 94.58 94.58 0 0 1-1-11.66l2.1-2.39h6.33q31.62-.29 51.73 4.49 2.39.57 6.89 2 7.44 2.82 12.23 11.53a33.52 33.52 0 0 1 4.46 16.56q0 15-12.93 22.64c-.94.28-2.22.75-3.86 1.4s-2.42 1.6-2.32 2.81v.52q7.73 4.51 10.4 14.48c0 .1.23 2.11.7 6.05l1.55 12.23q1.55 12.09 6 16.3t4.54 7.21zm-41.47-81.95q0-6.75-2.25-9.28c-1.12-1.31-2.86-3.23-5.2-5.76a26.1 26.1 0 0 1-4.85-1.9 14.07 14.07 0 0 0-5.55-1.61 5.66 5.66 0 0 0-2.81.7l-.7 28.11 2 1.69q10-.7 12.94-1.83 6.43-2.38 6.42-10.12zM614 438c0 .47-.42 4.77-1.4 5.3-7.53 4.09-18.76.49-23.1-.35a2.77 2.77 0 0 1-2.24-2.87q.16-4.35.17-9.22 0-8.75-1.28-25.34a2.84 2.84 0 0 0-1.58-2.35c-1.59-.75-14.9-.29-16.11-.29h-1a2.82 2.82 0 0 0-2.85 2.08 18.93 18.93 0 0 0-.63 5.12c0 .85.09 2.44.28 4.78q.56 6.46 1.69 25.3l-1 1.13c-1.78.09-3.46.14-5.06.14a56.89 56.89 0 0 1-14.61-1.49 2.79 2.79 0 0 1-2.06-2.94q1.63-18.63 1.63-40.27 0-17.77-1.16-40.58a2.84 2.84 0 0 1 1.86-2.84 21.34 21.34 0 0 1 6.89-1 38.82 38.82 0 0 1 7.42.75 2.79 2.79 0 0 1 2.18 2.31 69.16 69.16 0 0 1 .52 10 42.3 42.3 0 0 0 .39 6.37 2.78 2.78 0 0 0 2.41 2.32 104.74 104.74 0 0 0 12.75.87q3.06 0 5.77-.25a2.77 2.77 0 0 0 2.42-2.06 44.8 44.8 0 0 0 .86-10.48 43.72 43.72 0 0 0-.59-7.23c-.36-2.1-.58-3.81-.68-5.14-.13-1.68-.39-4-.77-6.87a2.82 2.82 0 0 1 1-2.56 2.82 2.82 0 0 1 2-.6q6.48.46 11.53.47a64.18 64.18 0 0 0 8.22-.44 2.79 2.79 0 0 1 3.17 2.65c.33 7.62 1.12 27 1.12 37.43.01 15.63 1.84 54.33 1.84 58.15zm88.56-52.66q0 14-.86 26.13a29.12 29.12 0 0 1-13.7 22.8c-.43.27-.82.49-1.17.67q-7.45 3.8-18 3.8c-2.91 0-26.84 0-40.25-6.75-5.18-2.6-10.21-12.18-10.21-20 0-2.06.18-5.15.56-9.27s.56-7.22.56-9.28v-4.04c.06-.75.29-4.21.69-10.4 0 0 2.7-31.24 4.6-38.23 1.37-5 .42-5.76 12-5.76h.12a21.84 21.84 0 0 1 5.76.7q4.08 1.13 4.08 3.38c0 8.71-.28 7.67-.84 21.92q-1.12 26.7-1.27 34.3v.7a9.46 9.46 0 0 0 1.55 5.62 7.34 7.34 0 0 0 4.64 3.38 29.67 29.67 0 0 0 6.46.56c4.5 0 19.36 3.44 18.12-15.94-.25-3.85-.17-9.64-.5-17.35a210.78 210.78 0 0 1 .69-24.15c1.28-14.08 6.72-11.48 13.44-11.31a32 32 0 0 1 8.68 1.25 3.39 3.39 0 0 1 2.24 2.44c.42 1.79.81 13.24 1.19 18.88.95 12.87 1.42 13.17 1.42 25.95zm2.44 59.73c0-.52.22-2.28.66-5.3q.81-5.17 1.56-20.28 1.14-19.75 1-44.16 0-2.41-.85-47.69a2.76 2.76 0 0 1 1.09-2.24l.77-.61a3.26 3.26 0 0 1 2.12-.7l23.49.55a3.29 3.29 0 0 1 2.12.82l.66.6a2.88 2.88 0 0 1 .81 1.24q6.57 21 25.56 63.29v-3.23a222.51 222.51 0 0 0-1.71-23.36c-.76-5.5-1.68-6.63-2.73-16.27a2.81 2.81 0 0 1 1.74-2.89 32.21 32.21 0 0 1 12-2q2.53 0 7.66.27 4 .23 6.37.27a3.18 3.18 0 0 1 2 .75 2.79 2.79 0 0 1 1 2.29c-1.39 21.57-2 36.85-1.84 60.36q.09 14.93.58 30a2.68 2.68 0 0 1-1.29 2.41 12.28 12.28 0 0 1-6.1 1.35h-5.48a43.64 43.64 0 0 0-6.4.75 43.39 43.39 0 0 1-6.39.75 11.21 11.21 0 0 1-2-.16 3 3 0 0 1-2-1.27 42.31 42.31 0 0 1-4.76-10.9q-3.58-11.59-3.88-12.37-2.57-6.7-5.29-13.52c-.27-.66-.53-1.31-.8-1.94-1.25-2.95-6-2.18-6 1v4.1q0 6.59.7 19.68t.69 19.69c0 .94-.74 1.72-2.24 2.34-.46.08-1.21.26-2.24.53l-1.12.39-26.07.17a3.09 3.09 0 0 1-3.11-2.35 11.78 11.78 0 0 1-.28-2.36z"/><path d="M865.58 325.64l-27.76.35c-.66 0-3.25.69-3.14 3.3.21 4.67.17 17.26.42 40.86.3 15.35 1 33.35 2.17 44.21a2.29 2.29 0 0 1-1.84 2.51 27.78 27.78 0 0 1-5.25.47c-1.5 0-3.72-.14-6.68-.42s-5.18-.42-6.67-.42a26.88 26.88 0 0 0-3.28.18 2.33 2.33 0 0 1-1.08-.11 14.23 14.23 0 0 0-3.94-.35 4.2 4.2 0 0 1-3.07-1 2.14 2.14 0 0 1-.58-1.55v-11.23c0-6.56-.37-21.94-1.12-36.37-.62-12.92-.8-23.05-.85-30.38 0-3.39-3.21-3.5-3.75-3.5H770a2.33 2.33 0 0 1-1.87-.94 2.3 2.3 0 0 1-.45-1.62q.45-4.28.45-14a85.18 85.18 0 0 1 .87-13.5 2.35 2.35 0 0 1 1.71-1.89 18.29 18.29 0 0 1 5-.64c1.14 0 12.52.87 18.88 1.36 2.8.21 5.6.33 8.41.34q8.94 0 24 .2 18.82.21 28.11.21h9.5a3.08 3.08 0 0 1 3.33 3.05v18.54a2.34 2.34 0 0 1-2.36 2.34z"/><path d="M651.12 321.67a5.44 5.44 0 1 1-5.43 5.44 5.44 5.44 0 0 1 5.43-5.44z" fill="#fff"/><path d="M664.23 334.42a7.67 7.67 0 1 1-7.66 7.66 7.67 7.67 0 0 1 7.66-7.66z" fill="#01754c"/><circle cx="667.22" cy="317.83" r="6.03" fill="#01754c"/><path d="M577 294.68c2.32 3 1 7.33-1 10.51-9.07 14.41-28.05 19.81-38 33.64l-.8-.11c1.18-9.31 3.57-18.58 8.22-26.72s11.86-15.22 20.71-18.57c3.67-1.43 8.47-1.83 10.87 1.25z" fill="#fff"/><path d="M575.66 326.87c3.19.39 6.89 1.94 7.26 5.12.29 2.42-1.71 4.64-4 5.48s-4.8.67-7.24.55a122.81 122.81 0 0 0-24.16 1.19 30.85 30.85 0 0 1 28.14-12.34zm-44.19-40.4a14.67 14.67 0 0 1 2.25 5.68c2.74 12.74 0 25.91-3 38.62a73 73 0 0 1-10.43-36.4 16 16 0 0 1 .94-6.64 6.37 6.37 0 0 1 5-4 6.21 6.21 0 0 1 5.24 2.74z" fill="#01754c"/><path d="M751.07 259.57c3.08 3.28 1.94 8.62-.1 12.62-9.24 18.11-31.23 26.58-41.54 44.1h-.95c.4-11.2 2.24-22.48 6.9-32.67s12.46-19.39 22.63-24.33c4.2-2.08 9.87-3.12 13.06.28z" fill="#fff"/><path d="M758 310.27c-2.62 1.25-5.65 1.31-8.55 1.44a146.07 146.07 0 0 0-28.62 4A36.87 36.87 0 0 1 752.94 298c3.83.12 8.4 1.57 9.18 5.3.6 2.85-1.53 5.71-4.16 7M346.08 304a40 40 0 0 1 15.57 20.41 51.61 51.61 0 0 0-33.4-8.59c-4.18.39-8.4 1.3-12.55.59s-8.32-3.62-8.81-7.79c-.38-3.12 1.43-6.2 4-8a18.41 18.41 0 0 1 8.83-3 39.91 39.91 0 0 1 26.36 6.38zm-190.81-2.57a17.65 17.65 0 0 1 3.38 10.82 22.8 22.8 0 0 0-12.57-8.61 21.48 21.48 0 0 1-5.3-1.65c-1.61-.93-2.9-2.76-2.48-4.57a4 4 0 0 1 2.87-2.73 8.08 8.08 0 0 1 4.11.1 17.61 17.61 0 0 1 9.99 6.64zm7.49 1.43a22.19 22.19 0 0 0-.11 14.22 28.58 28.58 0 0 1 11.94-14.91c2-1.22 4.16-2.22 5.76-3.91s2.48-4.37 1.31-6.38a5 5 0 0 0-4.43-2.24 10.12 10.12 0 0 0-4.9 1.62 22.15 22.15 0 0 0-9.57 11.6zM789.62 466.5c.55-7.35 3.64-14.22 6.18-21.13 2.22-6 4.08-12.43 3.48-18.74a51.36 51.36 0 0 1 2.72 41.75 13.88 13.88 0 0 1-3 5.11 5.72 5.72 0 0 1-5.44 1.66c-3.31-.98-4.2-5.24-3.94-8.65zm31.46-27.11a37.65 37.65 0 0 1-18.52-15.5 48.54 48.54 0 0 0 32.43.95c3.76-1.23 7.44-2.93 11.4-3.14s8.38 1.59 9.7 5.31a8.5 8.5 0 0 1-2 8.21 17.38 17.38 0 0 1-7.48 4.56 37.57 37.57 0 0 1-25.53-.39zm-9.25 4.61c3.92 4.33 9.3 7.11 14.75 9.25 5.65 2.22 11.55 3.87 17 6.52 2.8 1.35 5.79 3.45 6 6.55.23 3.55-3.42 6.19-6.89 6.94-7.63 1.67-15.69-2.26-20.79-8.26s-7.84-13.47-10.07-21zm-376.36-18.8a6 6 0 1 0-.92 8.41 6 6 0 0 0 .92-8.41zm-21.74 0a6 6 0 1 0-.93 8.41 6 6 0 0 0 .93-8.41zm-21.73 0a6 6 0 1 0-.93 8.41 6 6 0 0 0 .93-8.41zm-177.75-.35c1.94 6.07 6.29 11.12 11.1 15.3 5 4.36 10.61 8 15.56 12.38a17.08 17.08 0 0 1 4.28 5.08 7.05 7.05 0 0 1 .17 6.43c-1.89 3.46-6.82 3.77-10.58 2.58-8.07-2.56-14-9.79-17-17.71-2.78-7.62-3.35-15.91-3.53-24.06z" fill="#01754c"/><path d="M209.84 421.55c-6.81 7.72-9.12 18.54-10.66 28.83-1.63 10.93-2.88 22.42-9 31.6-2.35 3.51-6 6.83-10.21 6.46-3.39-.3-6.2-3-7.47-6.18s-1.26-6.67-.94-10.05a61.23 61.23 0 0 1 12.53-31.89 58 58 0 0 1 25.75-18.77z" fill="#fff"/><path d="M196.55 417.86a64.14 64.14 0 0 1-22.19 14.07c-6.32 2.35-13.18 3.7-19.83 2.59s-13.05-4.9-16.18-10.86c-.95-1.79-1.57-3.94-.8-5.81 1-2.37 4-3.34 6.51-3s4.78 1.74 7.05 2.93a50.78 50.78 0 0 0 45.44.08z" fill="#01754c"/><path d="M278.59 403.38a8.6 8.6 0 0 0-6.08-4.73 7 7 0 0 0-6.4 2.56c-1.44 1.87-1.75 5.22.55 6.6a2.86 2.86 0 0 0 3.41-.31c.51-.48-.26-1.24-.77-.77-1.31 1.21-2.91-.24-3.18-1.6a4.16 4.16 0 0 1 1-3.47 5.84 5.84 0 0 1 6.85-1.43c5.45 2.61 5.78 10 2.69 14.53-3.4 5-10.39 6-15.37 2.88a20.26 20.26 0 0 1-6-6.34 54.45 54.45 0 0 1-4.19-8c-4.84-11.34-6.35-23.74-9-35.69a98.1 98.1 0 0 0-5.36-17.61c-2.28-5.32-5.93-10.81-12-11.94a9.55 9.55 0 0 0-7.59 1.7 12.44 12.44 0 0 0-4.34 6.66 10.63 10.63 0 0 0 .86 8.21 7.45 7.45 0 0 0 6.05 3.53 5.87 5.87 0 0 0 3.31-.91c.58-.38 0-1.32-.55-.94-2.27 1.45-5.29.67-7.08-1.19-2.15-2.25-2.3-5.78-1.48-8.62a10.78 10.78 0 0 1 5.11-6.65 9.44 9.44 0 0 1 8.69.4c5.65 3 8.15 9.76 10.08 15.46a148.23 148.23 0 0 1 4.61 18.46c2.45 12.3 4.58 25 11 36 2.89 5 7.09 9.86 13.21 10.32a12.27 12.27 0 0 0 12.82-9 11.33 11.33 0 0 0-.85-8.11zM669.63 422c-.13-.15-.25-.31-.37-.47a8.46 8.46 0 0 0 .7-3.61c0-.82-.59-4.68-2.11-3.34a3.54 3.54 0 0 0-.76 2.47 7.77 7.77 0 0 0 .44 2.79 8.77 8.77 0 0 0 .88 1.76 8.4 8.4 0 0 1-3 3.41 11.2 11.2 0 0 1-9.5.94 10 10 0 0 1-5.11-3.74 9.41 9.41 0 0 0 1.45-1.85c.93-1.62 1.48-3.88.66-5.66a1.4 1.4 0 0 0-2-.8 4.12 4.12 0 0 0-1.59 2.16 7.32 7.32 0 0 0 .22 5.48q.12.27.27.54a12.53 12.53 0 0 1-5.17 2.57 18.57 18.57 0 0 1-4.75.59c-1.54 0-3.33-.44-3.8-2.13a5.9 5.9 0 0 1 1.1-4.5 9.82 9.82 0 0 1 3.42-3.27 10 10 0 0 1 2.17-.9c.46-.13.31-.87-.16-.73-3.45 1-6.66 3.89-7.31 7.52a3.73 3.73 0 0 0 2.1 4.33c1.65.7 3.69.46 5.42.21a14.63 14.63 0 0 0 7.38-3 9.56 9.56 0 0 0 3.11 2.86 12.48 12.48 0 0 0 11 .82 9.41 9.41 0 0 0 4.52-4.15 10.86 10.86 0 0 0 7.88 3.71 5.76 5.76 0 0 0 4.94-1.79 5.41 5.41 0 0 0 .8-4.7 6.62 6.62 0 0 0-1-2.27c-.27-.4-.83.1-.56.5a5.83 5.83 0 0 1 1 4.17 3.81 3.81 0 0 1-2.91 3.15 9.59 9.59 0 0 1-5-.3 9.29 9.29 0 0 1-4.36-2.77zm-19.69-5.3a3.72 3.72 0 0 1 1.35-2.13c1-.53 1.21 1.18 1.25 1.77a6 6 0 0 1-.41 2.56 7.84 7.84 0 0 1-1.7 2.64 6.74 6.74 0 0 1-.72-2.42 6.19 6.19 0 0 1 .23-2.4zm17.9.75a6.25 6.25 0 0 1 .08-1.14c0-.22.17-1.2.5-1.22s.41.79.46.94a6 6 0 0 1 .25 1.1 7.38 7.38 0 0 1-.37 3.61 7 7 0 0 1-.92-3.27zM41.77 401.3c1.74-2.41 2.66-6.77.41-9.17a2.85 2.85 0 0 0-3.6-.61 2.39 2.39 0 0 0-1.16 3.13.75.75 0 0 0 1.36-.65c-.24-.49.11-.92.54-1.17a1.36 1.36 0 0 1 1.8.37 5.06 5.06 0 0 1 .72 4.12 6.53 6.53 0 0 1-6.29 5.68c-3.3-.05-5.25-3-5.65-6-.49-3.66.83-7.5 1.64-11s1.72-7.36 2.55-11.05a31.48 31.48 0 0 0 1-10.22 12.89 12.89 0 0 0-3.94-8.33 9 9 0 0 0-7.67-2.27 7.11 7.11 0 0 0-5.5 6.17c-.29 3.51 2.64 5.76 5.27 7.47.81.53 1.67-.71.86-1.24-2.58-1.68-5.69-4-4.29-7.52 1.28-3.18 4.81-4.2 7.85-3 3.32 1.3 5.18 4.54 5.78 7.91.68 3.87-.17 7.8-1 11.56l-2.73 11.82c-.8 3.5-1.94 7.23-1.15 10.84.62 2.83 2.48 5.52 5.42 6.24a7.52 7.52 0 0 0 7.78-3.08zm782.91-10.1a2 2 0 0 0-3 .83 1.37 1.37 0 0 0 .22 1.53c.36.41 1-.18.62-.59s.18-1 .6-1.22a1.19 1.19 0 0 1 1.56.75c.71 1.46.07 3.4-.77 4.66a4.87 4.87 0 0 1-4.55 2.23c-1.92-.22-3.09-1.8-3.73-3.5-1.32-3.47-.92-7.29-.47-10.89.54-4.34 1.14-8.69 1.81-13 1.29-8.44 2.86-16.83 4.53-25.2 1.43-7.18 2.86-15 .65-22.19-.89-2.88-3-5.82-6.39-5.38a3.41 3.41 0 0 0-2.93 2.33 3.89 3.89 0 0 0 1 3.69 3.13 3.13 0 0 0 1.72.92c.53.09.78-.72.24-.81a2.87 2.87 0 0 1-2.19-3.23c.22-1.58 1.86-2.24 3.28-2.07 3.8.46 4.79 5.19 5.24 8.28 1.16 7.94-1 16-2.5 23.7q-2.58 13.17-4.42 26.47c-.31 2.2-.6 4.39-.87 6.59a41.36 41.36 0 0 0-.41 5.67c0 3.2.79 7.84 4.19 9.19a5.33 5.33 0 0 0 4.78-.56 6.84 6.84 0 0 0 2.79-4.16c.25-1.37.19-3.11-1-4.04zm-265.11 1.42a2.82 2.82 0 0 0-.52-3c-.33-.25-.65-.16-.91.23s.11 1 .35.61.62.18.73.59a1.5 1.5 0 0 1-.42 1.57c-.86.72-2 .09-2.78-.74a6.33 6.33 0 0 1-1.38-4.53 4.58 4.58 0 0 1 2-3.76c2.05-1.34 4.33-1 6.47-.54 2.6.52 5.19 1.09 7.77 1.73 5 1.24 10 2.76 15 4.38 4.28 1.39 9 2.76 13.21.51a6.36 6.36 0 0 0 3.13-6.43c-.12-1.32-.63-2.54-1.42-2.92s-1.63.08-2.18 1a4.1 4.1 0 0 0-.53 1.72c0 .53.43.77.48.23.14-1.46 1.05-2.41 1.9-2.21s1.35 1.85 1.26 3.27c-.23 3.8-3 4.82-4.87 5.29-4.71 1.21-9.5-.88-14.12-2.35Q575 384.76 567 383c-1.31-.29-2.62-.57-3.93-.83a14.9 14.9 0 0 0-3.38-.37 5.32 5.32 0 0 0-5.42 4.25 8.53 8.53 0 0 0 .38 4.77 4.73 4.73 0 0 0 2.51 2.77 1.76 1.76 0 0 0 2.41-.97z" fill="#fff"/></g></g></svg>