<svg id="Layer_1" xmlns="http://www.w3.org/2000/svg" xmlns:xlink="http://www.w3.org/1999/xlink" viewBox="0 0 286.2 213.4"><style>.st0{fill:url(#SVGID_1_)}.st1{fill:#ffb206}.st2{fill:url(#SVGID_2_)}.st3{fill:#eda507}.st4{fill:#b96a42}.st5{fill:#a06335}.st6{fill:#db854b}.st7{opacity:.41;fill:#592a0a;enable-background:new}.st8{fill:#93561b}.st9{fill:#602609}.st10{fill:url(#SVGID_3_)}.st11{opacity:.41;fill:#934f21;enable-background:new}.st12{fill:url(#SVGID_4_)}.st13{fill:url(#SVGID_5_)}.st14{fill:url(#SVGID_6_)}.st15{fill:url(#SVGID_7_)}.st16{fill:url(#SVGID_8_)}.st17{fill:url(#SVGID_9_)}.st18{fill:url(#SVGID_10_)}.st19{fill:url(#SVGID_11_)}.st20{fill:url(#SVGID_12_)}.st21{fill:url(#SVGID_13_)}.st22{fill:#fff}.st23{opacity:.48}.st24{fill:#fffde1}.st25{opacity:.75}.st26{fill:url(#SVGID_14_)}.st27{opacity:.45}.st28{fill:url(#SVGID_15_)}.st29{opacity:.64}.st30{fill:#fff8d4}.st31{fill:url(#SVGID_16_)}.st32{fill:#e89054}.st33{opacity:.25}.st34{fill:#6b340e}.st35{fill:#592a0a}.st36{fill:url(#SVGID_17_)}.st37{fill:url(#SVGID_18_)}.st38{fill:url(#SVGID_19_)}.st39{fill:url(#SVGID_20_)}.st40{fill:#7a4315}.st41{fill:url(#SVGID_21_)}.st42{fill:url(#SVGID_22_)}.st43{fill:url(#SVGID_23_)}.st44{fill:url(#SVGID_24_)}.st45{fill:url(#SVGID_25_)}.st46{fill:url(#SVGID_26_)}.st47{fill:url(#SVGID_27_)}.st48{fill:url(#SVGID_28_)}.st49{fill:url(#SVGID_29_)}.st50{fill:url(#SVGID_30_)}.st51{opacity:.4;fill:#024851;enable-background:new}.st52{fill:#bff}.st53{fill:#86fcf6}.st54{fill:#7afcf8}.st55{fill:#e9fffe}.st56{fill:#33e5e5}.st57{fill:#40d3d3}.st58{fill:#86f1fc}.st59{fill:#7cdddd}.st60{fill:#1ec1f4}.st61{fill:#3bd0e0}.st62{fill:#29b5d6}.st63{fill:#0591ce}.st64{fill:#0283bc}.st65{fill:#30b7d6}.st66{fill:#1199c9}.st67{fill:#17b8dd}.st68{fill:#027ebc}.st69{fill:#046bb2}.st70{fill:#03d0f2}.st71{fill:url(#SVGID_31_)}.st72{fill:#05aadd}.st73{fill:url(#SVGID_32_)}.st74{fill:#0eacc6}.st75{fill:#09a0db}.st76{fill:#70f2f2}.st77{fill:#62e8e8}.st78{fill:#aefbff}.st79{fill:#2bd1e2}.st80{fill:#6de7f7}.st81{fill:#32d6fc}.st82{fill:url(#SVGID_33_)}.st83{fill:url(#SVGID_34_)}.st84{fill:url(#SVGID_35_)}.st85{fill:url(#SVGID_36_)}.st86{fill:url(#SVGID_37_)}.st87{fill:url(#SVGID_38_)}.st88{fill:url(#SVGID_39_)}.st89{fill:url(#SVGID_40_)}.st90{fill:url(#SVGID_41_)}.st91{fill:url(#SVGID_42_)}.st92{fill:url(#SVGID_43_)}.st93{fill:url(#SVGID_44_)}.st94{fill:url(#SVGID_45_)}.st95{fill:url(#SVGID_46_)}.st96{fill:url(#SVGID_47_)}.st97{fill:url(#SVGID_48_)}.st98{fill:url(#SVGID_49_)}.st99{fill:url(#SVGID_50_)}.st100{fill:url(#SVGID_51_)}.st101{fill:url(#SVGID_52_)}.st102{fill:url(#SVGID_53_)}.st103{fill:url(#SVGID_54_)}.st104{fill:url(#SVGID_55_)}.st105{fill:url(#SVGID_56_)}.st106{fill:url(#SVGID_57_)}.st107{fill:url(#SVGID_58_)}.st108{fill:url(#SVGID_59_)}.st109{fill:url(#SVGID_60_)}.st110{fill:url(#SVGID_61_)}.st111{fill:url(#SVGID_62_)}.st112{fill:url(#SVGID_63_)}.st113{fill:url(#SVGID_64_)}.st114{fill:url(#SVGID_65_)}.st115{fill:url(#SVGID_66_)}.st116{fill:url(#SVGID_67_)}.st117{fill:url(#SVGID_68_)}.st118{fill:url(#SVGID_69_)}.st119{fill:url(#SVGID_70_)}.st120{opacity:.23;fill:#024851;enable-background:new}.st121{fill:url(#SVGID_71_)}.st122{fill:url(#SVGID_72_)}.st123{fill:url(#SVGID_73_)}.st124{fill:url(#SVGID_74_)}.st125{fill:url(#SVGID_75_)}.st126{fill:url(#SVGID_76_)}.st127{fill:url(#SVGID_77_)}.st128{fill:url(#SVGID_78_)}.st129{fill:#22acdd}.st130{fill:#12a2db}.st131{fill:#0f87bc}.st132{fill:url(#SVGID_79_)}.st133{fill:url(#SVGID_80_)}.st134{fill:#542708}.st135{fill:#703208}.st136{fill:url(#SVGID_81_)}.st137{fill:#fff7ab}.st138{fill:#fff8bb}.st139{fill:url(#SVGID_82_)}.st140{opacity:.6}.st141{fill:#ffce00}.st142{opacity:.28}.st143{opacity:.41}.st144{fill:url(#SVGID_83_)}.st145{opacity:.24}.st146{fill:#824216}.st147{fill:url(#SVGID_84_)}.st148{fill:#c9753d}.st149{fill:url(#SVGID_85_)}.st150{opacity:.65}.st151{fill:url(#SVGID_86_)}.st152{opacity:.67}.st153{fill:url(#SVGID_87_)}.st154{opacity:.51;fill:url(#SVGID_88_);enable-background:new}.st155{fill:url(#SVGID_89_)}.st156{fill:url(#SVGID_90_)}.st157{fill:url(#SVGID_91_)}.st158{fill:url(#SVGID_92_)}.st159{fill:url(#SVGID_93_)}.st160{fill:url(#SVGID_94_)}.st161{fill:url(#SVGID_95_)}.st162{fill:url(#SVGID_96_)}.st163{fill:url(#SVGID_97_)}.st164{fill:url(#SVGID_98_)}.st165{fill:url(#SVGID_99_)}.st166{fill:url(#SVGID_100_)}.st167{fill:url(#SVGID_101_)}.st168{fill:url(#SVGID_102_)}.st169{fill:url(#SVGID_103_)}.st170{fill:url(#SVGID_104_)}.st171{fill:#845203}.st172{fill:url(#SVGID_105_)}.st173,.st174{opacity:.32;fill:#fff7ab;enable-background:new}.st174{opacity:.22}.st175{fill:url(#SVGID_106_)}.st176{fill:url(#SVGID_107_)}.st177{fill:#f49c1c}.st178{fill:url(#SVGID_108_)}.st179{fill:url(#SVGID_109_)}.st180{fill:url(#SVGID_110_)}.st181{fill:url(#SVGID_111_)}.st182{fill:url(#SVGID_112_)}.st183{fill:url(#SVGID_113_)}.st184{fill:url(#SVGID_114_)}.st185{fill:#fff;fill-opacity:0}.st186,.st187{opacity:8.000000e-02;fill:#fff;enable-background:new}.st187{opacity:.15}.st188,.st189,.st190,.st191,.st192{opacity:.23;fill:#fff;enable-background:new}.st189,.st190,.st191,.st192{opacity:.31}.st190,.st191,.st192{opacity:.38}.st191,.st192{opacity:.46}.st192{opacity:.54}.st193,.st194,.st195,.st196,.st197{opacity:.62;fill:#fff;enable-background:new}.st194,.st195,.st196,.st197{opacity:.69}.st195,.st196,.st197{opacity:.77}.st196,.st197{opacity:.85}.st197{opacity:.92}.st198{fill:url(#SVGID_115_)}.st199{enable-background:new}.st200{fill:#fcfcfc}</style><g id="Layer_2_1_"><g id="Layer_1-2"><linearGradient id="SVGID_1_" gradientUnits="userSpaceOnUse" x1="-604.77" y1="71.51" x2="-548.66" y2="71.51" gradientTransform="matrix(1 0 0 -1 733 216)"><stop offset="0" stop-color="#FAE848"/><stop offset=".65" stop-color="#FACC3D"/></linearGradient><path class="st0" d="M128.5 135.7L172.3 160.4 184.3 160.7 128.2 128.3z"/><path class="st1" d="M172.3 160.4L184.3 160.7 173.6 159.2 128.5 135.7z"/><linearGradient id="SVGID_2_" gradientUnits="userSpaceOnUse" x1="-605.166" y1="88.182" x2="-636.61" y2="61.798" gradientTransform="matrix(1 0 0 -1 733 216)"><stop offset="0" stop-color="#FAE848"/><stop offset=".65" stop-color="#FACC3D"/></linearGradient><path class="st2" d="M105.2 149.2L128.5 135.7 128.2 128.3 92.2 149.2z"/><path class="st3" d="M92.2 149.2L105.2 149.2 128.5 135.7 104.3 148 95.5 148.2 100.3 144.5z"/><path class="st4" d="M105.2 149.2L148.3 174 172.3 160.4 128.5 135.7z"/><path class="st5" d="M128.1 158.1L128.5 135.7 105.2 149.2 124.4 160.2z"/><path class="st6" d="M128.2 158.1L152.1 171.9 172.3 160.4 128.5 135.7z"/><path class="st7" d="M130.3 163.7l3.6-2.2s-5.4-23.1-5.4-25.7l-23.3 13.5 25.1 14.4z"/><path class="st8" d="M128.4 142L150.7 155.8 165.5 164.3 166.4 163.7 148.9 153.4 128.4 141.1z"/><path class="st8" d="M128.3 150L158.9 168 160.3 167.2 128.3 149.2z"/><path class="st9" d="M128.4 142L128.4 141.1 110 152 110.8 152.4z"/><path class="st9" d="M128.3 150L128.3 149.2 116.9 155.9 117.7 156.3z"/><linearGradient id="SVGID_3_" gradientUnits="userSpaceOnUse" x1="-588.148" y1="83.826" x2="-578.298" y2="83.826" gradientTransform="matrix(1 .00576 .00576 -1 725.792 222.079)"><stop offset="0" stop-color="#FFD612"/><stop offset=".65" stop-color="#FFAA00"/></linearGradient><path class="st10" d="M138.1 134.2L146 138.8 148 135.7 139.9 131z"/><path class="st11" d="M146.6 136.8c-.8.3-1.6.2-2.3-.2-.9-.4-1.6-1-2.5-1.4-.7-.4-1.4-.8-2-1.4-.3-.4-.6-.9-.6-1.4l-1 1.9 7.8 4.6 2-3.1-.8-.5c.1.5-.1 1.1-.6 1.5z"/><linearGradient id="SVGID_4_" gradientUnits="userSpaceOnUse" x1="-586.716" y1="84.572" x2="-579.747" y2="84.572" gradientTransform="matrix(1 .00576 .00576 -1 725.792 222.079)"><stop offset="0" stop-color="#FFF654"/><stop offset=".65" stop-color="#FFD947"/></linearGradient><path class="st12" d="M139.6 132.9L143.7 135.3 146.5 136.1 139.9 132.2z"/><linearGradient id="SVGID_5_" gradientUnits="userSpaceOnUse" x1="-559.614" y1="67.525" x2="-549.775" y2="67.525" gradientTransform="matrix(1 .00576 .00576 -1 725.792 222.079)"><stop offset="0" stop-color="#FFD612"/><stop offset=".65" stop-color="#FFAA00"/></linearGradient><path class="st13" d="M176.4 152.2L168.3 147.4 166.6 150.7 174.4 155.3z"/><path class="st11" d="M175.1 153.2c-.8.3-1.6.2-2.3-.2-.9-.4-1.6-1-2.5-1.4-.8-.3-1.5-.8-2.1-1.4-.3-.4-.6-.9-.6-1.4l-1 1.9 7.8 4.6 2-3.1-.8-.5c.2.6 0 1.2-.5 1.5z"/><linearGradient id="SVGID_6_" gradientUnits="userSpaceOnUse" x1="-558.181" y1="68.271" x2="-551.213" y2="68.271" gradientTransform="matrix(1 .00576 .00576 -1 725.792 222.079)"><stop offset="0" stop-color="#FFF654"/><stop offset=".65" stop-color="#FFD947"/></linearGradient><path class="st14" d="M168.4 148.7L168 149.3 172.1 151.8 175 152.5z"/><linearGradient id="SVGID_7_" gradientUnits="userSpaceOnUse" x1="-594.74" y1="81.09" x2="-584.9" y2="81.09" gradientTransform="matrix(1 0 0 -1 733 216)"><stop offset="0" stop-color="#FFD612"/><stop offset=".65" stop-color="#FFAA00"/></linearGradient><path class="st15" d="M138.3 134.3L146.1 138.8 148.1 135.7 140 131z"/><path class="st11" d="M146.7 136.8c-.8.3-1.6.2-2.3-.2-.9-.4-1.7-1-2.5-1.4-.8-.3-1.5-.8-2.1-1.4-.3-.4-.6-.9-.6-1.4l-1 1.9 7.8 4.5 2-3.1-.8-.5c.3.6.1 1.3-.5 1.6z"/><linearGradient id="SVGID_8_" gradientUnits="userSpaceOnUse" x1="-593.3" y1="81.835" x2="-586.33" y2="81.835" gradientTransform="matrix(1 0 0 -1 733 216)"><stop offset="0" stop-color="#FFF654"/><stop offset=".65" stop-color="#FFD947"/></linearGradient><path class="st16" d="M139.7 132.9L143.8 135.3 146.7 136.1 140.1 132.3z"/><linearGradient id="SVGID_9_" gradientUnits="userSpaceOnUse" x1="-566.2" y1="64.79" x2="-556.37" y2="64.79" gradientTransform="matrix(1 0 0 -1 733 216)"><stop offset="0" stop-color="#FFD612"/><stop offset=".65" stop-color="#FFAA00"/></linearGradient><path class="st17" d="M176.6 152L168.5 147.3 166.8 150.6 174.6 155.1z"/><path class="st11" d="M175.3 153.1c-.8.3-1.6.2-2.3-.2-.9-.4-1.7-1-2.5-1.4-.8-.3-1.5-.8-2.1-1.4-.4-.4-.6-.9-.6-1.4l-1 1.9 7.8 4.5 2-3.1-.8-.5c.2.6 0 1.3-.5 1.6z"/><linearGradient id="SVGID_10_" gradientUnits="userSpaceOnUse" x1="-564.77" y1="65.53" x2="-557.81" y2="65.53" gradientTransform="matrix(1 0 0 -1 733 216)"><stop offset="0" stop-color="#FFF654"/><stop offset=".65" stop-color="#FFD947"/></linearGradient><path class="st18" d="M168.6 148.6L168.2 149.2 172.3 151.6 175.2 152.4z"/><linearGradient id="SVGID_11_" gradientUnits="userSpaceOnUse" x1="-547.53" y1="75.267" x2="-525.609" y2="75.267" gradientTransform="matrix(1 0 0 -1 733 216)"><stop offset="0" stop-color="#C67602"/><stop offset=".65" stop-color="#DD9300"/></linearGradient><path class="st19" d="M205.4 146.4c3-8.3 2.5-16-.8-20.7-1.1-1.3-2.4-2.5-3.9-3.4l-15.2 35.9c5.8 2.5 15.3 1.3 19.9-11.8z"/><path class="st8" d="M200.7 122.2l-15.2 35.9c1.6.6 3.2 1 4.9 1l14.2-33.6c-1-1.3-3.1-1.5-3.9-3.3z"/><linearGradient id="SVGID_12_" gradientUnits="userSpaceOnUse" x1="-603.88" y1="92.04" x2="-532.24" y2="92.04" gradientTransform="matrix(1 0 0 -1 733 216)"><stop offset="0" stop-color="#A1D7DE"/><stop offset=".65" stop-color="#77B4BD"/></linearGradient><path class="st20" d="M129.1 125.7L185.6 158.2 200.8 122.3 144.3 89.7z"/><linearGradient id="SVGID_13_" gradientUnits="userSpaceOnUse" x1="-564.327" y1="83.573" x2="-584.196" y2="66.893" gradientTransform="matrix(1 0 0 -1 733 216)"><stop offset="0" stop-color="#FFF654"/><stop offset=".65" stop-color="#FFD947"/></linearGradient><path class="st21" d="M129.1 125.7L185.6 158.2 182.1 148.5 137.3 122.9z"/><path class="st22" d="M183.1 154c.8 1.4 1.7 2.7 2.4 4.1l-3.3-9.6-1.9-1.1c.9 2.2 1.5 4.6 2.8 6.6z"/><g class="st23"><path class="st24" d="M181.2 148l-44-25-8.2 2.7 15.4 8.9c12.7 3.5 25.2 7.5 36.8 13.4z"/></g><g class="st25"><path class="st24" d="M143.2 126.3l-6-3.4-8.2 2.7 1.2.7c.8.1 9.7.2 13 0z"/></g><g class="st25"><path class="st22" d="M138.6 123.7L137.3 122.9 129.1 125.7z"/></g><linearGradient id="SVGID_14_" gradientUnits="userSpaceOnUse" x1="-532.24" y1="75.75" x2="-550.85" y2="75.75" gradientTransform="matrix(1 0 0 -1 733 216)"><stop offset="0" stop-color="#FFF654"/><stop offset=".65" stop-color="#FFD947"/></linearGradient><path class="st26" d="M192.2 125.7L182.1 148.5 185.6 158.2 200.8 122.3z"/><g class="st27"><path class="st22" d="M198.8 123.1l-6.5 2.6-10.1 22.8 2.2 6.2c1.7-11.8 5.7-23.1 14.4-31.6z"/></g><linearGradient id="SVGID_15_" gradientUnits="userSpaceOnUse" x1="-603.88" y1="108.325" x2="-585.59" y2="108.325" gradientTransform="matrix(1 0 0 -1 733 216)"><stop offset="0" stop-color="#FFF654"/><stop offset=".65" stop-color="#FFD947"/></linearGradient><path class="st28" d="M129.1 125.7L137.3 122.9 147.4 99.6 144.3 89.7z"/><g class="st29"><path class="st30" d="M136.8 107.4l-6.5 15.3c3-2.7 6.4-5 10-6.9l5-11.6c-2.9.9-5.7 2-8.5 3.2z"/></g><linearGradient id="SVGID_16_" gradientUnits="userSpaceOnUse" x1="-588.67" y1="108.325" x2="-532.24" y2="108.325" gradientTransform="matrix(1 0 0 -1 733 216)"><stop offset="0" stop-color="#FFF654"/><stop offset=".65" stop-color="#FFD947"/></linearGradient><path class="st31" d="M147.4 99.6L192.2 125.7 200.8 122.3 144.3 89.7z"/><path class="st22" d="M144.3 89.7l3.1 9.9 1.1.6c-.6-2.9-4.2-10.5-4.2-10.5zm46.8 35.3l1.1.7 8.5-3.4-.6-.4c-1.8.5-7.8 2.6-9 3.1z"/><g class="st29"><path class="st30" d="M177.1 108.6c-7.7-2-15.6-4.8-23.4-5.4l20.5 11.9c4.2-.9 8.5-1.2 12.8-.8l-9.9-5.7z"/></g><path class="st6" d="M182.1 148.5L192.2 125.7 147.4 99.6 137.3 122.9z"/><path class="st32" d="M187.5 136.4c-3.1-1.4-6.3-2.6-9.6-3.4-5.4-1.2-11.8-2.1-17.1-.5-1.4.4-2.8.9-4.2 1.4l25.7 14.6 5.2-12.1z"/><g class="st33"><path class="st34" d="M147.4 128.7c3.2-8.6 10-11.6 20.1-9.6 6.9 1.3 16.5 7.6 22.8 11l1.9-4.4-44.8-26.1-10.1 23.4 10.1 5.7z"/></g><g class="st33"><path class="st35" d="M144.8 105.8c4.4.5 8.8 2.4 12.7 4.3 5.3 2.6 10.6 5.2 15.8 8.1 4.5 2.6 9 5.3 13.3 8.3 1.4.8 2.8 1.6 4.2 2.5l1.5-3.3-44.8-26.1-2.7 6.2z"/></g><path class="st7" d="M151.3 118.1c2.2-5.1 1.1-10.9-2.8-14.9l-8.9 21c4.9 1.2 9.9-1.4 11.7-6.1z"/><path class="st7" d="M139.8 124.3c1.5-3 5-10.3 6.9-13 1.6-2.3 3.5-3.6 5.5-.4-.4-2.9-1.7-5.6-3.7-7.7l-8.9 21c.1.1.2.1.2.1z"/><linearGradient id="SVGID_17_" gradientUnits="userSpaceOnUse" x1="-534.482" y1="72.901" x2="-541.372" y2="76.561" gradientTransform="matrix(1 0 0 -1 733 216)"><stop offset="0" stop-color="#CE7B02"/><stop offset=".65" stop-color="#E69900"/></linearGradient><path class="st36" d="M200.8 122.3L185.6 158.2 189.7 159.7 204.4 125z"/><linearGradient id="SVGID_18_" gradientUnits="userSpaceOnUse" x1="-585.59" y1="102.075" x2="-540.75" y2="102.075" gradientTransform="matrix(1 0 0 -1 733 216)"><stop offset="0" stop-color="#CE7B02"/><stop offset=".65" stop-color="#E69900"/></linearGradient><path class="st37" d="M191.1 128.3L192.2 125.7 147.4 99.6 148.5 103.2z"/><linearGradient id="SVGID_19_" gradientUnits="userSpaceOnUse" x1="-595.71" y1="104.075" x2="-584.48" y2="104.075" gradientTransform="matrix(1 0 0 -1 733 216)"><stop offset="0" stop-color="#CE7B02"/><stop offset=".65" stop-color="#E69900"/></linearGradient><path class="st38" d="M139.6 124.3L148.5 103.2 147.4 99.6 137.3 122.9z"/><linearGradient id="SVGID_20_" gradientUnits="userSpaceOnUse" x1="-538.64" y1="73.215" x2="-529.714" y2="73.215" gradientTransform="matrix(1 0 0 -1 733 216)"><stop offset=".25" stop-color="#9F5C03"/><stop offset=".74" stop-color="#98540A"/><stop offset="1" stop-color="#934D0F"/></linearGradient><path class="st39" d="M202.7 132.7l-8.3 20.1s4.4-.4 7.3-8 1-12.1 1-12.1z"/><path class="st40" d="M200 148.2c.6-1.1 1.2-2.2 1.6-3.4 2.9-7.6 1-12.1 1-12.1l-1.3 3.2c1 .6.7 3.3.7 4-.1 2.9-.9 5.2-2 8.3z"/><linearGradient id="SVGID_21_" gradientUnits="userSpaceOnUse" x1="-532.05" y1="75.98" x2="-523.132" y2="75.98" gradientTransform="matrix(1 .00576 .00576 -1 725.792 222.079)"><stop offset=".25" stop-color="#9F5C03"/><stop offset=".74" stop-color="#98540A"/><stop offset="1" stop-color="#934D0F"/></linearGradient><path class="st41" d="M202.5 133.1l-8.4 20s4.4-.4 7.4-8 1-12 1-12z"/><path class="st40" d="M199.8 148.5c.7-1.1 1.2-2.2 1.7-3.4 3-7.6 1.1-12.1 1.1-12.1l-1.3 3.2c1 .6.7 3.3.7 4-.3 2.9-1.1 5.2-2.2 8.3z"/><linearGradient id="SVGID_22_" gradientUnits="userSpaceOnUse" x1="-538.67" y1="73.215" x2="-529.76" y2="73.215" gradientTransform="matrix(1 0 0 -1 733 216)"><stop offset=".25" stop-color="#9F5C03"/><stop offset=".74" stop-color="#98540A"/><stop offset="1" stop-color="#934D0F"/></linearGradient><path class="st42" d="M202.6 132.7l-8.3 20.1s4.4-.4 7.3-8 1-12.1 1-12.1z"/><path class="st40" d="M200 148.2c.6-1.1 1.2-2.2 1.6-3.4 2.9-7.6 1-12.1 1-12.1l-1.3 3.2c.9.6.7 3.3.7 4-.3 2.9-.9 5.6-2 8.3z"/><linearGradient id="SVGID_23_" gradientUnits="userSpaceOnUse" x1="-203.253" y1="826.227" x2="-195.863" y2="820.457" gradientTransform="matrix(.52 .86 .86 -.52 -481.82 731.63)"><stop offset="0" stop-color="#47DAEA"/><stop offset=".58" stop-color="#06A0C9"/></linearGradient><path class="st43" d="M121.5 129.3L118.3 131.2 117.4 134.8 119.3 138 123 138.9 126.1 137 127 133.3 125.1 130.2z"/><linearGradient id="SVGID_24_" gradientUnits="userSpaceOnUse" x1="-200.517" y1="820.67" x2="-194.157" y2="820.67" gradientTransform="matrix(.52 .86 .86 -.52 -481.82 731.63)"><stop offset="0" stop-color="#048FB1"/><stop offset=".95" stop-color="#027CA1"/></linearGradient><path class="st44" d="M117.4 134.8L119.3 138 123 138.9 126.1 137 124.8 135 120.8 133z"/><linearGradient id="SVGID_25_" gradientUnits="userSpaceOnUse" x1="-202.917" y1="826.656" x2="-201.397" y2="825.466" gradientTransform="matrix(.52 .86 .86 -.52 -481.82 731.63)"><stop offset="0" stop-color="#38D0E1"/><stop offset=".58" stop-color="#059AC1"/></linearGradient><path class="st45" d="M122.4 131.3L123.2 131.4 125.1 130.2 121.5 129.3z"/><linearGradient id="SVGID_26_" gradientUnits="userSpaceOnUse" x1="-196.822" y1="824.883" x2="-194.022" y2="825.223" gradientTransform="matrix(.52 .86 .86 -.52 -481.82 731.63)"><stop offset="0" stop-color="#0787A5"/><stop offset=".58" stop-color="#059AC1"/></linearGradient><path class="st46" d="M124.8 135L126.1 137 127 133.3 124.9 134.3z"/><linearGradient id="SVGID_27_" gradientUnits="userSpaceOnUse" x1="-203.147" y1="818.953" x2="-200.287" y2="818.953" gradientTransform="matrix(.52 .86 .86 -.52 -481.82 731.63)"><stop offset="0" stop-color="#0787A5"/><stop offset=".95" stop-color="#037193"/></linearGradient><path class="st47" d="M117.4 134.8L119.5 133.9 119.7 132.9 118.3 131.2z"/><linearGradient id="SVGID_28_" gradientUnits="userSpaceOnUse" x1="-197.077" y1="818.981" x2="-194.157" y2="818.981" gradientTransform="matrix(.52 .86 .86 -.52 -481.82 731.63)"><stop offset="0" stop-color="#006487"/><stop offset=".95" stop-color="#037193"/></linearGradient><path class="st48" d="M119.3 138L123 138.9 122 136.7 121.1 136.6z"/><linearGradient id="SVGID_29_" gradientUnits="userSpaceOnUse" x1="-199.426" y1="827.007" x2="-197.896" y2="822.007" gradientTransform="matrix(.52 .86 .86 -.52 -481.82 731.63)"><stop offset="0" stop-color="#C7F7F9"/><stop offset=".95" stop-color="#84E4F4"/></linearGradient><path class="st49" d="M122.4 131.3L119.7 132.9 119.5 133.9 121.1 136.6 122 136.7 124.8 135 124.9 134.3 123.2 131.4z"/><linearGradient id="SVGID_30_" gradientUnits="userSpaceOnUse" x1="-199.956" y1="821.593" x2="-196.496" y2="822.263" gradientTransform="matrix(.52 .86 .86 -.52 -481.82 731.63)"><stop offset="0" stop-color="#0DBFD1"/><stop offset=".95" stop-color="#84E4F4"/></linearGradient><path class="st50" d="M122.4 132L120.4 133.2 120.3 133.9 121.4 135.8 122.1 135.9 124 134.7 124.2 134.2 122.9 132.1z"/><path class="st51" d="M126.7 133.4c-1.5.4-2.9 1-4.1 1.8-1.9 1.1-3.3 0-5.1-.7l-.1.3 1.9 3.2 3.6.9 3.2-1.9.9-3.6h-.3z"/><path class="st52" d="M142.5 133.4L137.6 132.1 134.8 129.3 138.5 128.5 143.4 129.8 146.1 132.1z"/><path class="st53" d="M138.4 130.7c.1-.7.3-1.4.5-2.1l-.4-.1-3.7.8 2.8 2.8c.3-.5.5-1 .8-1.4z"/><path class="st54" d="M143.4 129.8l-.3-.1c-.1.7-.4 1.3-.7 1.9v.1c0 .5.1 1 .1 1.6l3.5-1.2-2.6-2.3z"/><path class="st55" d="M142.5 133.4L137.6 132.1 134.8 129.3 137.7 131.8 142.6 133.2 146.1 132.1z"/><path class="st56" d="M142.6 132.2L138.1 131 136.2 129.2 138.8 128.6 143.3 129.8 145.2 131.6z"/><path class="st57" d="M143.3 129.8h-.1c-.4.8-1.2 1.3-2 1.4-.7.1-1.3.2-2 .1l3.4.9 2.6-.6-1.9-1.8z"/><path class="st58" d="M134.8 129.3L132.2 131.9 135.2 134.7 137.6 132.1z"/><path class="st59" d="M142.5 133.4L143 137 147.3 135.6 146.1 132.1z"/><path class="st60" d="M137.6 132.1L135.2 134.7 143 137 142.5 133.4z"/><path class="st55" d="M137.5 131.9L135.2 134.7 137.8 132.1z"/><path class="st55" d="M142.7 133.2L143 137 142.2 133.3z"/><path class="st61" d="M135.2 134.7L134.3 138 132 135.6 132.2 131.9z"/><path class="st62" d="M135.2 134.7L134.3 138 134.8 134.8 132.2 131.9z"/><path transform="rotate(-73.979 138.623 137.45)" class="st63" d="M136.9 133.4H140.3V141.5H136.9z"/><path class="st64" d="M143 137L142.1 140.2 142.3 137.4 135.5 135.2 134.3 138 135.2 134.7z"/><path class="st65" d="M147.3 135.6L145.4 139 142.1 140.2 143 137z"/><path class="st66" d="M147.3 135.6L143.3 137.5 142.1 140.2 143 137z"/><path class="st67" d="M132 135.6L133.1 138.2 137.1 142.9 134.3 137.9z"/><path class="st66" d="M145.4 139L142.1 140.2 137.1 142.9 143.1 140.9z"/><path class="st68" d="M134.3 137.9L142.1 140.2 137.1 142.9z"/><path class="st69" d="M140.7 139.8c-.4.5-.9.9-1.4 1.2l-2.1 1.5-.1.2 5-2.6-1.4-.3z"/><path class="st69" d="M134.3 137.9L138.2 139.1 135.3 138.6 135.8 140.5z"/><path class="st51" d="M141.7 136.8c-2.3-1-4.2-2.1-6.6-2.6-1.1-.2-2.1-.6-2.9-1.3l-.1 2.8 1.1 2.6 4 4.7 5.9-2 2.3-1.9 1.5-2.8c-1.6.9-3.5 1.1-5.2.5z"/><path class="st70" d="M144 147.6L143.1 144.6 139.9 141.2 140.9 144.6z"/><linearGradient id="SVGID_31_" gradientUnits="userSpaceOnUse" x1="-359.197" y1="267.293" x2="-353.217" y2="267.293" gradientTransform="scale(1 -1) rotate(-19.627 -1301.863 -1412.08)"><stop offset="0" stop-color="#048FB1"/><stop offset=".95" stop-color="#027CA1"/></linearGradient><path class="st71" d="M149.2 149.4L151.4 147.7 156.7 146.4 154.2 148.2z"/><path class="st72" d="M144 147.6L143.1 144.6 151.7 147.7 149.2 149.4z"/><linearGradient id="SVGID_32_" gradientUnits="userSpaceOnUse" x1="-364.779" y1="263.861" x2="-359.197" y2="263.861" gradientTransform="scale(1 -1) rotate(-19.627 -1301.863 -1412.08)"><stop offset="0" stop-color="#048FB1"/><stop offset=".95" stop-color="#027CA1"/></linearGradient><path class="st73" d="M145.1 149.5L144 147.6 149.2 149.4 146.9 150.2z"/><path class="st74" d="M154.2 148.2l-5 1.2-2.4.7s2.9-.2 3-.2 4.4-1.7 4.4-1.7z"/><path class="st75" d="M145.1 149.5L144 147.6 140.9 144.6 143.2 147.8z"/><path class="st52" d="M151.4 143.6L146 141.8 143 138.5 147.3 137.8 152.8 139.7 155.5 142.4z"/><path class="st55" d="M151.4 143.6L146 141.8 143 138.5 146.2 141.4 151.5 143.2 155.5 142.4z"/><path class="st76" d="M151.7 142.1L146.9 140.4 144.6 138.4 147.6 137.9 152.5 139.6 154.5 141.7z"/><path class="st77" d="M152.5 139.6l-1.1-.4c-.8.9-2.3 1-3.4 1-.5 0-.9 0-1.4-.1l.2.2 4.8 1.7 2.8-.4-1.9-2z"/><path class="st58" d="M143 138.5L139.9 141.2 143.1 144.6 146 141.8z"/><path class="st78" d="M143.1 138.6c.1 1.9 0 3.8-.3 5.7l.3.3 2.9-2.8-2.9-3.2z"/><path class="st79" d="M151.4 143.6L151.7 147.7 156.7 146.4 155.5 142.4z"/><path class="st80" d="M155.6 142.8l-.1-.3-4.1 1.2.3 4.1.4-.1c.9-1.9 2.1-3.5 3.5-4.9z"/><path class="st81" d="M146 141.8L143.1 144.6 151.7 147.7 151.4 143.6z"/><path class="st60" d="M151.4 143.9c-.6 2.4-6 1.4-7.8.7-.1 0-.2-.2-.2-.3l-.3.3 8.6 3.1-.3-3.8z"/><path class="st51" d="M148.9 146.4c-1.9-1-3.7-2.3-5.3-3.8-1-.8-1.6-2-1.6-3.2l-2.1 1.8 1 3.4 2.2 3.2 1.9 1.8 1.8.6s2.9-.2 3-.2 4.4-1.7 4.4-1.7l2.5-1.9-.8-2.8c-1.7 2.2-4.7 4-7 2.8z"/><path class="st52" d="M129.3 136.8L124.6 138.8 120.7 138.3 123.2 135.4 127.9 133.4 131.3 133.6z"/><path class="st53" d="M124.4 137.2c-.2-.7-.6-1.3-.8-1.9l-.3.1-2.5 2.9 3.9.5c-.1-.5-.2-1.1-.3-1.6z"/><path class="st54" d="M127.9 133.4l-.3.1c.3.6.5 1.3.6 2 0 0 .1 0 .1.1.3.4.7.8 1 1.2l2-3.1-3.4-.3z"/><path class="st55" d="M129.3 136.8L124.6 138.8 120.7 138.3 124.5 138.5 129.2 136.6 131.3 133.6z"/><path class="st56" d="M128.7 135.8L124.4 137.6 121.8 137.3 123.4 135.3 127.7 133.5 130.3 133.7z"/><path class="st57" d="M127.7 133.5h-.1c.1.9-.1 1.7-.7 2.4-.4.5-.9.9-1.5 1.3l3.3-1.4 1.6-2.1-2.6-.2z"/><path class="st58" d="M120.7 138.3L120.2 141.9 124.4 142.3 124.6 138.8z"/><path class="st59" d="M129.3 136.8L131.9 139.3 134.4 135.6 131.3 133.6z"/><path class="st60" d="M124.6 138.8L124.4 142.3 131.9 139.3 129.3 136.8z"/><path class="st55" d="M124.4 138.7L124.4 142.3 124.8 138.7z"/><path class="st55" d="M129.4 136.6L131.9 139.4 129 136.9z"/><path class="st61" d="M124.4 142.3L125.6 145.5 122.4 144.9 120.2 141.9z"/><path class="st62" d="M124.4 142.3L125.6 145.5 124.1 142.7 120.2 141.9z"/><path transform="rotate(-21.771 128.745 142.406)" class="st63" d="M124.7 140.7H132.8V144.1H124.7z"/><path class="st64" d="M131.9 139.3L133.1 142.5 131.6 140.1 124.9 142.6 125.6 145.5 124.4 142.3z"/><path class="st65" d="M134.4 135.6L135 139.5 133.1 142.5 131.9 139.3z"/><path class="st66" d="M134.4 135.6L132.4 139.6 133.1 142.5 131.9 139.3z"/><path class="st67" d="M122.4 144.9L124.8 146.3 130.9 147.6 125.6 145.4z"/><path class="st66" d="M135 139.5L133.1 142.5 130.9 147.6 134.4 142.4z"/><path class="st68" d="M125.6 145.4L133.1 142.5 130.9 147.6z"/><path class="st69" d="M131.8 143c0 .6-.2 1.3-.4 1.9-.2.8-.5 1.7-.7 2.5l.1.2 2.3-5.1-1.3.5z"/><path class="st69" d="M125.6 145.4L129.4 143.9 126.8 145.4 128.4 146.6z"/><path class="st51" d="M134.4 135.6l-1.6-1c-.3.1-.7.3-1 .4-.9.8-1.7 1.7-2.3 2.8-.9 1.6-.9 3.4-1.8 4.9-.2.3-.5.4-.8.2l-.1-.1c-.7-.9-1.2-1.9-1.7-3-.8-1.3-2-2-3.1-2.9l-1.3 1.5-.5 3.6 2.2 3 2.4 1.4 6 1.3 3.5-5.2.7-2.9-.6-4z"/><linearGradient id="SVGID_33_" gradientUnits="userSpaceOnUse" x1="-275.678" y1="441.635" x2="-265.918" y2="434.005" gradientTransform="scale(1 -1) rotate(-32.451 -1062.217 -549.296)"><stop offset="0" stop-color="#47DAEA"/><stop offset=".58" stop-color="#06A0C9"/></linearGradient><path class="st82" d="M131.6 135.7L129 139.9 130 144.7 134.2 147.3 139 146.2 141.6 142.1 140.6 137.3 136.4 134.7z"/><linearGradient id="SVGID_34_" gradientUnits="userSpaceOnUse" x1="-273.246" y1="436.082" x2="-264.842" y2="436.082" gradientTransform="scale(1 -1) rotate(-32.451 -1062.217 -549.296)"><stop offset="0" stop-color="#048FB1"/><stop offset=".95" stop-color="#027CA1"/></linearGradient><path class="st83" d="M130 144.7L134.2 147.3 139 146.2 141.6 142.1 138.9 140.6 133 140.6z"/><linearGradient id="SVGID_35_" gradientUnits="userSpaceOnUse" x1="-275.237" y1="442.207" x2="-273.238" y2="440.637" gradientTransform="scale(1 -1) rotate(-32.451 -1062.217 -549.296)"><stop offset="0" stop-color="#38D0E1"/><stop offset=".58" stop-color="#059AC1"/></linearGradient><path class="st84" d="M133.9 137.5L134.8 137.3 136.4 134.7 131.6 135.7z"/><linearGradient id="SVGID_36_" gradientUnits="userSpaceOnUse" x1="-268.783" y1="441.749" x2="-265.083" y2="442.209" gradientTransform="scale(1 -1) rotate(-32.451 -1062.217 -549.296)"><stop offset="0" stop-color="#0787A5"/><stop offset=".58" stop-color="#059AC1"/></linearGradient><path class="st85" d="M138.9 140.6L141.6 142.1 140.6 137.3 138.6 139.7z"/><linearGradient id="SVGID_37_" gradientUnits="userSpaceOnUse" x1="-276.716" y1="433.805" x2="-272.946" y2="433.805" gradientTransform="scale(1 -1) rotate(-32.451 -1062.217 -549.296)"><stop offset="0" stop-color="#0787A5"/><stop offset=".95" stop-color="#037193"/></linearGradient><path class="st86" d="M130 144.7L131.9 142.4 131.6 141.1 129 139.9z"/><linearGradient id="SVGID_38_" gradientUnits="userSpaceOnUse" x1="-268.706" y1="433.832" x2="-264.853" y2="433.832" gradientTransform="scale(1 -1) rotate(-32.451 -1062.217 -549.296)"><stop offset="0" stop-color="#006487"/><stop offset=".95" stop-color="#037193"/></linearGradient><path class="st87" d="M134.2 147.3L139 146.2 136.6 144.2 135.4 144.6z"/><linearGradient id="SVGID_39_" gradientUnits="userSpaceOnUse" x1="-271.905" y1="441.118" x2="-269.884" y2="434.517" gradientTransform="scale(1 -1) rotate(-32.451 -1062.217 -549.296)"><stop offset="0" stop-color="#C7F7F9"/><stop offset=".95" stop-color="#84E4F4"/></linearGradient><path class="st88" d="M133.9 137.5L131.6 141.1 131.9 142.4 135.4 144.6 136.6 144.2 138.9 140.6 138.6 139.7 134.8 137.3z"/><linearGradient id="SVGID_40_" gradientUnits="userSpaceOnUse" x1="-273.172" y1="437.403" x2="-268.589" y2="438.293" gradientTransform="scale(1 -1) rotate(-32.451 -1062.217 -549.296)"><stop offset="0" stop-color="#0DBFD1"/><stop offset=".95" stop-color="#84E4F4"/></linearGradient><path class="st89" d="M134.3 138.5L132.7 141 132.9 141.9 135.4 143.5 136.2 143.2 137.8 140.7 137.7 140 135 138.3z"/><path class="st51" d="M136.3 142.7c-2.2.5-4.4.6-6.6.3l.4 1.7 4.1 2.6 4.8-1.1 2.5-3.9c-1.8-.1-3.5.1-5.2.4z"/><linearGradient id="SVGID_41_" gradientUnits="userSpaceOnUse" x1="-296.031" y1="426.386" x2="-286.693" y2="419.088" gradientTransform="scale(1 -1) rotate(-32.451 -1062.217 -549.296)"><stop offset="0" stop-color="#47DAEA"/><stop offset=".58" stop-color="#06A0C9"/></linearGradient><path class="st90" d="M106.3 137.7L103.8 141.6 104.8 146.2 108.8 148.8 113.4 147.7 115.9 143.8 114.9 139.2 110.9 136.6z"/><linearGradient id="SVGID_42_" gradientUnits="userSpaceOnUse" x1="-293.696" y1="421.073" x2="-285.663" y2="421.073" gradientTransform="scale(1 -1) rotate(-32.451 -1062.217 -549.296)"><stop offset="0" stop-color="#048FB1"/><stop offset=".95" stop-color="#027CA1"/></linearGradient><path class="st91" d="M104.8 146.2L108.8 148.8 113.4 147.7 115.9 143.8 113.2 142.4 107.7 142.3z"/><linearGradient id="SVGID_43_" gradientUnits="userSpaceOnUse" x1="-295.611" y1="426.935" x2="-293.691" y2="425.435" gradientTransform="scale(1 -1) rotate(-32.451 -1062.217 -549.296)"><stop offset="0" stop-color="#38D0E1"/><stop offset=".58" stop-color="#059AC1"/></linearGradient><path class="st92" d="M108.5 139.4L109.4 139.1 110.9 136.6 106.3 137.7z"/><linearGradient id="SVGID_44_" gradientUnits="userSpaceOnUse" x1="-289.433" y1="426.501" x2="-285.892" y2="426.931" gradientTransform="scale(1 -1) rotate(-32.451 -1062.217 -549.296)"><stop offset="0" stop-color="#0787A5"/><stop offset=".58" stop-color="#059AC1"/></linearGradient><path class="st93" d="M113.2 142.4L115.9 143.8 114.9 139.2 113.1 141.4z"/><linearGradient id="SVGID_45_" gradientUnits="userSpaceOnUse" x1="-297.026" y1="418.897" x2="-293.416" y2="418.897" gradientTransform="scale(1 -1) rotate(-32.451 -1062.217 -549.296)"><stop offset="0" stop-color="#0787A5"/><stop offset=".95" stop-color="#037193"/></linearGradient><path class="st94" d="M104.8 146.2L106.6 144 106.3 142.8 103.8 141.6z"/><linearGradient id="SVGID_46_" gradientUnits="userSpaceOnUse" x1="-289.356" y1="418.922" x2="-285.666" y2="418.922" gradientTransform="scale(1 -1) rotate(-32.451 -1062.217 -549.296)"><stop offset="0" stop-color="#006487"/><stop offset=".95" stop-color="#037193"/></linearGradient><path class="st95" d="M108.8 148.8L113.4 147.7 111.1 145.8 110 146.2z"/><linearGradient id="SVGID_47_" gradientUnits="userSpaceOnUse" x1="-292.418" y1="425.897" x2="-290.488" y2="419.587" gradientTransform="scale(1 -1) rotate(-32.451 -1062.217 -549.296)"><stop offset="0" stop-color="#C7F7F9"/><stop offset=".95" stop-color="#84E4F4"/></linearGradient><path class="st96" d="M108.5 139.4L106.3 142.8 106.6 144 110 146.2 111.1 145.8 113.2 142.4 113.1 141.4 109.4 139.1z"/><linearGradient id="SVGID_48_" gradientUnits="userSpaceOnUse" x1="-293.632" y1="422.332" x2="-289.242" y2="423.182" gradientTransform="scale(1 -1) rotate(-32.451 -1062.217 -549.296)"><stop offset="0" stop-color="#0DBFD1"/><stop offset=".95" stop-color="#84E4F4"/></linearGradient><path class="st97" d="M108.9 140.3L107.3 142.7 107.5 143.6 109.9 145.1 110.7 144.9 112.3 142.4 112.1 141.8 109.5 140.1z"/><path class="st51" d="M114.9 139.2l-4-2.5-1.4.3c-.6 1.7.3 3.2.1 5-.2 1.1-.6 2.1-1.2 3.1-.5.8-1.2 1.6-2 2.2l2.4 1.5 4.6-1 2.5-4-1-4.6z"/><path class="st70" d="M113.3 144.6L112.7 141.6 109.8 137.8 110.6 141.3z"/><linearGradient id="SVGID_49_" gradientUnits="userSpaceOnUse" x1="-341.073" y1="331.361" x2="-335.104" y2="331.361" gradientTransform="scale(1 -1) rotate(-24.892 -1188.825 -950.04)"><stop offset="0" stop-color="#048FB1"/><stop offset=".95" stop-color="#027CA1"/></linearGradient><path class="st98" d="M118.4 146.9L120.7 145.4 126.1 144.6 123.4 146.2z"/><path class="st72" d="M113.3 144.6L112.7 141.6 121 145.4 118.4 146.9z"/><linearGradient id="SVGID_50_" gradientUnits="userSpaceOnUse" x1="-346.659" y1="327.931" x2="-341.067" y2="327.931" gradientTransform="scale(1 -1) rotate(-24.892 -1188.825 -950.04)"><stop offset="0" stop-color="#048FB1"/><stop offset=".95" stop-color="#027CA1"/></linearGradient><path class="st99" d="M114.2 146.6L113.3 144.6 118.4 146.9 115.9 147.4z"/><path class="st74" d="M123.4 146.2l-5.1.8-2.4.5s2.9.1 3 .1 4.5-1.4 4.5-1.4z"/><path class="st75" d="M114.2 146.6L113.3 144.6 110.6 141.3 112.5 144.7z"/><path class="st52" d="M121.1 141.3L115.8 139 113.2 135.4 117.5 135.2 122.8 137.5 125.3 140.5z"/><path class="st55" d="M121.1 141.3L115.8 139 113.2 135.4 116.1 138.6 121.2 140.9 125.3 140.5z"/><path class="st76" d="M121.5 139.8L116.8 137.7 114.8 135.6 117.8 135.3 122.6 137.4 124.3 139.7z"/><path class="st77" d="M122.6 137.4l-1.1-.5c-.8.8-2.4.8-3.5.7-.5 0-.9-.1-1.4-.2l.2.2 4.6 2.2 2.8-.1-1.6-2.3z"/><path class="st58" d="M113.2 135.4L109.8 137.9 112.7 141.6 115.8 139z"/><path class="st78" d="M113.3 135.5c0 1.9-.3 3.8-.8 5.7l.3.4 3.1-2.6-2.6-3.5z"/><path class="st79" d="M121.1 141.3L121 145.4 126.1 144.6 125.3 140.5z"/><path class="st80" d="M125.3 140.9l-.1-.4-4.2.8-.1 4.1.4-.1c1.1-1.7 2.5-3.2 4-4.4z"/><path class="st81" d="M115.8 139L112.7 141.6 121 145.4 121.1 141.3z"/><path class="st60" d="M121.1 141.6c-.8 2.4-6.1.9-7.8 0-.1-.1-.2-.2-.2-.3l-.4.3 8.3 3.9.1-3.9z"/><path class="st51" d="M124.2 145c-2.1 0-3.7-1.2-5.7-1.7-2.4-.4-4.8-.6-7.2-.7l1.2 2.1 1.7 2 1.7.8s2.9.1 3 .1 4.5-1.3 4.5-1.3l2.2-1.3h-1.4z"/><linearGradient id="SVGID_51_" gradientUnits="userSpaceOnUse" x1="-174.588" y1="685.199" x2="-164.827" y2="677.579" gradientTransform="matrix(.66 .75 .75 -.66 -240.69 727.56)"><stop offset="0" stop-color="#47DAEA"/><stop offset=".58" stop-color="#06A0C9"/></linearGradient><path class="st100" d="M156.3 144.6L152.6 147.8 152.3 152.7 155.5 156.4 160.4 156.7 164.1 153.5 164.4 148.6 161.2 144.9z"/><linearGradient id="SVGID_52_" gradientUnits="userSpaceOnUse" x1="-173.288" y1="679.582" x2="-164.888" y2="679.582" gradientTransform="matrix(.66 .75 .75 -.66 -240.69 727.56)"><stop offset="0" stop-color="#048FB1"/><stop offset=".95" stop-color="#027CA1"/></linearGradient><path class="st101" d="M152.3 152.7L155.5 156.4 160.4 156.7 164.1 153.5 161.9 151.3 156.3 149.6z"/><linearGradient id="SVGID_53_" gradientUnits="userSpaceOnUse" x1="-174.117" y1="685.788" x2="-172.117" y2="684.218" gradientTransform="matrix(.66 .75 .75 -.66 -240.69 727.56)"><stop offset="0" stop-color="#38D0E1"/><stop offset=".58" stop-color="#059AC1"/></linearGradient><path class="st102" d="M158 146.9L159 147 161.2 144.9 156.3 144.6z"/><linearGradient id="SVGID_54_" gradientUnits="userSpaceOnUse" x1="-168.965" y1="685.087" x2="-165.275" y2="685.537" gradientTransform="matrix(.66 .75 .75 -.66 -240.69 727.56)"><stop offset="0" stop-color="#0787A5"/><stop offset=".58" stop-color="#059AC1"/></linearGradient><path class="st103" d="M161.9 151.3L164.1 153.5 164.4 148.6 161.9 150.4z"/><linearGradient id="SVGID_55_" gradientUnits="userSpaceOnUse" x1="-176.758" y1="677.332" x2="-172.98" y2="677.332" gradientTransform="matrix(.66 .75 .75 -.66 -240.69 727.56)"><stop offset="0" stop-color="#0787A5"/><stop offset=".95" stop-color="#037193"/></linearGradient><path class="st104" d="M152.3 152.7L154.7 151 154.8 149.7 152.6 147.8z"/><linearGradient id="SVGID_56_" gradientUnits="userSpaceOnUse" x1="-168.748" y1="677.34" x2="-164.885" y2="677.34" gradientTransform="matrix(.66 .75 .75 -.66 -240.69 727.56)"><stop offset="0" stop-color="#006487"/><stop offset=".95" stop-color="#037193"/></linearGradient><path class="st105" d="M155.5 156.4L160.4 156.7 158.7 154.1 157.5 154.2z"/><linearGradient id="SVGID_57_" gradientUnits="userSpaceOnUse" x1="-170.449" y1="683.687" x2="-168.429" y2="677.087" gradientTransform="matrix(.66 .75 .75 -.66 -240.69 727.56)"><stop offset="0" stop-color="#C7F7F9"/><stop offset=".95" stop-color="#84E4F4"/></linearGradient><path class="st106" d="M158 146.9L154.8 149.7 154.7 151 157.5 154.2 158.7 154.1 161.9 151.3 161.9 150.4 159 147z"/><linearGradient id="SVGID_58_" gradientUnits="userSpaceOnUse" x1="-173.433" y1="680.634" x2="-168.843" y2="681.524" gradientTransform="matrix(.66 .75 .75 -.66 -240.69 727.56)"><stop offset="0" stop-color="#0DBFD1"/><stop offset=".95" stop-color="#84E4F4"/></linearGradient><path class="st107" d="M158.1 148L155.8 149.9 155.8 150.8 157.7 153.1 158.6 153.1 160.9 151.1 160.9 150.4 158.8 148z"/><path class="st51" d="M162.2 151.2c-1.6.4-2.8 1.5-4.5 1.2-.5-.1-1.1-.9-1.4-1.2-1-1.1-2.3-2-3.7-2.6l-.3 4.1 3.2 3.7 4.9.3 3.7-3.2.2-2.7c-.8.2-1.6.3-2.1.4z"/><path class="st70" d="M130.1 154.1L128.3 151.6 124.1 149.4 126.3 152.3z"/><linearGradient id="SVGID_59_" gradientUnits="userSpaceOnUse" x1="-597.28" y1="64.62" x2="-591.3" y2="64.62" gradientTransform="matrix(1 0 0 -1 733 216)"><stop offset="0" stop-color="#048FB1"/><stop offset=".95" stop-color="#027CA1"/></linearGradient><path class="st108" d="M135.7 154.1L137.2 151.7 141.7 148.7 140 151.3z"/><path class="st72" d="M130.1 154.1L128.3 151.6 137.5 151.6 135.7 154.1z"/><linearGradient id="SVGID_60_" gradientUnits="userSpaceOnUse" x1="-602.86" y1="61.19" x2="-597.28" y2="61.19" gradientTransform="matrix(1 0 0 -1 733 216)"><stop offset="0" stop-color="#048FB1"/><stop offset=".95" stop-color="#027CA1"/></linearGradient><path class="st109" d="M131.8 155.6L130.1 154.1 135.7 154.1 133.7 155.6z"/><path class="st74" d="M140 151.3l-4.3 2.8-2 1.5 2.7-1.2c.2-.1 3.6-3.1 3.6-3.1z"/><path class="st75" d="M131.8 155.6L130.1 154.1 126.3 152.3 129.4 154.5z"/><path class="st52" d="M135.8 147.9L130.1 148 126.2 145.8 130 143.8 135.7 143.7 139.3 145.4z"/><path class="st55" d="M135.8 147.9L130.1 148 126.2 145.8 130.1 147.5 135.7 147.4 139.3 145.4z"/><path class="st76" d="M135.6 146.3L130.4 146.3 127.7 145.2 130.3 143.8 135.5 143.7 138.1 145z"/><path class="st77" d="M135.5 143.7h-1.2c-.4 1.1-1.8 1.8-2.9 2.1-.4.2-.9.3-1.4.4l.3.1h5.1l2.5-1.3-2.4-1.3z"/><path class="st58" d="M126.2 145.8L124.2 149.4 128.3 151.6 130.1 148z"/><path class="st78" d="M126.3 145.9c.8 1.8 1.3 3.6 1.6 5.5l.4.2 1.8-3.6-3.8-2.1z"/><path class="st79" d="M135.8 147.9L137.5 151.6 141.7 148.7 139.3 145.4z"/><path class="st80" d="M139.5 145.7l-.2-.3-3.4 2.5 1.6 3.7.4-.2c.1-2 .7-4 1.6-5.7z"/><path class="st81" d="M130.1 148L128.3 151.6 137.5 151.6 135.8 147.9z"/><path class="st60" d="M135.9 148.1c.3 2.5-5.2 3.4-7.1 3.3-.1 0-.3-.1-.3-.2l-.2.4h9.1l-1.5-3.5z"/><path class="st51" d="M139.5 145.7l-.2-.3-3.5-1.7h-.4c-1.9.8-3.2 2.5-3.5 4.6 0 .6 0 1.3-.1 1.9 0 .6-.2 1.3-.6 1.8-.8.7-1.8 1.2-2.8 1.5l-.2.2 1.2.9 2.4 1.1h1.9l2.7-1.2c.1-.1 3.5-3.1 3.5-3.1l1.7-2.6-2.1-3.1z"/><path class="st52" d="M142.7 147L137.7 146.7 134.4 144.6 137.9 143 143 143.3 146 145.1z"/><path class="st53" d="M138.1 145.2c.1-.7 0-1.4.1-2h-.4l-3.5 1.5 3.3 2.1c.3-.5.4-1.1.5-1.6z"/><path class="st54" d="M142.9 143.3h-.3c0 .7-.1 1.4-.3 2 0 0 0 .1.1.1.1.5.3 1 .4 1.5l3.1-1.9-3-1.7z"/><path class="st55" d="M142.7 147L137.7 146.7 134.4 144.6 137.7 146.4 142.8 146.8 146 145.1z"/><path class="st56" d="M142.6 145.8L138 145.5 135.7 144.1 138.1 143 142.8 143.3 145 144.7z"/><path class="st57" d="M142.8 143.3h-.1c-.3.8-.9 1.5-1.7 1.8-.6.2-1.2.4-1.9.5l3.6.2 2.4-1.1-2.3-1.4z"/><path class="st58" d="M134.4 144.6L132.3 147.6 135.9 149.8 137.7 146.7z"/><path class="st59" d="M142.7 147L143.9 150.4 147.9 148.2 146 145.1z"/><path class="st60" d="M137.7 146.7L135.9 149.8 143.9 150.4 142.7 147z"/><path class="st55" d="M137.5 146.6L135.9 149.8 137.9 146.7z"/><path class="st55" d="M142.9 146.8L143.9 150.4 142.4 146.9z"/><path class="st61" d="M135.9 149.8L135.6 153.1 132.9 151.2 132.3 147.6z"/><path class="st62" d="M135.9 149.8L135.6 153.1 135.5 150 132.3 147.6z"/><path transform="rotate(-85.54 139.764 151.757) scale(1.00003)" class="st63" d="M138.1 147.7H141.5V155.79999999999998H138.1z"/><path class="st64" d="M143.9 150.4L143.7 153.8 143.3 150.9 136.2 150.2 135.6 153.1 135.9 149.8z"/><path class="st65" d="M147.9 148.2L146.7 151.9 143.7 153.8 143.9 150.4z"/><path class="st66" d="M147.9 148.2L144.3 150.9 143.7 153.8 143.9 150.4z"/><path class="st67" d="M132.9 151.2L134.5 153.6 139.4 157.4 135.6 153.1z"/><path class="st66" d="M146.7 151.9L143.7 153.8 139.4 157.4 144.8 154.3z"/><path class="st68" d="M135.6 153.1L143.7 153.8 139.4 157.4z"/><path class="st69" d="M142.3 153.6c-.3.6-.7 1.1-1.2 1.5-.6.6-1.1 1.3-1.7 1.9v.2l4.3-3.6h-1.4z"/><path class="st69" d="M135.6 153.1L139.6 153.4 136.7 153.6 137.6 155.4z"/><path class="st52" d="M150.6 152.3L145.9 154.3 142 153.8 144.4 150.9 149.1 148.9 152.6 149.1z"/><path class="st53" d="M145.6 152.7s0-.1 0 0c-.2-.7-.6-1.3-.8-1.9l-.3.1-2.5 2.9 3.9.5c0-.5-.1-1.1-.3-1.6z"/><path class="st54" d="M149.1 148.9l-.3.1c.3.6.5 1.3.6 2 0 0 .1 0 .1.1.3.4.7.8 1 1.2l2-3.1-3.4-.3z"/><path class="st55" d="M150.6 152.3L145.9 154.3 142 153.8 145.8 154 150.5 152.1 152.6 149.1z"/><path class="st56" d="M149.9 151.3L145.6 153.1 143 152.8 144.7 150.8 148.9 149 151.6 149.2z"/><path class="st57" d="M148.9 149l-.1.1c.1.9-.1 1.7-.7 2.4-.4.5-.9.9-1.5 1.3l3.3-1.4 1.6-2.1-2.6-.3z"/><path class="st58" d="M142 153.8L141.5 157.4 145.6 157.8 145.9 154.3z"/><path class="st59" d="M150.6 152.3L153.1 154.8 155.7 151.1 152.6 149.1z"/><path class="st60" d="M145.9 154.3L145.6 157.8 153.1 154.8 150.6 152.3z"/><path class="st55" d="M145.7 154.2L145.6 157.8 146.1 154.2z"/><path class="st55" d="M150.6 152.1L153.2 154.9 150.3 152.4z"/><path class="st61" d="M145.6 157.8L146.9 161 143.6 160.4 141.5 157.4z"/><path class="st62" d="M145.6 157.8L146.9 161 145.4 158.2 141.5 157.4z"/><path transform="rotate(-21.789 150.026 157.873)" class="st63" d="M146 156.2H154.1V159.6H146z"/><path class="st64" d="M153.1 154.8L154.4 158 152.8 155.6 146.1 158.1 146.9 161 145.6 157.8z"/><path class="st65" d="M155.7 151.1L156.3 155 154.4 158 153.1 154.8z"/><path class="st66" d="M155.7 151.1L153.7 155.1 154.4 158 153.1 154.8z"/><path class="st67" d="M143.6 160.4L146.1 161.8 152.1 163.1 146.9 160.9z"/><path class="st66" d="M156.3 155L154.4 158 152.1 163.1 155.6 157.9z"/><path class="st68" d="M146.9 160.9L154.4 158 152.1 163.1z"/><path class="st69" d="M153.1 158.5c0 .6-.2 1.3-.4 1.9-.2.8-.5 1.7-.7 2.5l.1.2h.1l2.3-5.1-1.4.5z"/><path class="st69" d="M146.9 160.9L150.6 159.4 148.1 160.9 149.6 162.1z"/><linearGradient id="SVGID_61_" gradientUnits="userSpaceOnUse" x1="-597.199" y1="58.105" x2="-585.475" y2="48.94" gradientTransform="matrix(1 0 0 -1 733 216)"><stop offset="0" stop-color="#47DAEA"/><stop offset=".58" stop-color="#06A0C9"/></linearGradient><path class="st110" d="M134.5 159.5L134.5 165.4 138.7 169.6 144.6 169.6 148.8 165.4 148.8 159.5 144.6 155.3 138.7 155.3z"/><linearGradient id="SVGID_62_" gradientUnits="userSpaceOnUse" x1="-594.3" y1="51.435" x2="-584.2" y2="51.435" gradientTransform="matrix(1 0 0 -1 733 216)"><stop offset="0" stop-color="#048FB1"/><stop offset=".95" stop-color="#027CA1"/></linearGradient><path class="st111" d="M138.7 169.6L144.6 169.6 148.8 165.4 148.8 159.5 145.1 159.8 139.1 163.5z"/><linearGradient id="SVGID_63_" gradientUnits="userSpaceOnUse" x1="-596.668" y1="58.791" x2="-594.259" y2="56.911" gradientTransform="matrix(1 0 0 -1 733 216)"><stop offset="0" stop-color="#38D0E1"/><stop offset=".58" stop-color="#059AC1"/></linearGradient><path class="st112" d="M138 159.9L138.8 159 138.7 155.3 134.5 159.5z"/><linearGradient id="SVGID_64_" gradientUnits="userSpaceOnUse" x1="-588.922" y1="58.249" x2="-584.492" y2="58.789" gradientTransform="matrix(1 0 0 -1 733 216)"><stop offset="0" stop-color="#0787A5"/><stop offset=".58" stop-color="#059AC1"/></linearGradient><path class="st113" d="M145.1 159.8L148.8 159.5 144.6 155.3 144.2 159z"/><linearGradient id="SVGID_65_" gradientUnits="userSpaceOnUse" x1="-598.47" y1="48.7" x2="-593.93" y2="48.7" gradientTransform="matrix(1 0 0 -1 733 216)"><stop offset="0" stop-color="#0787A5"/><stop offset=".95" stop-color="#037193"/></linearGradient><path class="st114" d="M138.7 169.6L139.1 166 138 165 134.5 165.4z"/><linearGradient id="SVGID_66_" gradientUnits="userSpaceOnUse" x1="-588.84" y1="48.73" x2="-584.2" y2="48.73" gradientTransform="matrix(1 0 0 -1 733 216)"><stop offset="0" stop-color="#006487"/><stop offset=".95" stop-color="#037193"/></linearGradient><path class="st115" d="M144.6 169.6L148.8 165.4 145.1 164.9 144.2 166z"/><linearGradient id="SVGID_67_" gradientUnits="userSpaceOnUse" x1="-592.657" y1="57.47" x2="-590.226" y2="49.535" gradientTransform="matrix(1 0 0 -1 733 216)"><stop offset="0" stop-color="#C7F7F9"/><stop offset=".95" stop-color="#84E4F4"/></linearGradient><path class="st116" d="M138 159.9L138 165 139.1 166 144.2 166 145.1 164.9 145.1 159.8 144.2 159 138.8 159z"/><linearGradient id="SVGID_68_" gradientUnits="userSpaceOnUse" x1="-594.21" y1="53.014" x2="-588.703" y2="54.083" gradientTransform="matrix(1 0 0 -1 733 216)"><stop offset="0" stop-color="#0DBFD1"/><stop offset=".95" stop-color="#84E4F4"/></linearGradient><path class="st117" d="M139 160.6L139 164.2 139.8 165 143.4 165 144 164.2 144 160.5 143.4 160 139.6 160z"/><path class="st51" d="M146.4 162c-2.3.2-2.5 1.1-4.7 1.1-1 0-1.1-.8-.9-2 .3-2.5-1.1-3.8-2.5-5.3l-3.7 3.7v5.9l4.2 4.2h5.9l4.2-4.2V162c-.9 0-1.7-.1-2.5 0z"/><path class="st70" d="M154.1 165.6L153.2 162.6 150 159.2 151 162.6z"/><linearGradient id="SVGID_69_" gradientUnits="userSpaceOnUse" x1="-350.535" y1="247.937" x2="-344.555" y2="247.937" gradientTransform="matrix(.94 .33 .33 -.94 409.33 514.16)"><stop offset="0" stop-color="#048FB1"/><stop offset=".95" stop-color="#027CA1"/></linearGradient><path class="st118" d="M159.3 167.4L161.5 165.7 166.8 164.4 164.3 166.2z"/><path class="st72" d="M154.1 165.6L153.2 162.6 161.8 165.7 159.3 167.4z"/><linearGradient id="SVGID_70_" gradientUnits="userSpaceOnUse" x1="-356.115" y1="244.507" x2="-350.535" y2="244.507" gradientTransform="matrix(.94 .33 .33 -.94 409.33 514.16)"><stop offset="0" stop-color="#048FB1"/><stop offset=".95" stop-color="#027CA1"/></linearGradient><path class="st119" d="M155.2 167.6L154.1 165.6 159.3 167.4 157 168.2z"/><path class="st74" d="M164.3 166.2l-5 1.2-2.4.7s2.9-.2 3-.2 4.4-1.7 4.4-1.7z"/><path class="st75" d="M155.2 167.6L154.1 165.6 151 162.6 153.3 165.8z"/><path class="st52" d="M161.5 161.6L156 159.8 153.1 156.5 157.4 155.9 162.8 157.7 165.6 160.4z"/><path class="st55" d="M161.5 161.6L156 159.8 153.1 156.5 156.2 159.4 161.5 161.2 165.6 160.4z"/><path class="st76" d="M161.8 160.1L156.9 158.4 154.7 156.5 157.6 155.9 162.6 157.6 164.5 159.7z"/><path class="st77" d="M162.6 157.6l-1.1-.4c-.8.9-2.3 1.1-3.4 1-.5 0-.9 0-1.4-.1l.2.2 4.8 1.7 2.8-.4-1.9-2z"/><path class="st58" d="M153.1 156.5L150 159.2 153.2 162.6 156 159.8z"/><path class="st78" d="M153.2 156.6c.1 1.9 0 3.8-.3 5.7l.3.3 2.9-2.8-2.9-3.2z"/><path class="st79" d="M161.5 161.6L161.8 165.7 166.8 164.4 165.6 160.4z"/><path class="st80" d="M165.7 160.8l-.1-.3-4.1 1.2.3 4.1.4-.1c.9-1.9 2-3.6 3.5-4.9z"/><path class="st81" d="M156 159.8L153.2 162.6 161.8 165.7 161.5 161.6z"/><path class="st60" d="M161.5 161.9c-.6 2.4-6 1.5-7.8.8-.1-.1-.2-.2-.2-.3l-.3.3 8.6 3.1-.3-3.9z"/><path class="st120" d="M165.7 160.8l-.1-.3-2.8-2.8-.2-.1-5-1.6-.3-.1-.4.1c-.2.9-.2 1.7-.3 2.6.1 1 .2 2 .2 3 0 .3-.3.6-.6.6-1.3 0-2.6-.3-3.9-.2-.6 0-1.1 0-1.7-.1l.3.9 2.2 3.1 1.9 1.8 1.8.6s2.9-.2 3-.2 4.4-1.8 4.4-1.8l2.5-1.9-1-3.6z"/><path class="st120" d="M157.3 155.9c-.5 3.6-.1 6.2 2.4 8.9.7.8 1.5 1.6 2.4 2.3l2.2-.9 2.5-1.9-1.1-3.6-.1-.3-2.8-2.8-.2-.1-5-1.6h-.3z"/><linearGradient id="SVGID_71_" gradientUnits="userSpaceOnUse" x1="-614.628" y1="67.417" x2="-602.908" y2="58.257" gradientTransform="matrix(1 0 0 -1 733 216)"><stop offset="0" stop-color="#47DAEA"/><stop offset=".58" stop-color="#06A0C9"/></linearGradient><path class="st121" d="M117.1 150.2L117.1 156.1 121.3 160.3 127.2 160.3 131.4 156.1 131.4 150.2 127.2 146 121.3 146z"/><linearGradient id="SVGID_72_" gradientUnits="userSpaceOnUse" x1="-611.72" y1="60.745" x2="-601.62" y2="60.745" gradientTransform="matrix(1 0 0 -1 733 216)"><stop offset="0" stop-color="#048FB1"/><stop offset=".95" stop-color="#027CA1"/></linearGradient><path class="st122" d="M121.3 160.3L127.2 160.3 131.4 156.1 131.4 150.2 127.6 150.5 121.7 154.2z"/><linearGradient id="SVGID_73_" gradientUnits="userSpaceOnUse" x1="-614.091" y1="68.099" x2="-611.681" y2="66.219" gradientTransform="matrix(1 0 0 -1 733 216)"><stop offset="0" stop-color="#38D0E1"/><stop offset=".58" stop-color="#059AC1"/></linearGradient><path class="st123" d="M120.6 150.6L121.4 149.7 121.3 146 117.1 150.2z"/><linearGradient id="SVGID_74_" gradientUnits="userSpaceOnUse" x1="-606.352" y1="67.559" x2="-601.912" y2="68.099" gradientTransform="matrix(1 0 0 -1 733 216)"><stop offset="0" stop-color="#0787A5"/><stop offset=".58" stop-color="#059AC1"/></linearGradient><path class="st124" d="M127.6 150.5L131.4 150.2 127.2 146 126.8 149.7z"/><linearGradient id="SVGID_75_" gradientUnits="userSpaceOnUse" x1="-615.9" y1="58.01" x2="-611.35" y2="58.01" gradientTransform="matrix(1 0 0 -1 733 216)"><stop offset="0" stop-color="#0787A5"/><stop offset=".95" stop-color="#037193"/></linearGradient><path class="st125" d="M121.3 160.3L121.7 156.7 120.6 155.7 117.1 156.1z"/><linearGradient id="SVGID_76_" gradientUnits="userSpaceOnUse" x1="-606.26" y1="58.045" x2="-601.62" y2="58.045" gradientTransform="matrix(1 0 0 -1 733 216)"><stop offset="0" stop-color="#006487"/><stop offset=".95" stop-color="#037193"/></linearGradient><path class="st126" d="M127.2 160.3L131.4 156.1 127.6 155.6 126.7 156.7z"/><linearGradient id="SVGID_77_" gradientUnits="userSpaceOnUse" x1="-610.077" y1="66.78" x2="-607.646" y2="58.845" gradientTransform="matrix(1 0 0 -1 733 216)"><stop offset="0" stop-color="#C7F7F9"/><stop offset=".95" stop-color="#84E4F4"/></linearGradient><path class="st127" d="M120.6 150.6L120.6 155.7 121.7 156.7 126.7 156.7 127.6 155.6 127.6 150.5 126.8 149.7 121.4 149.7z"/><linearGradient id="SVGID_78_" gradientUnits="userSpaceOnUse" x1="-611.63" y1="62.325" x2="-606.123" y2="63.394" gradientTransform="matrix(1 0 0 -1 733 216)"><stop offset="0" stop-color="#0DBFD1"/><stop offset=".95" stop-color="#84E4F4"/></linearGradient><path class="st128" d="M121.6 151.3L121.6 154.9 122.4 155.6 126 155.6 126.6 154.9 126.6 151.2 126 150.6 122.2 150.6z"/><path class="st120" d="M128.5 153c-1.4.1-2.8-.1-4.2-.4-2.4-.9-3-3.9-3.4-6.1l-3.8 3.8v5.9l4.2 4.2h5.9l4.2-4.2v-3c-1 0-1.9-.1-2.9-.2z"/><path class="st52" d="M166.3 154.1L161.6 156.1 157.7 155.6 160.2 152.7 164.8 150.7 168.3 150.9z"/><path class="st53" d="M161.3 154.5c-.2-.7-.6-1.3-.8-1.9l-.3.1-2.5 2.9 3.9.5c-.1-.5-.1-1.1-.3-1.6z"/><path class="st54" d="M164.8 150.7l-.3.1c.3.6.5 1.3.6 1.9 0 0 .1 0 .1.1.3.4.7.8 1 1.2l2-3.1-3.4-.2z"/><path class="st55" d="M166.3 154.1L161.6 156.1 157.7 155.6 161.5 155.8 166.2 153.9 168.3 150.9z"/><path class="st56" d="M165.6 153.1L161.4 154.9 158.7 154.6 160.4 152.6 164.6 150.8 167.3 151z"/><path class="st57" d="M164.7 150.8l-.1.1c.1.8-.1 1.7-.7 2.4-.4.5-.9.9-1.5 1.3l3.3-1.4 1.6-2.1-2.6-.3z"/><path class="st58" d="M157.7 155.6L157.2 159.2 161.3 159.6 161.6 156.1z"/><path class="st59" d="M166.3 154.1L168.8 156.6 171.4 152.9 168.3 150.9z"/><path class="st81" d="M161.6 156.1L161.3 159.6 168.8 156.6 166.3 154.1z"/><path class="st55" d="M161.4 156L161.3 159.6 161.8 156z"/><path class="st55" d="M166.3 153.9L168.9 156.7 166 154.2z"/><path class="st53" d="M161.3 159.6L162.6 162.8 159.3 162.2 157.2 159.2z"/><path class="st62" d="M161.3 159.6L162.6 162.8 161.1 160 157.2 159.2z"/><path transform="rotate(-21.85 165.7 159.695)" class="st60" d="M161.7 158H169.79999999999998V161.4H161.7z"/><path class="st129" d="M168.8 156.6L170.1 159.8 168.5 157.4 161.8 159.9 162.6 162.8 161.3 159.6z"/><path class="st65" d="M171.4 152.9L172 156.8 170.1 159.8 168.8 156.6z"/><path class="st66" d="M171.4 152.9L169.4 156.9 170.1 159.8 168.8 156.6z"/><path class="st58" d="M159.3 162.2L161.8 163.6 167.8 164.9 162.6 162.8z"/><path class="st66" d="M172 156.8L170.1 159.8 167.8 164.9 171.3 159.7z"/><path class="st130" d="M162.6 162.8L170.1 159.8 167.8 164.9z"/><path class="st131" d="M168.8 160.3c0 .6-.2 1.3-.4 1.9-.2.8-.5 1.7-.7 2.5l.1.2 2.3-5.1-1.3.5z"/><path class="st131" d="M162.6 162.8L166.3 161.2 163.8 162.7 165.3 163.9z"/><path class="st51" d="M162.7 163.8l5.1 1.1 3.5-5.2.7-2.9-.2-1.5c-1 4.6-4.3 8.5-9.1 8.5z"/><path class="st52" d="M135.6 158.6L130.7 157 128.1 154.1 131.9 153.5 136.7 155.1 139.2 157.6z"/><path class="st53" d="M131.6 155.7c0-.1 0-.1 0 0 .3-.7.3-1.4.6-2l-.3-.1-3.8.6 2.6 2.9c.3-.5.6-1 .9-1.4z"/><path class="st54" d="M136.7 155.1l-.3-.1c-.2.7-.5 1.3-.8 1.9v.1c-.1.5 0 1.1 0 1.6l3.5-1.1-2.4-2.4z"/><path class="st55" d="M135.6 158.6L130.7 157 128.1 154.1 130.8 156.8 135.6 158.4 139.2 157.6z"/><path class="st56" d="M135.7 157.4L131.3 156 129.5 154.1 132.1 153.6 136.5 155.1 138.3 157z"/><path class="st57" d="M136.5 155.1l-.1-.1c-.5.7-1.2 1.2-2.1 1.3-.7.1-1.3.1-2 0l3.4 1.1 2.6-.5-1.8-1.8z"/><path class="st58" d="M128.1 154.1L125.3 156.5 128.2 159.5 130.7 157z"/><path class="st59" d="M135.6 158.6L135.8 162.2 140.2 161.1 139.2 157.6z"/><path class="st60" d="M130.7 157L128.2 159.5 135.8 162.2 135.6 158.6z"/><path class="st55" d="M130.6 156.9L128.2 159.5 130.9 157.1z"/><path class="st55" d="M135.7 158.5L135.8 162.2 135.3 158.5z"/><path class="st61" d="M128.2 159.5L127.1 162.7 125 160.2 125.3 156.5z"/><path class="st62" d="M128.2 159.5L127.1 162.7 127.8 159.6 125.3 156.5z"/><path transform="rotate(-70.73 131.453 162.466)" class="st63" d="M129.8 158.4H133.20000000000002V166.5H129.8z"/><path class="st64" d="M135.8 162.2L134.7 165.4 135.1 162.6 128.4 160.1 127.1 162.7 128.2 159.5z"/><path class="st65" d="M140.2 161.1L138.1 164.4 134.7 165.4 135.8 162.2z"/><path class="st66" d="M140.2 161.1L136.1 162.7 134.7 165.4 135.8 162.2z"/><path class="st67" d="M125 160.2L125.9 162.9 129.6 167.8 127.1 162.7z"/><path class="st66" d="M138.1 164.4L134.7 165.4 129.6 167.8 135.7 166.2z"/><path class="st68" d="M127.1 162.7L134.7 165.4 129.6 167.8z"/><path class="st69" d="M133.4 164.9l-1.5 1.2c-.7.5-1.4.9-2.2 1.4l-.1.2v.1l5.1-2.4-1.3-.5z"/><path class="st69" d="M127.1 162.7L130.9 164.1 128 163.5 128.4 165.4z"/><path class="st51" d="M132.5 163.7c-2.7-1-5.2-2.5-7.5-4.4l-.1.9.9 2.6 3.7 4.9 6-1.6 1.6-1.1c-1.6-.2-3.2-.6-4.6-1.2v-.1z"/><path class="st52" d="M115.4 146.6L110.7 148.6 106.8 148.1 109.2 145.2 113.9 143.2 117.4 143.4z"/><path class="st53" d="M110.4 147c-.2-.7-.7-1.3-.8-1.9l-.3.1-2.5 2.9 3.9.5c0-.5-.1-1.1-.3-1.6z"/><path class="st54" d="M113.9 143.2l-.3.1c.3.6.5 1.3.6 2 0 0 .1 0 .1.1.3.4.7.8 1 1.2l2-3.1-3.4-.3z"/><path class="st55" d="M115.4 146.6L110.7 148.6 106.8 148.1 110.6 148.4 115.3 146.4 117.4 143.4z"/><path class="st56" d="M114.7 145.6L110.4 147.4 107.8 147.1 109.5 145.1 113.8 143.3 116.4 143.6z"/><path class="st57" d="M113.8 143.3h-.1c.1.9-.1 1.7-.7 2.4-.4.5-.9 1-1.5 1.3l3.3-1.4 1.7-2.1-2.7-.2z"/><path class="st58" d="M106.8 148.1L106.3 151.8 110.4 152.1 110.7 148.6z"/><path class="st59" d="M115.4 146.6L117.9 149.1 120.5 145.4 117.4 143.4z"/><path class="st60" d="M110.7 148.6L110.4 152.1 117.9 149.1 115.4 146.6z"/><path class="st55" d="M110.5 148.5L110.4 152.1 110.9 148.5z"/><path class="st55" d="M115.4 146.4L118 149.2 115.1 146.7z"/><path class="st61" d="M110.4 152.1L111.7 155.3 108.4 154.8 106.3 151.8z"/><path class="st62" d="M110.4 152.1L111.7 155.3 110.2 152.5 106.3 151.8z"/><path transform="rotate(-21.789 114.822 152.205)" class="st63" d="M110.8 150.5H118.89999999999999V153.9H110.8z"/><path class="st64" d="M117.9 149.1L119.2 152.3 117.6 149.9 110.9 152.4 111.7 155.3 110.4 152.1z"/><path class="st65" d="M120.5 145.4L121.1 149.3 119.2 152.3 117.9 149.1z"/><path class="st66" d="M120.5 145.4L118.5 149.4 119.2 152.3 117.9 149.1z"/><path class="st67" d="M108.4 154.8L110.9 156.1 116.9 157.4 111.7 155.3z"/><path class="st66" d="M121.1 149.3L119.2 152.3 116.9 157.4 120.4 152.2z"/><path class="st68" d="M111.7 155.3L119.2 152.3 116.9 157.4z"/><path class="st69" d="M117.9 152.8c0 .6-.2 1.3-.4 1.9-.2.8-.5 1.7-.7 2.5l.1.2 2.3-5.1-1.3.5z"/><path class="st69" d="M111.7 155.3L115.4 153.8 112.9 155.2 114.4 156.4z"/><path class="st51" d="M115 153.4c-2.1-.2-4-1.1-5.5-2.5l-.5-.4c-.8-.5-1.6-1.1-2.3-1.7l-.4 2.8 2.1 3 2.4 1.4 6 1.3 2.7-4c-1.4.5-3 .5-4.5.1z"/><path class="st70" d="M146.8 172.8L145 170.2 140.8 168.1 142.9 171z"/><linearGradient id="SVGID_79_" gradientUnits="userSpaceOnUse" x1="-580.63" y1="45.94" x2="-574.65" y2="45.94" gradientTransform="matrix(1 0 0 -1 733 216)"><stop offset="0" stop-color="#048FB1"/><stop offset=".95" stop-color="#027CA1"/></linearGradient><path class="st132" d="M152.4 172.8L153.8 170.4 158.4 167.4 156.6 169.9z"/><path class="st72" d="M146.8 172.8L145 170.2 154.1 170.2 152.4 172.8z"/><linearGradient id="SVGID_80_" gradientUnits="userSpaceOnUse" x1="-586.21" y1="42.51" x2="-580.63" y2="42.51" gradientTransform="matrix(1 0 0 -1 733 216)"><stop offset="0" stop-color="#048FB1"/><stop offset=".95" stop-color="#027CA1"/></linearGradient><path class="st133" d="M148.5 174.2L146.8 172.8 152.4 172.8 150.4 174.2z"/><path class="st74" d="M156.7 169.9l-4.3 2.8-2 1.5 2.7-1.2c.1 0 3.6-3.1 3.6-3.1z"/><path class="st75" d="M148.5 174.2L146.8 172.8 142.9 171 146.1 173.2z"/><path class="st52" d="M152.5 166.5L146.7 166.6 142.9 164.5 146.7 162.5 152.4 162.4 155.9 164.1z"/><path class="st55" d="M152.5 166.5L146.7 166.6 142.9 164.5 146.8 166.2 152.4 166.1 155.9 164.1z"/><path class="st76" d="M152.2 165L147.1 165 144.4 163.9 146.9 162.5 152.2 162.4 154.7 163.7z"/><path class="st77" d="M152.2 162.4H151c-.4 1.1-1.8 1.8-2.9 2.1-.4.2-.9.3-1.4.4l.3.1h5.1l2.5-1.3-2.4-1.3z"/><path class="st58" d="M142.9 164.5L140.8 168.1 145 170.2 146.7 166.6z"/><path class="st78" d="M142.9 164.5c.8 1.8 1.3 3.6 1.6 5.5l.4.2 1.8-3.6-3.8-2.1z"/><path class="st79" d="M152.5 166.5L154.1 170.2 158.4 167.4 155.9 164.1z"/><path class="st80" d="M156.1 164.3l-.2-.3-3.4 2.5 1.6 3.7.4-.2c.2-2 .7-3.9 1.6-5.7z"/><path class="st81" d="M146.7 166.6L145 170.2 154.1 170.2 152.5 166.5z"/><path class="st60" d="M152.6 166.8c.3 2.5-5.2 3.4-7.1 3.3-.1 0-.3-.1-.3-.2l-.2.4h9.1l-1.5-3.5z"/><path class="st51" d="M157.3 165.9c-.2.9-.6 1.8-1.2 2.5-1.6 1.8-4.1 2.6-6.2 3.5-2.9 1.3-6.9-1.2-8.8-3.5l-.1-.1 1.9 2.6 3.2 2.2 2.4 1h1.9l2.7-1.2c.1 0 3.5-3.1 3.5-3.1l1.7-2.6-1-1.3z"/><path class="st134" d="M171.9 201.8L174.2 200.3 174.9 195.7 171.9 196.7z"/><path class="st135" d="M169 200.3L171.9 201.8 171.9 196.7 168.6 197.6z"/><path class="st134" d="M152.1 213.4L154.5 211.9 155.2 207.3 152.1 208.3z"/><path class="st135" d="M149.2 211.9L152.1 213.4 152.1 208.3 148.9 209.3z"/><linearGradient id="SVGID_81_" gradientUnits="userSpaceOnUse" x1="-640.79" y1="50.58" x2="-584.68" y2="50.58" gradientTransform="matrix(1 0 0 -1 733 216)"><stop offset="0" stop-color="#FFF654"/><stop offset=".65" stop-color="#FFD947"/></linearGradient><path class="st136" d="M92.2 149.2L148.3 181.6 148.3 174 105.2 149.2z"/><path class="st24" d="M107.5 150.5l-2.2-1.3h-13l6 3.5c2.8-1.6 6-2.3 9.2-2.2z"/><path class="st137" d="M126.8 166.5c.7-1.3 1.6-2.4 2.8-3.4l-13.3-7.7c-3.5.7-7 1.2-10.6 1.5l20.4 11.8c.1-.7.3-1.5.7-2.2z"/><path class="st24" d="M144.6 171.9c.2 2.4 0 4.9-.8 7.2l4.5 2.6V174l-3.7-2.1z"/><path class="st138" d="M92.2 149.2L105.2 149.9 148.3 175 148.3 174 105.2 149.2z"/><path class="st24" d="M148.3 181.6L148.3 174 146.9 179.3 92.2 149.2z"/><linearGradient id="SVGID_82_" gradientUnits="userSpaceOnUse" x1="-584.68" y1="44.995" x2="-548.66" y2="44.995" gradientTransform="matrix(1 0 0 -1 733 216)"><stop offset="0" stop-color="#FFF654"/><stop offset=".65" stop-color="#FFD947"/></linearGradient><path class="st139" d="M184.3 160.7L172.3 160.4 148.3 174 148.3 181.6z"/><path class="st24" d="M182.8 160.6l-10.5-.3-3.1 1.8c4.5-.7 9.1-1.1 13.6-1.5z"/><g class="st140"><path class="st24" d="M161.9 166.3l-9.1 5.2c1.3 1.7 2.4 3.7 3.1 5.7l15.2-8.8c-3.1-.9-6.1-1.6-9.2-2.1z"/></g><path class="st141" d="M172.3 160.4L148.3 174 148.3 181.6 184.3 160.7 150.2 178.8 150.2 174z"/><path class="st5" d="M177.3 194.5L183.5 166.5 148.3 181.6 148.2 211.4z"/><g class="st142"><path class="st35" d="M160.3 202.8c-3.4 2.3-7.8 6.1-12 6.1v2.5l29.1-16.9 6.2-28-2.9 1.3c.5 9.3-2.8 18.3-9.1 25.1-3.5 3.7-7.3 7-11.3 9.9z"/></g><g class="st143"><path class="st35" d="M151.2 209.6v-.3c.9-4.6 1.1-9.4 3-13.8 1.9-3.9 4.7-7.3 8.2-9.9 5.7-4.6 12.1-8.2 19.1-10.5l1.9-8.7-35.2 15.2-.1 29.8 3.1-1.8z"/></g><linearGradient id="SVGID_83_" gradientUnits="userSpaceOnUse" x1="-584.71" y1="40.335" x2="-548.66" y2="40.335" gradientTransform="matrix(1 0 0 -1 733 216)"><stop offset="0" stop-color="#CE7B02"/><stop offset=".65" stop-color="#E69900"/></linearGradient><path class="st144" d="M184.3 169.4L184.3 160.7 148.3 181.6 148.3 190.6z"/><g class="st145"><path class="st146" d="M153.6 178.5l-5.3 3.1v9l6.7-4c-.6-2.6-1.1-5.3-1.4-8.1zm20.7-12c-.6 3.6-1.5 7.1-2.8 10.5l12.9-7.6v-8.8l-10.1 5.9z"/></g><g class="st142"><path class="st35" d="M168.7 172.5c5-2.4 10.3-4.4 15.6-6v-5.8l-27.2 15.8c0 .1.1.2.1.2 3.9-1.6 7.7-3 11.5-4.2zm-17.6 7.5l-2.8 1.6v9l.8-.5c.5-3.4 1.1-6.8 2-10.1z"/></g><linearGradient id="SVGID_84_" gradientUnits="userSpaceOnUse" x1="-584.71" y1="40.335" x2="-548.66" y2="40.335" gradientTransform="matrix(1 0 0 -1 733 216)"><stop offset="0" stop-color="#FFF654"/><stop offset=".65" stop-color="#FFD947"/></linearGradient><path class="st147" d="M184.3 169.4L184.3 160.7 183.5 169 148.3 190.6z"/><path class="st6" d="M99.8 183.4L148.2 211.4 148.3 181.6 93.1 154.9z"/><path class="st148" d="M93.1 154.9l6.8 28.6 48.4 27.9v-8.5c-3.9-.2-7.8-.8-11.6-1.9-5.8-1.6-21.4-10.3-22-10.6-5-2.3-11.2-5.5-14-10.5-3.2-5.9-5.5-16.1-1-21.8l-6.6-3.2z"/><path class="st148" d="M95.1 163.6c8.9 2.9 23.1 12.8 26.2 15.2 7.9 6.3 12.9 11.8 17.2 18.6 2 3.2 3 6.1 5.3 11.5l4.3 2.5.1-29.8L93 154.8l2.1 8.8z"/><linearGradient id="SVGID_85_" gradientUnits="userSpaceOnUse" x1="-640.82" y1="46.07" x2="-584.68" y2="46.07" gradientTransform="matrix(1 0 0 -1 733 216)"><stop offset="0" stop-color="#FFD612"/><stop offset=".65" stop-color="#FFAA00"/></linearGradient><path class="st149" d="M92.2 158.3L148.3 190.6 148.3 181.6 92.2 149.2z"/><g class="st150"><linearGradient id="SVGID_86_" gradientUnits="userSpaceOnUse" x1="-640.81" y1="34.585" x2="-584.68" y2="34.585" gradientTransform="matrix(1 0 0 -1 733 216)"><stop offset="0" stop-color="#FFF654"/><stop offset=".65" stop-color="#FFD947"/></linearGradient><path class="st151" d="M143.4 186.8c-1.1-3.4-2.4-6.6-3.4-10l-3.3-1.9c-.7 2.6-2.1 4.9-4 6.7l11 6.4-.3-1.2z"/></g><g class="st152"><linearGradient id="SVGID_87_" gradientUnits="userSpaceOnUse" x1="-640.82" y1="55.73" x2="-584.67" y2="55.73" gradientTransform="matrix(1 0 0 -1 733 216)"><stop offset="0" stop-color="#FFF654"/><stop offset=".65" stop-color="#FFD947"/></linearGradient><path class="st153" d="M98.1 161.7l10 5.8c-2.8-3.8-4.9-8.1-5.4-12.2l-3.7-2.2c-.4 2.9-.7 5.7-.9 8.6z"/></g><linearGradient id="SVGID_88_" gradientUnits="userSpaceOnUse" x1="-640.81" y1="42.99" x2="-584.69" y2="42.99" gradientTransform="matrix(1 0 0 -1 733 216)"><stop offset="0" stop-color="#FFF654"/><stop offset=".65" stop-color="#FFD947"/></linearGradient><path class="st154" d="M115.1 170.1c-6.3-3.5-19.4-9.8-22.9-14.7v2.9l56.1 32.4v-4.8c-4.6-1.4-22.9-10-33.2-15.8z"/><linearGradient id="SVGID_89_" gradientUnits="userSpaceOnUse" x1="-640.82" y1="41.735" x2="-584.71" y2="41.735" gradientTransform="matrix(1 0 0 -1 733 216)"><stop offset="0" stop-color="#FFF654"/><stop offset=".65" stop-color="#FFD947"/></linearGradient><path class="st155" d="M92.2 158.3L148.3 190.6 148.2 189.9 92.2 157.9z"/><linearGradient id="SVGID_90_" gradientUnits="userSpaceOnUse" x1="-640.82" y1="46.07" x2="-584.68" y2="46.07" gradientTransform="matrix(1 0 0 -1 733 216)"><stop offset="0" stop-color="#F59D0F"/><stop offset=".65" stop-color="#F57F00"/></linearGradient><path class="st156" d="M146.9 181.9L148.3 190.6 148.3 181.6 92.2 149.2 92.2 158.3 92.9 150.1z"/><path class="st8" d="M95.1 163.3L95.3 164.3 117.6 178.1 148.3 195.6 148.2 194.7 115.8 175.7z"/><path class="st8" d="M97.6 174L136.3 196.9 148.3 202.5 148.2 201.8 97.4 173.3z"/><path class="st9" d="M181.4 176.1L181.6 175.3 148.2 194.7 148.3 195.6z"/><path class="st9" d="M156.3 197.9L179.7 183.8 179.8 183.1 148.2 201.8 148.3 202.5z"/><linearGradient id="SVGID_91_" gradientUnits="userSpaceOnUse" x1="-627.63" y1="27.63" x2="-624.96" y2="27.63" gradientTransform="matrix(1 0 0 -1 733 216)"><stop offset="0" stop-color="#B5601A"/><stop offset=".65" stop-color="#E27E00"/></linearGradient><path class="st157" d="M105.5 189.4L108 188.1 106.5 187.3 105.4 187.8z"/><linearGradient id="SVGID_92_" gradientUnits="userSpaceOnUse" x1="-628.994" y1="29.173" x2="-630.024" y2="27.753" gradientTransform="matrix(1 0 0 -1 733 216)"><stop offset="0" stop-color="#FFD612"/><stop offset=".65" stop-color="#FFAA00"/></linearGradient><path class="st158" d="M101.7 187.3L105.5 189.4 105.4 187.8 101.6 185.6z"/><linearGradient id="SVGID_93_" gradientUnits="userSpaceOnUse" x1="-632.93" y1="35.33" x2="-627.63" y2="35.33" gradientTransform="matrix(1 0 0 -1 733 216)"><stop offset="0" stop-color="#F9AA0B"/><stop offset=".65" stop-color="#FFAA00"/></linearGradient><path class="st159" d="M101.7 185.6L105.4 187.8 104.3 175.9 100.1 173.5z"/><linearGradient id="SVGID_94_" gradientUnits="userSpaceOnUse" x1="-632.93" y1="32.58" x2="-627.63" y2="32.58" gradientTransform="matrix(1 0 0 -1 733 216)"><stop offset="0" stop-color="#FFF654"/><stop offset=".65" stop-color="#FFD947"/></linearGradient><path class="st160" d="M100.8 179l.9 6.7 3.7 2.2-.4-3.9c-1.6-1.4-3-3.1-4.2-5z"/><linearGradient id="SVGID_95_" gradientUnits="userSpaceOnUse" x1="-628.73" y1="34.43" x2="-626.46" y2="34.43" gradientTransform="matrix(1 0 0 -1 733 216)"><stop offset="0" stop-color="#B5601A"/><stop offset=".65" stop-color="#E27E00"/></linearGradient><path class="st161" d="M105.4 187.8L106.5 187.3 105.7 175.3 104.3 175.9z"/><linearGradient id="SVGID_96_" gradientUnits="userSpaceOnUse" x1="-632.93" y1="41.555" x2="-627.31" y2="41.555" gradientTransform="matrix(1 0 0 -1 733 216)"><stop offset="0" stop-color="#FFF654"/><stop offset=".65" stop-color="#FFD947"/></linearGradient><path class="st162" d="M104.3 175.9L105.7 175.3 101.5 173 100.1 173.5z"/><path class="st8" d="M101.6 175.3c-.8.3-1.2 1.5-.8 2.8s1.4 2 2.3 1.8 1.2-1.5.8-2.8-1.4-2-2.3-1.8z"/><radialGradient id="SVGID_97_" cx="-630.789" cy="38.35" r="1.799" gradientTransform="matrix(1 0 0 -1 733 216)" gradientUnits="userSpaceOnUse"><stop offset="0" stop-color="#FCFCE6"/><stop offset=".27" stop-color="#FFF654"/><stop offset=".7" stop-color="#FFD947"/></radialGradient><path class="st163" d="M101.5 175.6c-.7.2-1 1.3-.6 2.5s1.2 1.9 1.9 1.6 1-1.3.6-2.5-1.2-1.8-1.9-1.6z"/><path class="st8" d="M94.7 153.3c-.8.3-1.2 1.5-.8 2.8s1.4 2 2.3 1.8 1.2-1.5.8-2.8-1.5-2.1-2.3-1.8z"/><radialGradient id="SVGID_98_" cx="-637.78" cy="60.37" r="1.8" gradientTransform="matrix(1 0 0 -1 -7.06 216)" gradientUnits="userSpaceOnUse"><stop offset="0" stop-color="#FCFCE6"/><stop offset=".27" stop-color="#FFF654"/><stop offset=".7" stop-color="#FFD947"/></radialGradient><path class="st164" d="M94.5 153.6c-.7.2-.9 1.3-.6 2.5s1.2 1.9 1.9 1.6 1-1.3.6-2.5-1.2-1.8-1.9-1.6z"/><path class="st8" d="M107.5 160.8c-.8.3-1.2 1.5-.8 2.8s1.4 2 2.3 1.8 1.2-1.5.8-2.8-1.5-2.1-2.3-1.8z"/><radialGradient id="SVGID_99_" cx="-624.93" cy="52.93" r="1.8" gradientTransform="matrix(1 0 0 -1 -7.06 216)" gradientUnits="userSpaceOnUse"><stop offset="0" stop-color="#FCFCE6"/><stop offset=".27" stop-color="#FFF654"/><stop offset=".7" stop-color="#FFD947"/></radialGradient><path class="st165" d="M107.4 161c-.7.2-1 1.3-.6 2.5s1.2 1.9 1.9 1.6 1-1.3.6-2.5-1.2-1.8-1.9-1.6z"/><path class="st8" d="M131.6 174.7c-.8.3-1.2 1.5-.8 2.8s1.4 2 2.3 1.8 1.2-1.5.8-2.8-1.5-2.1-2.3-1.8z"/><radialGradient id="SVGID_100_" cx="-600.83" cy="38.98" r="1.8" gradientTransform="matrix(1 0 0 -1 -7.06 216)" gradientUnits="userSpaceOnUse"><stop offset="0" stop-color="#FCFCE6"/><stop offset=".27" stop-color="#FFF654"/><stop offset=".7" stop-color="#FFD947"/></radialGradient><path class="st166" d="M131.5 175c-.7.2-1 1.3-.6 2.5s1.2 1.9 1.9 1.6 1-1.3.6-2.5-1.2-1.9-1.9-1.6z"/><path class="st8" d="M144.4 182.1c-.8.3-1.2 1.5-.8 2.8s1.4 2 2.3 1.8 1.2-1.5.8-2.8-1.4-2-2.3-1.8z"/><radialGradient id="SVGID_101_" cx="-587.98" cy="31.548" r="1.8" gradientTransform="matrix(1 0 0 -1 -7.06 216)" gradientUnits="userSpaceOnUse"><stop offset="0" stop-color="#FCFCE6"/><stop offset=".27" stop-color="#FFF654"/><stop offset=".7" stop-color="#FFD947"/></radialGradient><path class="st167" d="M144.3 182.4c-.7.2-.9 1.3-.6 2.5s1.2 1.9 1.9 1.6 1-1.3.6-2.5-1.2-1.8-1.9-1.6z"/><path class="st8" d="M150.4 183.9c-.4 1.2-.1 2.5.8 2.8s1.9-.5 2.3-1.8.1-2.5-.8-2.8-1.9.5-2.3 1.8z"/><radialGradient id="SVGID_102_" cx="-580.92" cy="31.55" r="1.8" gradientTransform="matrix(1 0 0 -1 -7.06 216)" gradientUnits="userSpaceOnUse"><stop offset="0" stop-color="#FCFCE6"/><stop offset=".27" stop-color="#FFF654"/><stop offset=".7" stop-color="#FFD947"/></radialGradient><path class="st168" d="M150.8 184c-.4 1.1-.1 2.2.6 2.5s1.6-.5 1.9-1.6.1-2.2-.6-2.5-1.5.5-1.9 1.6z"/><path class="st8" d="M168.7 175.4c.4-1.2.1-2.5-.8-2.8s-1.9.5-2.3 1.8-.1 2.5.8 2.8 1.9-.5 2.3-1.8z"/><radialGradient id="SVGID_103_" cx="-565.68" cy="41.02" r="1.8" gradientTransform="matrix(1 0 0 -1 -7.06 216)" gradientUnits="userSpaceOnUse"><stop offset="0" stop-color="#FCFCE6"/><stop offset=".27" stop-color="#FFF654"/><stop offset=".7" stop-color="#FFD947"/></radialGradient><path class="st169" d="M168.6 175.4c.4-1.1.1-2.2-.6-2.5s-1.6.5-1.9 1.6-.1 2.2.6 2.5 1.5-.5 1.9-1.6z"/><path class="st8" d="M182.6 167.4c.4-1.2.1-2.5-.8-2.8s-1.9.5-2.3 1.8-.1 2.5.8 2.8 1.8-.6 2.3-1.8z"/><radialGradient id="SVGID_104_" cx="-551.8" cy="49.08" r="1.8" gradientTransform="matrix(1 0 0 -1 -7.06 216)" gradientUnits="userSpaceOnUse"><stop offset="0" stop-color="#FCFCE6"/><stop offset=".27" stop-color="#FFF654"/><stop offset=".7" stop-color="#FFD947"/></radialGradient><path class="st170" d="M182.5 167.3c.4-1.1.1-2.2-.6-2.5s-1.6.5-1.9 1.6-.1 2.2.6 2.5 1.5-.4 1.9-1.6z"/><path class="st171" d="M119.7 174.7c5.3 2.8 6.9.4 6.9.4v-4.8l-11.7-6.8-.1 5.2s-.1 3.4 4.9 6z"/><linearGradient id="SVGID_105_" gradientUnits="userSpaceOnUse" x1="-619.38" y1="45.775" x2="-607.6" y2="45.775" gradientTransform="matrix(1 0 0 -1 733 216)"><stop offset="0" stop-color="#FFDD12"/><stop offset=".65" stop-color="#FFB000"/></linearGradient><path class="st172" d="M119.1 174.4c5.3 2.8 6.4 1.4 6.4 1.4V171l-11.7-6.8-.1 5.2c-.1 0 .4 2.4 5.4 5z"/><path class="st173" d="M122.3 169.3c1.3 2.1 2.2 4.4 2.6 6.8.2 0 .3-.1.4-.2V171l-3-1.7z"/><path class="st174" d="M118.7 170.3c-.7-1.8-1.7-3.5-3-4.9l-1.9-1.1-.1 5.2s.4 2.3 5.4 5l.2.1c0-1.5-.2-2.9-.6-4.3z"/><path class="st173" d="M119 170.1c-.6-1.9-1.7-3.5-3.4-4.7l-1.3-.8c1.4 1.5 2.4 3.4 3 5.3.2 1.2.3 2.4.1 3.5.5.3 1 .6 1.6.9l.2.1c.4-1.4.3-2.9-.2-4.3z"/><path class="st30" d="M119.9 168.4c1.6 1 4 1.7 5 3 .2.4.3.7.5 1.1V171l-11.7-6.8-.1 5.2c.1.4.3.8.6 1.1-.3-1.4-.4-4 .2-5 .5-.7 3.9 1.9 5.5 2.9z"/><linearGradient id="SVGID_106_" gradientUnits="userSpaceOnUse" x1="-619.27" y1="48.715" x2="-606.41" y2="48.715" gradientTransform="matrix(1 0 0 -1 733 216)"><stop offset="0" stop-color="#F59D0F"/><stop offset=".65" stop-color="#F57F00"/></linearGradient><path class="st175" d="M125.4 171L126.6 170.3 114.9 163.5 113.7 164.3z"/><linearGradient id="SVGID_107_" gradientUnits="userSpaceOnUse" x1="-620.968" y1="45.025" x2="-608.762" y2="45.025" gradientTransform="matrix(1 0 0 -1 733 216)"><stop offset="0" stop-color="#FFF654"/><stop offset=".65" stop-color="#FFD947"/></linearGradient><path class="st176" d="M115.7 169.3c.5-.3 1.4-.5 1.2-1.1-.4-.7-1.3-1.1-2.1-.9-1.3.2-2.4 1.1-2.8 2.3-.3 1.4 1.4 2.8 2.3 3.3 2.1 1.5 4.8 2.1 7.4 1.6 1.1-.3 2.6-1 2.5-2s-2.1-1.5-3.1-1c-1.2.6-2.5.7-3.8.2-.9-.2-3-1.4-1.6-2.4z"/><path class="st177" d="M116.6 173.3c-1.7-.7-3.7-1.9-4-3.3s1.6-2.3 3-2.7h-.7c-1.3.2-2.4 1.1-2.8 2.3-.3 1.4 1.4 2.8 2.3 3.3 2.1 1.5 4.8 2.1 7.4 1.6 1-.2 2.3-.8 2.5-1.6-.2-.6-.7-.4-.8-.3-1.6 1.4-5.8 1.1-6.9.7z"/><path class="st177" d="M119 174.1c-2.8-.1-5.4-1.4-6.9-3.7.4 1.1 1.2 2 2.3 2.6 2.1 1.5 4.8 2.1 7.4 1.6 1.1-.3 2.6-1 2.5-2-.1-.6-1-1.1-1.9-1.2.1.1.1.2.3.3 1.5.7.7 2.6-3.7 2.4z"/><path class="st177" d="M115.2 169.1c-1.8 1.3 1.6 3.2 2.6 3.4 1 .3 2 .2 3-.2.8-.4 1.7-.6 2.6-.6-.7-.3-1.5-.4-2.2-.1-1.2.6-2.5.7-3.8.2-1-.4-3.1-1.6-1.7-2.5.5-.3 1.4-.5 1.2-1.1-.1-.3-.4-.5-.7-.7v.1c.5.6-.4 1-1 1.5z"/><path class="st30" d="M114.5 168.7c.2-.2 1.5-1.2.6-1.1-1.3.2-2.9 1.8-2.1 3.1.5.6 1 1.1 1.7 1.5.6.5 1.4.8 2.2.8-.5-.5-1-.9-1.6-1.2-.5-.4-.9-.8-1.3-1.3-.4-.8-.1-1.3.5-1.8z"/><path class="st171" d="M117.4 173.9c-3.6-.7-5.1-3-5.3-3.6.4 1.1 1.2 2 2.3 2.6 2.1 1.5 4.8 2.1 7.4 1.6 1.1-.3 2.6-1 2.5-2-.1-.6-1-1.1-1.9-1.2 0 0 1.9.4 1.3 1.5-.8 1.4-3.6 1.7-6.3 1.1z"/><linearGradient id="SVGID_108_" gradientUnits="userSpaceOnUse" x1="-592.94" y1="12.545" x2="-588.72" y2="12.545" gradientTransform="matrix(1 0 0 -1 733 216)"><stop offset="0" stop-color="#F9AA0B"/><stop offset=".65" stop-color="#FFAA00"/></linearGradient><path class="st178" d="M140.6 208.1L144.3 210.3 143.8 198.6 140.1 196.6z"/><linearGradient id="SVGID_109_" gradientUnits="userSpaceOnUse" x1="-592.94" y1="9.425" x2="-588.72" y2="9.425" gradientTransform="matrix(1 0 0 -1 733 216)"><stop offset="0" stop-color="#FFF654"/><stop offset=".65" stop-color="#FFD947"/></linearGradient><path class="st179" d="M140.3 202.9l.2 5.3 3.7 2.2-.1-2.6c-1.3-1.7-2.6-3.3-3.8-4.9z"/><linearGradient id="SVGID_110_" gradientUnits="userSpaceOnUse" x1="-589.25" y1="11.78" x2="-587.55" y2="11.78" gradientTransform="matrix(1 0 0 -1 733 216)"><stop offset="0" stop-color="#B5601A"/><stop offset=".65" stop-color="#E27E00"/></linearGradient><path class="st180" d="M144.3 210.3L145.4 209.8 145 198.1 143.8 198.6z"/><linearGradient id="SVGID_111_" gradientUnits="userSpaceOnUse" x1="-592.94" y1="18.625" x2="-587.98" y2="18.625" gradientTransform="matrix(1 0 0 -1 733 216)"><stop offset="0" stop-color="#FFF654"/><stop offset=".65" stop-color="#FFD947"/></linearGradient><path class="st181" d="M140.1 196.6L143.7 198.6 145 198.1 141.5 196.1z"/><path class="st8" d="M141.2 198.2c-.8.3-1.2 1.5-.8 2.8s1.4 2 2.3 1.8 1.2-1.5.8-2.8-1.4-2-2.3-1.8z"/><radialGradient id="SVGID_112_" cx="-591.17" cy="15.421" r="1.8" gradientTransform="matrix(1 0 0 -1 -7.06 216)" gradientUnits="userSpaceOnUse"><stop offset="0" stop-color="#FCFCE6"/><stop offset=".27" stop-color="#FFF654"/><stop offset=".7" stop-color="#FFD947"/></radialGradient><path class="st182" d="M141.2 198.5c-.7.2-1 1.3-.6 2.5s1.2 1.9 1.9 1.6 1-1.3.6-2.5-1.2-1.8-1.9-1.6z"/><linearGradient id="SVGID_113_" gradientUnits="userSpaceOnUse" x1="-588.75" y1="5.155" x2="-586.07" y2="5.155" gradientTransform="matrix(1 0 0 -1 733 216)"><stop offset="0" stop-color="#B5601A"/><stop offset=".65" stop-color="#E27E00"/></linearGradient><path class="st183" d="M144.4 211.9L146.9 210.6 145.4 209.8 144.2 210.3z"/><linearGradient id="SVGID_114_" gradientUnits="userSpaceOnUse" x1="-590.112" y1="6.702" x2="-591.142" y2="5.282" gradientTransform="matrix(1 0 0 -1 733 216)"><stop offset="0" stop-color="#FFD612"/><stop offset=".65" stop-color="#FFAA00"/></linearGradient><path class="st184" d="M140.5 209.8L144.4 211.9 144.2 210.3 140.4 208z"/><path class="st185" d="M123.8 139.8c.4 2-1 3.9-3 4.3-2 .4-3.9-1-4.3-3-.4-2 1-3.9 3-4.3 2-.4 3.9 1 4.3 3z"/><path class="st186" d="M123.6 139.8c.3 1.9-.9 3.7-2.8 4.1s-3.7-.9-4.1-2.8c-.3-1.9.9-3.7 2.8-4.1 1.9-.4 3.7.9 4.1 2.8z"/><path class="st187" d="M123.4 139.8c.3 1.8-.9 3.5-2.7 3.9-1.8.3-3.5-.9-3.9-2.7-.3-1.8.9-3.5 2.7-3.9 1.8-.3 3.6.9 3.9 2.7z"/><path class="st188" d="M123.2 139.9c.3 1.7-.8 3.3-2.5 3.6-1.7.3-3.3-.8-3.6-2.5-.3-1.7.8-3.3 2.5-3.6 1.7-.4 3.3.8 3.6 2.5z"/><path class="st189" d="M123 139.9c.3 1.6-.7 3.2-2.4 3.5-1.6.3-3.2-.7-3.5-2.4-.3-1.6.7-3.2 2.4-3.5h.1c1.6-.2 3.1.8 3.4 2.4z"/><path class="st190" d="M122.8 139.9c.3 1.5-.7 2.9-2.2 3.2s-2.9-.7-3.2-2.2c-.3-1.5.7-2.9 2.2-3.2 1.5-.3 3 .7 3.2 2.2z"/><path class="st191" d="M122.7 140c.3 1.4-.7 2.7-2.1 3-1.4.3-2.7-.7-3-2.1-.3-1.4.7-2.7 2.1-3 1.4-.2 2.7.7 3 2.1z"/><path class="st192" d="M122.5 140c.2 1.3-.6 2.5-1.9 2.8s-2.5-.6-2.8-1.9c-.2-1.3.6-2.5 1.9-2.8 1.3-.3 2.5.6 2.8 1.9z"/><path class="st193" d="M122.3 140c.2 1.2-.6 2.4-1.8 2.6-1.2.2-2.4-.6-2.6-1.8s.6-2.4 1.8-2.6c1.2-.2 2.4.6 2.6 1.8z"/><path class="st194" d="M122.1 140.1c.2 1.1-.5 2.1-1.6 2.3-1.1.2-2.1-.5-2.3-1.6-.2-1.1.5-2.1 1.6-2.3 1-.3 2.1.5 2.3 1.6z"/><path class="st195" d="M121.9 140.1c.2 1-.5 1.9-1.5 2.1s-1.9-.5-2.1-1.5c-.2-1 .5-1.9 1.5-2.1 1-.2 2 .5 2.1 1.5z"/><path class="st196" d="M121.7 140.1c.2.9-.3 1.8-1.2 2-.9.2-1.8-.3-2-1.2v-.2c-.1-.9.5-1.7 1.4-1.8.9-.1 1.6.4 1.8 1.2z"/><path class="st197" d="M121.6 140.2c.1.8-.4 1.6-1.2 1.7-.8.1-1.6-.4-1.7-1.2-.1-.8.4-1.5 1.2-1.7.8-.1 1.5.4 1.7 1.2z"/><path class="st22" d="M121.4 140.2c.1.7-.4 1.3-1.1 1.4-.6.1-1.2-.3-1.4-.9-.2-.7.2-1.4.9-1.6.7-.2 1.4.2 1.6.9v.2z"/><path class="st22" d="M119.7 140c0 .8-3.1 1.6-3.1 1.6 1.1-.1 2.2-.2 3.3-.1.7.2 1.9 5.6 1.9 5.6s-.7-4.8-.8-5.8c0-.4 4.8-1.8 4.8-1.8s-3.5.2-5.2.4c-.5-1.4-.9-2.8-1.3-4.2.1-.1.4 3.5.4 4.3z"/><path class="st185" d="M196.8 125.8c0 2-1.7 3.7-3.7 3.7s-3.7-1.7-3.7-3.7 1.7-3.7 3.7-3.7 3.7 1.6 3.7 3.7z"/><path class="st186" d="M196.6 125.8c0 1.9-1.6 3.5-3.5 3.5s-3.5-1.6-3.5-3.5 1.6-3.5 3.5-3.5c1.9-.1 3.5 1.5 3.5 3.5z"/><path class="st187" d="M196.4 125.8c0 1.8-1.5 3.3-3.3 3.3-1.8 0-3.3-1.5-3.3-3.3 0-1.8 1.5-3.3 3.3-3.3 1.8-.1 3.3 1.4 3.3 3.3z"/><path class="st188" d="M196.2 125.8c0 1.7-1.4 3.1-3.1 3.1s-3.1-1.4-3.1-3.1c0-1.7 1.4-3.1 3.1-3.1 1.7-.1 3.1 1.3 3.1 3.1z"/><path class="st189" d="M196 125.8c0 1.7-1.3 3-3 3s-3-1.3-3-3 1.3-3 3-3 3 1.3 3 3c0-.1 0-.1 0 0z"/><path class="st190" d="M195.8 125.8c0 1.5-1.2 2.8-2.8 2.8-1.5 0-2.8-1.2-2.8-2.8 0-1.5 1.2-2.8 2.8-2.8 1.6 0 2.8 1.2 2.8 2.8z"/><path class="st191" d="M195.6 125.8c0 1.4-1.2 2.6-2.6 2.6s-2.6-1.2-2.6-2.6c0-1.4 1.2-2.6 2.6-2.6 1.5 0 2.6 1.1 2.6 2.6z"/><path class="st192" d="M195.4 125.8c0 1.3-1.1 2.4-2.4 2.4-1.3 0-2.4-1.1-2.4-2.4s1.1-2.4 2.4-2.4c1.4 0 2.5 1 2.4 2.4.1 0 .1 0 0 0z"/><path class="st193" d="M195.3 125.8c0 1.2-1 2.2-2.2 2.2-1.2 0-2.2-1-2.2-2.2s1-2.2 2.2-2.2c1.2-.1 2.2.9 2.2 2.2z"/><path class="st194" d="M195.1 125.8c0 1.1-.9 2-2 2s-2-.9-2-2 .9-2 2-2 2 .9 2 2z"/><path class="st195" d="M194.9 125.8c0 1-.8 1.8-1.8 1.8s-1.8-.8-1.8-1.8.8-1.8 1.8-1.8c1-.1 1.8.7 1.8 1.8z"/><path class="st196" d="M194.7 125.8c-.1.9-.9 1.6-1.8 1.5-.8-.1-1.5-.7-1.5-1.5-.1-.9.6-1.7 1.5-1.8.9-.1 1.7.6 1.8 1.5v.3z"/><path class="st197" d="M194.5 125.8c0 .8-.7 1.5-1.5 1.5s-1.5-.7-1.5-1.5.7-1.5 1.5-1.5 1.5.7 1.5 1.5z"/><path class="st22" d="M194.3 125.8c0 .7-.6 1.3-1.3 1.3s-1.3-.6-1.3-1.3c0-.7.6-1.3 1.3-1.3.8 0 1.3.5 1.3 1.3z"/><path class="st22" d="M192.7 125.2c-.2.8-3.3 1-3.3 1 1.1.1 2.2.2 3.3.5.6.3.9 5.9.9 5.9s.2-4.9.2-5.9c0-.4 5.1-.9 5.1-.9s-3.5-.4-5.2-.6c-.3-1.5-.4-2.9-.5-4.4 0 .1-.3 3.7-.5 4.4z"/><path class="st185" d="M159.1 159.8c0 3-2.4 5.4-5.4 5.4-3 0-5.4-2.4-5.4-5.4 0-3 2.4-5.4 5.4-5.4s5.4 2.4 5.4 5.4z"/><path class="st186" d="M158.8 159.8c0 2.9-2.3 5.2-5.2 5.2-2.9 0-5.2-2.3-5.2-5.2 0-2.9 2.3-5.2 5.2-5.2 2.9.1 5.2 2.4 5.2 5.2z"/><path class="st187" d="M158.5 159.8c0 2.7-2.2 4.9-4.9 4.9s-4.9-2.2-4.9-4.9 2.2-4.9 4.9-4.9 4.9 2.2 4.9 4.9z"/><path class="st188" d="M158.2 159.8c0 2.6-2.1 4.6-4.6 4.6-2.6 0-4.6-2.1-4.6-4.6 0-2.6 2.1-4.6 4.6-4.6 2.6 0 4.6 2.1 4.6 4.6z"/><path class="st189" d="M157.9 159.8c0 2.4-1.9 4.3-4.3 4.3s-4.3-1.9-4.3-4.3 1.9-4.3 4.3-4.3 4.3 1.9 4.3 4.3z"/><path class="st190" d="M157.7 159.8c0 2.2-1.8 4.1-4.1 4.1-2.2 0-4.1-1.8-4.1-4.1s1.8-4.1 4.1-4.1c2.3.1 4.1 1.9 4.1 4.1z"/><path class="st191" d="M157.4 159.8c0 2.1-1.7 3.8-3.8 3.8s-3.8-1.7-3.8-3.8c0-2.1 1.7-3.8 3.8-3.8 2.1 0 3.8 1.7 3.8 3.8z"/><path class="st192" d="M157.2 159.8c0 1.9-1.6 3.5-3.5 3.5s-3.5-1.6-3.5-3.5 1.6-3.5 3.5-3.5 3.5 1.6 3.5 3.5z"/><path class="st193" d="M156.9 159.8c0 1.8-1.4 3.3-3.2 3.3s-3.3-1.4-3.3-3.2 1.4-3.3 3.2-3.3c1.8 0 3.3 1.4 3.3 3.2z"/><path class="st194" d="M156.6 159.8c0 1.7-1.3 3-3 3s-3-1.3-3-3 1.3-3 3-3 3 1.4 3 3z"/><path class="st195" d="M156.3 159.8c0 1.5-1.2 2.7-2.7 2.7-1.5 0-2.7-1.2-2.7-2.7 0-1.5 1.2-2.7 2.7-2.7 1.5 0 2.7 1.2 2.7 2.7z"/><path class="st196" d="M156.1 159.8c0 1.3-1.1 2.4-2.4 2.4-1.3 0-2.4-1.1-2.4-2.4 0-1.3 1.1-2.4 2.4-2.4 1.3 0 2.4 1.1 2.4 2.4z"/><path class="st197" d="M155.8 159.8c0 1.2-1 2.1-2.2 2.1-1.2 0-2.1-1-2.1-2.2 0-1.2 1-2.1 2.1-2.1 1.2.1 2.2 1 2.2 2.2z"/><path class="st22" d="M155.5 159.8c0 1-.8 1.9-1.9 1.9-1 0-1.9-.8-1.9-1.9 0-1 .8-1.9 1.9-1.9 1.1.1 1.9.9 1.9 1.9z"/><path class="st22" d="M153.2 159.1c-.2 1.1-4.9 1.5-4.9 1.5 1.6.1 3.3.4 4.9.8.9.4 1.3 8.6 1.3 8.6s.2-7.1.4-8.6c0-.6 7.5-1.3 7.5-1.3s-5.1-.6-7.6-.8c-.3 0-.8-6.5-.8-6.5s-.6 5.1-.8 6.3z"/><path class="st185" d="M143.9 161.9c-.8 2.3-3.3 3.4-5.5 2.7-2.3-.8-3.4-3.3-2.7-5.5.8-2.3 3.3-3.4 5.5-2.7 2.2.7 3.4 3.2 2.7 5.5 0-.1 0-.1 0 0z"/><path class="st186" d="M143.6 161.8c-.8 2.1-3.1 3.3-5.2 2.5-2.1-.8-3.3-3.1-2.5-5.2.8-2.1 3.1-3.3 5.2-2.5 2.2.7 3.3 3 2.5 5.2z"/><path class="st187" d="M143.4 161.7c-.7 2-3 3.1-5 2.4s-3.1-3-2.4-5c.7-2 2.9-3.1 5-2.4 2.1.7 3.2 2.9 2.4 5z"/><path class="st188" d="M143.2 161.6c-.6 1.9-2.7 3-4.6 2.3-1.9-.6-3-2.7-2.3-4.6.6-1.9 2.7-3 4.6-2.3 1.9.7 3 2.7 2.3 4.6z"/><path class="st189" d="M143 161.6c-.6 1.8-2.6 2.7-4.4 2.1-1.8-.6-2.7-2.6-2.1-4.4.6-1.8 2.6-2.7 4.4-2.1 1.8.6 2.7 2.6 2.1 4.4z"/><path class="st190" d="M142.8 161.5c-.6 1.7-2.4 2.6-4.1 2-1.7-.6-2.6-2.4-2-4.1.6-1.7 2.4-2.6 4.1-2 1.7.5 2.6 2.4 2 4.1z"/><path class="st191" d="M142.6 161.4c-.6 1.6-2.3 2.4-3.8 1.8-1.6-.6-2.4-2.3-1.8-3.8.6-1.5 2.2-2.4 3.8-1.8 1.5.5 2.4 2.2 1.8 3.8z"/><path class="st192" d="M142.4 161.4c-.5 1.5-2.1 2.2-3.6 1.7-1.5-.5-2.2-2.1-1.7-3.6.5-1.5 2.1-2.2 3.6-1.7 1.4.5 2.2 2.1 1.7 3.6 0-.1 0-.1 0 0z"/><path class="st193" d="M142.2 161.3c-.5 1.3-1.9 2.1-3.3 1.6-1.3-.5-2.1-1.9-1.6-3.3.5-1.3 1.9-2.1 3.3-1.6 1.4.4 2.1 1.9 1.6 3.3z"/><path class="st194" d="M142 161.2c-.4 1.2-1.8 1.9-3 1.5-1.2-.4-1.9-1.8-1.5-3s1.8-1.9 3-1.5c1.3.4 1.9 1.8 1.5 3z"/><path class="st195" d="M141.8 161.1c-.3 1.1-1.5 1.8-2.7 1.5-1.1-.3-1.8-1.5-1.5-2.7 0-.1.1-.2.1-.3.4-1.1 1.6-1.7 2.7-1.3 1.2.5 1.8 1.7 1.4 2.8z"/><path class="st196" d="M141.6 161.1c-.4 1-1.5 1.5-2.5 1.2-1-.4-1.5-1.5-1.2-2.5s1.5-1.5 2.5-1.2c1 .4 1.5 1.5 1.2 2.5z"/><path class="st197" d="M141.4 161c-.3.9-1.3 1.3-2.2 1-.9-.3-1.3-1.3-1-2.2.3-.9 1.3-1.3 2.2-1 .8.4 1.3 1.3 1 2.2z"/><path class="st22" d="M141.2 160.9c-.3.8-1.1 1.2-1.9.9s-1.2-1.1-.9-1.9c.3-.8 1.1-1.2 1.9-.9.7.3 1.1 1.1.9 1.9z"/><path class="st22" d="M139.6 159.7c-.5.8-4-.2-4-.2 1.2.5 2.4 1.1 3.4 1.9.6.6-1.3 6.8-1.3 6.8s2.1-5.3 2.5-6.4c.2-.5 6 1 6 1s-3.7-1.8-5.5-2.6c-.2-.1 1.1-5.1 1.1-5.1s-1.7 3.8-2.2 4.6z"/><path class="st185" d="M150.8 142.7c0 1.8-1.5 3.2-3.2 3.2s-3.2-1.5-3.2-3.2c0-1.8 1.5-3.2 3.2-3.2 1.7-.1 3.1 1.4 3.2 3.2 0-.1 0 0 0 0z"/><path class="st186" d="M150.6 142.7c0 1.7-1.4 3.1-3.1 3.1s-3.1-1.4-3.1-3.1 1.4-3.1 3.1-3.1 3.1 1.4 3.1 3.1z"/><path class="st187" d="M150.4 142.7c0 1.6-1.3 2.9-2.9 2.9-1.6 0-2.9-1.3-2.9-2.9 0-1.6 1.3-2.9 2.9-2.9 1.6-.1 2.9 1.3 2.9 2.9z"/><path class="st188" d="M150.3 142.7c0 1.5-1.2 2.7-2.8 2.7s-2.7-1.2-2.7-2.8c0-1.5 1.2-2.7 2.7-2.7 1.5 0 2.8 1.2 2.8 2.8z"/><path class="st189" d="M150.1 142.7c0 1.4-1.2 2.6-2.6 2.6-1.4 0-2.6-1.2-2.6-2.6 0-1.4 1.2-2.6 2.6-2.6 1.4 0 2.6 1.1 2.6 2.6z"/><path class="st190" d="M149.9 142.7c0 1.3-1.1 2.4-2.4 2.4s-2.4-1.1-2.4-2.4c0-1.3 1.1-2.4 2.4-2.4 1.4-.1 2.4 1 2.4 2.4z"/><path class="st191" d="M149.8 142.7c0 1.2-1 2.3-2.3 2.3s-2.3-1-2.3-2.3c0-1.2 1-2.3 2.3-2.3 1.3 0 2.3 1 2.3 2.3z"/><path class="st192" d="M149.6 142.7c0 1.2-.9 2.1-2.1 2.1s-2.1-.9-2.1-2.1c0-1.2.9-2.1 2.1-2.1 1.2 0 2.1.9 2.1 2.1z"/><path class="st193" d="M149.4 142.7c0 1.1-.9 1.9-1.9 1.9-1.1 0-1.9-.9-1.9-1.9 0-1.1.9-1.9 1.9-1.9 1.1-.1 1.9.8 1.9 1.9z"/><path class="st194" d="M149.3 142.7c0 1-.8 1.8-1.8 1.8s-1.8-.8-1.8-1.8.8-1.8 1.8-1.8 1.8.8 1.8 1.8z"/><path class="st195" d="M149.1 142.7c0 .9-.7 1.6-1.6 1.6s-1.6-.7-1.6-1.6.7-1.6 1.6-1.6c.9 0 1.6.7 1.6 1.6z"/><path class="st196" d="M148.9 142.7c0 .8-.7 1.4-1.4 1.4-.8 0-1.4-.7-1.4-1.4 0-.8.6-1.4 1.4-1.4.8-.1 1.4.6 1.4 1.4z"/><path class="st197" d="M148.8 142.7c0 .7-.6 1.3-1.3 1.3s-1.3-.6-1.3-1.3.6-1.3 1.3-1.3c.7 0 1.3.6 1.3 1.3z"/><path class="st22" d="M148.6 142.7c0 .6-.5 1.1-1.1 1.1-.6 0-1.1-.5-1.1-1.1 0-.6.5-1.1 1.1-1.1.6 0 1.1.5 1.1 1.1z"/><path class="st22" d="M147.2 141.8c.1.6-2 1.4-2 1.4.8-.2 1.5-.3 2.3-.3.5.1 1.8 3.7 1.8 3.7s-.9-3.3-1.1-4c-.1-.3 3.2-1.6 3.2-1.6l-3.5.7c-.5-.9-.9-1.9-1.2-2.8 0-.2.5 2.3.5 2.9z"/><path class="st185" d="M140.3 147.3c0 1.6-1.3 2.8-2.8 2.8s-2.8-1.3-2.8-2.8c0-1.6 1.3-2.8 2.8-2.8 1.6 0 2.8 1.3 2.8 2.8z"/><path class="st186" d="M140.2 147.3c0 1.5-1.2 2.7-2.7 2.7s-2.7-1.2-2.7-2.7c0-1.5 1.2-2.7 2.7-2.7 1.5 0 2.7 1.2 2.7 2.7z"/><path class="st187" d="M140 147.3c0 1.4-1.1 2.5-2.5 2.5s-2.5-1.1-2.5-2.5 1.1-2.5 2.5-2.5 2.5 1.1 2.5 2.5z"/><path class="st188" d="M139.9 147.3c0 1.3-1.1 2.4-2.4 2.4s-2.4-1.1-2.4-2.4 1.1-2.4 2.4-2.4c1.4 0 2.4 1.1 2.4 2.4z"/><path class="st189" d="M139.7 147.3c0 1.2-1 2.3-2.2 2.3s-2.3-1-2.3-2.2 1-2.3 2.2-2.3c1.3 0 2.3 1 2.3 2.2z"/><path class="st190" d="M139.6 147.3c0 1.2-.9 2.1-2.1 2.1s-2.1-.9-2.1-2.1c0-1.2.9-2.1 2.1-2.1 1.2 0 2.1 1 2.1 2.1z"/><path class="st191" d="M139.5 147.3c0 1.1-.9 2-2 2s-2-.9-2-2 .9-2 2-2 2 .9 2 2z"/><path class="st192" d="M139.3 147.3c0 1-.8 1.8-1.8 1.8s-1.8-.8-1.8-1.8.8-1.8 1.8-1.8 1.8.8 1.8 1.8z"/><path class="st193" d="M139.2 147.3c0 .9-.8 1.7-1.7 1.7s-1.7-.8-1.7-1.7.8-1.7 1.7-1.7c.9 0 1.7.8 1.7 1.7z"/><path class="st194" d="M139 147.3c0 .9-.7 1.5-1.5 1.5-.9 0-1.5-.7-1.5-1.5 0-.9.7-1.5 1.5-1.5s1.5.7 1.5 1.5z"/><path class="st195" d="M138.9 147.3c0 .8-.6 1.4-1.4 1.4s-1.4-.6-1.4-1.4.6-1.4 1.4-1.4c.8 0 1.4.6 1.4 1.4z"/><path class="st196" d="M138.8 147.3c0 .7-.6 1.2-1.2 1.2s-1.2-.6-1.2-1.2.6-1.2 1.2-1.2 1.2.5 1.2 1.2z"/><path class="st197" d="M138.6 147.3c0 .6-.5 1.1-1.1 1.1s-1.1-.5-1.1-1.1.5-1.1 1.1-1.1c.6 0 1.1.5 1.1 1.1z"/><path class="st22" d="M138.5 147.3c0 .6-.4 1-1 1s-1-.4-1-1 .4-1 1-1 1 .5 1 1z"/><path class="st22" d="M137.3 146.5c0 .5-1.7 1.2-1.7 1.2.7-.2 1.3-.3 2-.3.4 0 1.6 3.2 1.6 3.2s-.8-2.8-.9-3.4c0-.2 2.8-1.4 2.8-1.4l-3.1.6c-.4-.8-.8-1.6-1.1-2.4-.1-.1.3 2.1.4 2.5z"/><linearGradient id="SVGID_115_" gradientUnits="userSpaceOnUse" x1="149.59" y1="98.73" x2="149.59" y2="29.94" gradientTransform="matrix(1 0 0 -1 0 216)"><stop offset=".57" stop-color="#06764A"/><stop offset=".66" stop-color="#08704D"/><stop offset=".79" stop-color="#0E6054"/><stop offset=".93" stop-color="#194660"/><stop offset="1" stop-color="#1F3568"/></linearGradient><path class="st198" d="M58.1 134.6h183.1c12 0 21.8 9.8 21.8 21.8s-9.8 21.8-21.8 21.8H58.1c-12 0-21.8-9.8-21.8-21.8 0-12.1 9.7-21.8 21.8-21.8z"/><g class="st199"><path class="st200" d="M106.7 156.1l1.1-9.5h10.5v3.1h-7.4l-.5 4c.9-.5 1.8-.7 2.8-.7 1.8 0 3.2.6 4.2 1.7s1.5 2.7 1.5 4.6c0 1.2-.3 2.3-.8 3.2-.5 1-1.2 1.7-2.2 2.2s-2.1.8-3.4.8c-1.1 0-2.2-.2-3.2-.7-1-.5-1.7-1.1-2.3-1.9-.6-.8-.9-1.8-.9-2.8h3.7c.1.8.3 1.4.8 1.8.5.4 1.1.7 1.8.7.8 0 1.5-.3 1.9-.9.5-.6.7-1.5.7-2.6s-.3-1.9-.8-2.4c-.5-.6-1.3-.8-2.2-.8-.9 0-1.6.2-2.1.7l-.4.3-2.8-.8zm21.6 9.2v-18.7h5.8c1.6 0 3.1.4 4.4 1.1 1.3.7 2.3 1.8 3 3.2s1.1 2.9 1.1 4.7v.9c0 1.7-.4 3.3-1.1 4.6-.7 1.4-1.7 2.4-3 3.2-1.3.7-2.8 1.1-4.4 1.1h-5.8zm3.8-15.6v12.5h1.9c1.5 0 2.7-.5 3.5-1.5.8-1 1.2-2.4 1.2-4.2v-1c0-1.9-.4-3.3-1.2-4.3-.8-1-1.9-1.5-3.5-1.5h-1.9zm13-1.9c0-.6.2-1 .6-1.4s.9-.5 1.5-.5 1.1.2 1.5.5c.4.4.6.8.6 1.4 0 .6-.2 1-.6 1.4-.4.4-.9.5-1.5.5s-1.1-.2-1.5-.5c-.4-.4-.6-.9-.6-1.4zm4 17.5h-3.7v-13.9h3.7v13.9zm11.1 0c-.2-.3-.3-.8-.4-1.2-.9 1-2.1 1.5-3.5 1.5s-2.5-.4-3.4-1.2c-.9-.8-1.3-1.8-1.3-3 0-1.5.5-2.6 1.6-3.4 1.1-.8 2.7-1.2 4.7-1.2h1.7v-.8c0-.6-.2-1.2-.5-1.5-.3-.4-.9-.6-1.6-.6-.6 0-1.1.1-1.5.5-.4.3-.5.7-.5 1.2h-3.7c0-.8.2-1.6.7-2.2.5-.7 1.2-1.2 2.1-1.6.9-.4 1.9-.6 3.1-.6 1.7 0 3.1.4 4.1 1.3 1 .9 1.5 2.1 1.5 3.6v6c0 1.3.2 2.3.6 3v.2h-3.7zm-3.1-2.6c.5 0 1.1-.1 1.5-.4.5-.2.8-.6 1-1V159h-1.4c-1.9 0-2.9.6-3 1.9v.2c0 .5.2.8.5 1.1.4.4.9.5 1.4.5zm12.6-11.3l.1 1.6c1-1.2 2.3-1.8 4-1.8 1.8 0 3 .7 3.7 2.1 1-1.4 2.4-2.1 4.2-2.1 1.5 0 2.6.4 3.4 1.3.7.9 1.1 2.2 1.1 4v8.9h-3.7v-8.9c0-.8-.2-1.4-.5-1.7-.3-.4-.9-.5-1.6-.5-1.1 0-1.9.5-2.3 1.6v9.6h-3.7v-8.9c0-.8-.2-1.4-.5-1.7s-.9-.5-1.6-.5c-1.1 0-1.8.4-2.3 1.3v9.8h-3.7v-13.9h3.4zm18.8 6.8c0-1.4.3-2.6.8-3.7s1.3-1.9 2.3-2.5 2.2-.9 3.5-.9c1.9 0 3.4.6 4.6 1.7 1.2 1.1 1.9 2.7 2 4.7v1c0 2.1-.6 3.8-1.8 5.1s-2.8 1.9-4.8 1.9-3.6-.6-4.8-1.9c-1.2-1.3-1.8-3-1.8-5.2v-.2zm3.7.3c0 1.3.2 2.3.7 3 .5.7 1.2 1.1 2.1 1.1.9 0 1.6-.3 2.1-1s.8-1.8.8-3.3c0-1.3-.3-2.3-.8-3-.5-.7-1.2-1.1-2.1-1.1-.9 0-1.6.4-2.1 1.1-.4.6-.7 1.7-.7 3.2zm15.2-7.1l.1 1.6c1-1.2 2.3-1.9 4-1.9 1.5 0 2.6.4 3.3 1.3.7.9 1.1 2.2 1.1 3.9v9h-3.7v-8.9c0-.8-.2-1.4-.5-1.7-.3-.4-.9-.5-1.7-.5-1 0-1.8.4-2.4 1.3v9.8h-3.7v-13.9h3.5zm10.7 6.8c0-2.2.5-3.9 1.5-5.2 1-1.3 2.3-1.9 4-1.9 1.4 0 2.5.5 3.4 1.5v-7.1h3.7v19.8h-3.4l-.2-1.5c-.9 1.2-2.1 1.7-3.6 1.7-1.6 0-3-.6-3.9-1.9-1-1.3-1.5-3.1-1.5-5.4zm3.8.3c0 1.3.2 2.3.7 3 .5.7 1.1 1 2 1 1.1 0 2-.5 2.4-1.5v-5.5c-.5-1-1.3-1.5-2.4-1.5-1.8.1-2.7 1.6-2.7 4.5z"/></g><g class="st199"><path class="st22" d="M47.1 32.3c0-1.2-.4-2.2-1.3-2.8s-2.4-1.4-4.5-2.1c-2.2-.7-3.9-1.4-5.3-2.1-4.5-2.2-6.7-5.2-6.7-9 0-1.9.6-3.6 1.7-5.1 1.1-1.5 2.7-2.6 4.7-3.4s4.3-1.2 6.9-1.2c2.5 0 4.7.4 6.7 1.3s3.5 2.1 4.6 3.8c1.1 1.6 1.6 3.5 1.6 5.6h-8.3c0-1.4-.4-2.5-1.3-3.3-.9-.8-2-1.2-3.5-1.2s-2.7.3-3.5 1c-.9.7-1.3 1.5-1.3 2.5 0 .9.5 1.7 1.4 2.4.9.7 2.6 1.5 5 2.2 2.4.8 4.3 1.6 5.9 2.5 3.7 2.1 5.6 5.1 5.6 8.9 0 3-1.1 5.4-3.4 7.1-2.3 1.7-5.4 2.6-9.4 2.6-2.8 0-5.3-.5-7.6-1.5s-4-2.4-5.1-4.1c-1.1-1.7-1.7-3.8-1.7-6h8.3c0 1.8.5 3.2 1.4 4.1 1 .9 2.5 1.3 4.7 1.3 1.4 0 2.5-.3 3.3-.9.7-.7 1.1-1.5 1.1-2.6zM81 26.9H68v8.2h15.4v6.4H59.6V7h23.8v6.4H68v7.3h13v6.2z"/></g><g class="st199"><path class="st22" d="M95.1 35.1h14.5v6.4H86.8V7h8.3v28.1z"/></g><g class="st199"><path class="st22" d="M133.1 35.1h-11.4l-2 6.4h-8.9L123.5 7h7.8L144 41.5h-8.9l-2-6.4zm-9.4-6.5h7.4l-3.7-12-3.7 12z"/></g><g class="st199"><path class="st22" d="M157.5 7l7.7 24 7.7-24h10.9v34.5h-8.3v-8.1l.8-16.5-8.3 24.5h-5.5l-8.4-24.6.8 16.5v8.1h-8.3V7h10.9z"/></g><g class="st199"><path class="st22" d="M209.1 35.1h-11.4l-2 6.4h-8.9L199.5 7h7.8L220 41.5h-8.9l-2-6.4zm-9.4-6.5h7.4l-3.7-12-3.7 12z"/></g><g class="st199"><path class="st22" d="M246.8 13.4h-10.4v28.1h-8.3V13.4H218V7h28.8v6.4zm3.3 24.5c0-1.2.4-2.1 1.3-2.9.8-.8 1.9-1.1 3.2-1.1 1.3 0 2.3.4 3.2 1.1s1.3 1.7 1.3 2.9-.4 2.1-1.3 2.9c-.8.8-1.9 1.1-3.2 1.1-1.3 0-2.3-.4-3.2-1.1-.8-.7-1.3-1.7-1.3-2.9zm7.8-7.3h-6.5l-1-23.6h8.5l-1 23.6z"/></g><g class="st199"><path class="st22" d="M6.3 61.4l-1.7 1.8v4.4H1.4V52.1h3.2v7.1l1.4-2 4-5.1h3.9L8.4 59l5.7 8.6h-3.8l-4-6.2z"/></g><g class="st199"><path class="st22" d="M27.7 60.2c0 1.5-.3 2.9-.8 4-.5 1.2-1.3 2-2.3 2.7s-2.2.9-3.5.9c-1.3 0-2.4-.3-3.5-.9-1-.6-1.8-1.5-2.4-2.7s-.8-2.5-.8-4v-.8c0-1.5.3-2.9.8-4s1.3-2.1 2.3-2.7c1-.6 2.2-.9 3.5-.9s2.4.3 3.5.9c1 .6 1.8 1.5 2.3 2.7.6 1.2.8 2.5.8 4v.8zm-3.2-.7c0-1.6-.3-2.9-.9-3.7-.6-.8-1.4-1.3-2.5-1.3s-1.9.4-2.5 1.3c-.6.8-.9 2.1-.9 3.7v.8c0 1.6.3 2.8.9 3.7.6.9 1.4 1.3 2.5 1.3s1.9-.4 2.5-1.3c.6-.8.9-2.1.9-3.7v-.8zm5.6 8.1V52.1h4.8c1.4 0 2.6.3 3.7.9s1.9 1.5 2.5 2.6c.6 1.1.9 2.4.9 3.9v.7c0 1.4-.3 2.7-.9 3.9-.6 1.1-1.4 2-2.5 2.6s-2.3.9-3.7.9h-4.8zm3.2-12.9V65h1.5c1.3 0 2.2-.4 2.9-1.2s1-2 1-3.5v-.8c0-1.6-.3-2.8-1-3.6-.7-.8-1.6-1.2-2.9-1.2h-1.5zm20.4 6.2h-6.2V65h7.2v2.6H44.3V52.1h10.4v2.6h-7.2v3.7h6.2v2.5zm20.1-8.8v10.2c0 1.7-.5 3-1.6 4s-2.5 1.5-4.4 1.5c-1.8 0-3.3-.5-4.3-1.4s-1.6-2.3-1.6-4V52.1h3.2v10.3c0 1 .2 1.8.7 2.2.5.5 1.2.7 2 .7 1.8 0 2.7-.9 2.7-2.8V52.1h3.3zm15.3 15.5h-3.2l-6.2-10.2v10.2h-3.2V52.1h3.2L86 62.4V52.1h3.2v15.5zm6.2 0h-3.2V52.1h3.2v15.5zm7.9-6.2l-1.7 1.8v4.4h-3.2V52.1h3.2v7.1l1.4-1.9 4-5.1h3.9l-5.5 6.9 5.7 8.6h-3.8l-4-6.3zm19.3 0l-1.7 1.8v4.4h-3.2V52.1h3.2v7.1l1.4-1.9 4-5.1h3.9l-5.5 6.9 5.7 8.6h-3.8l-4-6.3z"/><path class="st22" d="M140.3 64.4h-5.6l-1.1 3.2h-3.4L136 52h3l5.8 15.6h-3.4l-1.1-3.2zm-4.7-2.6h3.9l-2-5.8-1.9 5.8zm14.9-9.7l4 11.3 4-11.3h4.2v15.6h-3.2v-4.3l.3-7.3-4.2 11.6h-2.2L149.2 56l.3 7.3v4.3h-3.2V52.1h4.2zm26.7 0v10.2c0 1.7-.5 3-1.6 4s-2.5 1.5-4.4 1.5c-1.8 0-3.3-.5-4.3-1.4-1.1-1-1.6-2.3-1.6-4V52.1h3.2v10.3c0 1 .2 1.8.7 2.2.5.5 1.2.7 2 .7 1.8 0 2.7-.9 2.7-2.8V52.1h3.3zm8.1 15.5V52.1h5.5c1.9 0 3.3.4 4.3 1.1 1 .7 1.5 1.8 1.5 3.2 0 .8-.2 1.4-.6 2-.4.6-.9 1-1.6 1.3.8.2 1.4.6 1.9 1.2s.7 1.3.7 2.2c0 1.5-.5 2.6-1.4 3.4-1 .8-2.3 1.2-4.1 1.2h-6.2zm3.2-9h2.4c1.6 0 2.4-.7 2.4-1.9 0-.7-.2-1.2-.6-1.5-.4-.3-1.1-.5-1.9-.5h-2.2v3.9zm0 2.2V65h2.7c.8 0 1.3-.2 1.8-.5.4-.4.6-.9.6-1.5 0-1.4-.7-2.1-2.2-2.2h-2.9zm20.1.1h-6.2V65h7.2v2.6h-10.4V52.1h10.4v2.6h-7.2v3.7h6.2v2.5zm8.7 1h-2.6v5.7h-3.2V52.1h5.8c1.8 0 3.3.4 4.3 1.2 1 .8 1.5 2 1.5 3.5 0 1.1-.2 1.9-.7 2.7-.5.7-1.2 1.3-2.1 1.7l3.4 6.4v.1h-3.4l-3-5.8zm-2.5-2.6h2.6c.8 0 1.4-.2 1.9-.6.4-.4.7-1 .7-1.7s-.2-1.3-.6-1.7c-.4-.4-1.1-.6-1.9-.6h-2.6v4.6z"/></g><g class="st199"><path class="st22" d="M238.2 67.6H235V61h-6.3v6.7h-3.2V52.1h3.2v6.3h6.3v-6.3h3.2v15.5z"/></g><g class="st199"><path class="st22" d="M250 64.4h-5.6l-1.1 3.2h-3.4l5.8-15.6h3l5.8 15.6h-3.4l-1.1-3.2zm-4.8-2.6h3.9l-2-5.8-1.9 5.8zm18.8 1.7c0-.6-.2-1.1-.6-1.4-.4-.3-1.2-.7-2.3-1-1.1-.4-2-.7-2.6-1.1-1.8-1-2.7-2.2-2.7-3.9 0-.8.2-1.6.7-2.2s1.2-1.2 2-1.5c.9-.4 1.9-.6 3-.6s2.1.2 3 .6c.9.4 1.5 1 2 1.7s.7 1.6.7 2.5H264c0-.7-.2-1.3-.7-1.7-.4-.4-1.1-.6-1.9-.6-.8 0-1.4.2-1.8.5-.4.3-.7.8-.7 1.3s.3.9.8 1.3c.5.3 1.3.7 2.2 1 1.8.5 3.2 1.2 4 2s1.3 1.8 1.3 3c0 1.3-.5 2.4-1.5 3.2-1 .8-2.4 1.1-4.1 1.1-1.2 0-2.3-.2-3.3-.7s-1.7-1-2.2-1.8c-.5-.8-.8-1.6-.8-2.7h3.2c0 1.7 1 2.6 3.1 2.6.8 0 1.4-.2 1.8-.5.4-.1.6-.5.6-1.1zm8.8 4.1h-3.2V52.1h3.2v15.5zM279 65h6.8v2.6h-10V52.1h3.2V65z"/></g></g></g><g id="lQRmEu"><g id="lQRmEu-2" transform="rotate(62.2 21.244 226.015) scale(.15)"><image width="148" height="157" id="image" xlink:href="CE3346A98B7E4040.png" transform="rotate(62.2 19.944 222.2) scale(.15)" overflow="visible"/></g></g><g id="lQRmEu-3"><g id="lQRmEu-4" transform="rotate(97.77 -.188 102.373) scale(.06)"><image width="148" height="157" id="image_2_" xlink:href="CE3346A98B7E405B.png" transform="rotate(97.77 -1.792 100.174) scale(.06)" overflow="visible"/></g></g><g id="lQRmEu-6" transform="rotate(38.48 -159.011 194.528) scale(.13)"><image width="148" height="157" id="image_3_" xlink:href="CE3346A98B7E405C.png" transform="matrix(.1018 .0809 -.0809 .1018 82.51 140.282)" overflow="visible"/></g><g id="lQRmEu-7"><g id="lQRmEu-8" transform="rotate(14.52 -416.337 488.947) scale(.1)"><image width="148" height="157" id="image_4_" xlink:href="CE3346A98B7E405D.png" transform="rotate(14.52 -414.772 472.793) scale(.1)" overflow="visible"/></g></g><g id="lQRmEu-9"><g id="lQRmEu-10" transform="rotate(-2.28 4439.557 -5139.767) scale(.11)"><image width="148" height="157" id="image_5_" xlink:href="CE3346A98B7E405E.png" transform="matrix(.1099 -.00438 .00438 .1099 203.99 171.642)" overflow="visible"/></g></g></svg>