<svg xmlns="http://www.w3.org/2000/svg" viewBox="0 0 46.12 46.12"><g data-name="Layer 2"><path d="M46.12 23.06a23 23 0 0 0-6.95-16.47A22.94 22.94 0 0 0 23.06 0H23A22.89 22.89 0 0 0 7.06 6.49s0 .06-.07.08a23 23 0 0 0 0 32.9l.08.1h.07A23 23 0 0 0 23 46.11h.1a23 23 0 0 0 16-6.48h.08a1.09 1.09 0 0 0 .1-.11 23 23 0 0 0 6.84-16.46zm-8.06 13a19.28 19.28 0 0 0-2.82-2.13 26.26 26.26 0 0 0 2.11-9.27h5.5a19.78 19.78 0 0 1-4.79 11.39zM3.27 24.65h5.35a25.46 25.46 0 0 0 2.22 9.25A19.51 19.51 0 0 0 8 36a19.76 19.76 0 0 1-4.73-11.35zM8 10.09a19.88 19.88 0 0 0 2.79 2.14 25.35 25.35 0 0 0-2.21 9.23H3.27A19.76 19.76 0 0 1 8 10.09zm34.85 11.37h-5.5a26.53 26.53 0 0 0-2.1-9.26 21.33 21.33 0 0 0 2.82-2.12 19.77 19.77 0 0 1 4.78 11.38zM30.94 10.88a19.52 19.52 0 0 1-6.36 1.54V4.29a21.82 21.82 0 0 1 6.36 6.59zm-9.55 1.54a19.59 19.59 0 0 1-6.22-1.49 23.17 23.17 0 0 1 6.22-6.47zm0 3.19v5.85H11.8a22 22 0 0 1 1.86-7.72 22.6 22.6 0 0 0 7.73 1.87zm0 9v5.87a22.6 22.6 0 0 0-7.73 1.87 22.28 22.28 0 0 1-1.86-7.74zm0 9.06v7.95a23.24 23.24 0 0 1-6.21-6.46 19.19 19.19 0 0 1 6.21-1.45zm3.19 8.11v-8.07a19.86 19.86 0 0 1 6.36 1.53 21.64 21.64 0 0 1-6.36 6.58zm0-11.3v-5.83h9.59a22.67 22.67 0 0 1-1.77 7.76 22.84 22.84 0 0 0-7.82-1.89zm0-9.06v-5.81a22.72 22.72 0 0 0 7.83-1.9 23 23 0 0 1 1.76 7.75zm9.18-12.04a24.66 24.66 0 0 0-4-5 19.89 19.89 0 0 1 6.04 3.45 16.65 16.65 0 0 1-2.04 1.55zm-21.41 0a16.74 16.74 0 0 1-2-1.57 19.76 19.76 0 0 1 6.24-3.54 26.22 26.22 0 0 0-4.24 5.15zm0 27.28a25.84 25.84 0 0 0 4.18 5.11 19.76 19.76 0 0 1-6.24-3.54 18 18 0 0 1 2.07-1.53zm21.4 0a17.28 17.28 0 0 1 2 1.54 20 20 0 0 1-6.06 3.46 24.86 24.86 0 0 0 4.07-4.91z" fill="#fff" data-name="Layer 1"/></g></svg>