<svg xmlns="http://www.w3.org/2000/svg" viewBox="0 0 138.22 38.73"><title>Asset 5</title><g id="Layer_2" data-name="Layer 2"><g id="Layer_1-2" data-name="Layer 1"><rect x="0.84" y="7.69" width="136.54" height="30.2" rx="6.64" ry="6.64" fill="none" stroke="#fff" stroke-miterlimit="10" stroke-width="1.68"/><rect x="24.19" width="89.84" height="14.88" rx="3.45" ry="3.45" fill="#fff"/><path d="M29.44,3V10H28.28V3Z" fill="#1f3568"/><path d="M35,4.6a2,2,0,0,1,.82.82,2.74,2.74,0,0,1,.29,1.3V10H35V6.9a1.64,1.64,0,0,0-.38-1.16,1.33,1.33,0,0,0-1-.4,1.34,1.34,0,0,0-1,.4,1.6,1.6,0,0,0-.39,1.16V10H31V4.42h1.16v.64a2,2,0,0,1,.73-.54,2.34,2.34,0,0,1,1-.19A2.57,2.57,0,0,1,35,4.6Z" fill="#1f3568"/><path d="M40,5.37h-1V10H37.73V5.37h-.66v-1h.66V4a1.78,1.78,0,0,1,.52-1.41,2.41,2.41,0,0,1,1.62-.45v1a1.1,1.1,0,0,0-.75.2.92.92,0,0,0-.21.69v.4h1Z" fill="#1f3568"/><path d="M42,9.77a2.54,2.54,0,0,1-1-1,3,3,0,0,1-.37-1.53A3.06,3.06,0,0,1,41,5.7a2.59,2.59,0,0,1,1-1,3.2,3.2,0,0,1,2.91,0,2.68,2.68,0,0,1,1,1,3.06,3.06,0,0,1,.37,1.52,2.94,2.94,0,0,1-.39,1.52,2.6,2.6,0,0,1-1,1,3.09,3.09,0,0,1-1.48.36A2.87,2.87,0,0,1,42,9.77Zm2.28-.86a1.64,1.64,0,0,0,.63-.65,2,2,0,0,0,.25-1,2.06,2.06,0,0,0-.24-1,1.53,1.53,0,0,0-.62-.64,1.77,1.77,0,0,0-1.67,0,1.55,1.55,0,0,0-.6.64,2.18,2.18,0,0,0-.23,1,2,2,0,0,0,.47,1.41,1.53,1.53,0,0,0,1.16.49A1.81,1.81,0,0,0,44.26,8.91Z" fill="#1f3568"/><path d="M51.3,9.1h2.4V10H50.14V3H51.3Z" fill="#1f3568"/><path d="M59.77,7.66H55.48A1.53,1.53,0,0,0,56,8.74a1.55,1.55,0,0,0,1.1.41,1.36,1.36,0,0,0,1.33-.78h1.25a2.59,2.59,0,0,1-.92,1.27,2.72,2.72,0,0,1-1.66.49,2.88,2.88,0,0,1-1.44-.36,2.52,2.52,0,0,1-1-1,3.14,3.14,0,0,1-.36-1.53,3.13,3.13,0,0,1,.35-1.52,2.43,2.43,0,0,1,1-1,3,3,0,0,1,1.46-.35,2.87,2.87,0,0,1,1.42.34,2.47,2.47,0,0,1,1,1,3,3,0,0,1,.35,1.44A3.27,3.27,0,0,1,59.77,7.66ZM58.6,6.72a1.35,1.35,0,0,0-.46-1A1.68,1.68,0,0,0,57,5.31a1.48,1.48,0,0,0-1,.38,1.64,1.64,0,0,0-.51,1Z" fill="#1f3568"/><path d="M62.93,4.59a2.46,2.46,0,0,1,1.15-.26,2.69,2.69,0,0,1,1.35.35,2.51,2.51,0,0,1,.94,1,3.08,3.08,0,0,1,.35,1.5,3.16,3.16,0,0,1-.35,1.52,2.58,2.58,0,0,1-1,1,2.48,2.48,0,0,1-1.34.37,2.54,2.54,0,0,1-1.16-.25,2.27,2.27,0,0,1-.8-.66V10H61V2.49h1.16V5.26A2.15,2.15,0,0,1,62.93,4.59ZM65.3,6.2a1.62,1.62,0,0,0-.63-.64,1.71,1.71,0,0,0-.85-.22,1.64,1.64,0,0,0-.83.22,1.71,1.71,0,0,0-.63.65,2.07,2.07,0,0,0-.24,1,2.08,2.08,0,0,0,.24,1A1.67,1.67,0,0,0,63,8.9a1.64,1.64,0,0,0,.83.22,1.72,1.72,0,0,0,.85-.23,1.64,1.64,0,0,0,.63-.67,2.08,2.08,0,0,0,.24-1A2,2,0,0,0,65.3,6.2Z" fill="#1f3568"/><path d="M67.93,3.46a.72.72,0,0,1-.21-.53.72.72,0,0,1,.21-.53.76.76,0,0,1,.54-.22A.74.74,0,0,1,69,2.4a.72.72,0,0,1,.21.53.72.72,0,0,1-.21.53.73.73,0,0,1-.52.21A.75.75,0,0,1,67.93,3.46Zm1.11,1V10H67.87V4.42Z" fill="#1f3568"/><path d="M74.62,4.6a2,2,0,0,1,.8.82,2.74,2.74,0,0,1,.29,1.3V10H74.55V6.9a1.63,1.63,0,0,0-.37-1.16,1.34,1.34,0,0,0-1-.4,1.36,1.36,0,0,0-1,.4,1.64,1.64,0,0,0-.38,1.16V10H70.57V2.49h1.16V5.07a2,2,0,0,1,.75-.55,2.46,2.46,0,0,1,1-.19A2.41,2.41,0,0,1,74.62,4.6Z" fill="#1f3568"/><path d="M81,9.1h2.4V10H79.84V3H81Z" fill="#1f3568"/><path d="M84.33,5.7a2.59,2.59,0,0,1,1-1,2.56,2.56,0,0,1,1.34-.36,2.39,2.39,0,0,1,1.16.26,2.42,2.42,0,0,1,.79.64V4.42h1.17V10H88.58V9.2a2.35,2.35,0,0,1-.81.67,2.54,2.54,0,0,1-1.16.26,2.5,2.5,0,0,1-1.33-.37,2.73,2.73,0,0,1-1-1A3.27,3.27,0,0,1,84,7.2,3.19,3.19,0,0,1,84.33,5.7Zm4,.51a1.71,1.71,0,0,0-.63-.65,1.69,1.69,0,0,0-1.67,0,1.62,1.62,0,0,0-.63.64,2,2,0,0,0-.24,1,2.08,2.08,0,0,0,.24,1,1.64,1.64,0,0,0,.63.67,1.69,1.69,0,0,0,.84.23,1.64,1.64,0,0,0,.83-.22,1.67,1.67,0,0,0,.63-.66,2.08,2.08,0,0,0,.24-1A2.07,2.07,0,0,0,88.34,6.21Z" fill="#1f3568"/><path d="M95.31,4.6a2,2,0,0,1,.82.82,2.74,2.74,0,0,1,.29,1.3V10H95.27V6.9a1.64,1.64,0,0,0-.38-1.16,1.33,1.33,0,0,0-1-.4,1.34,1.34,0,0,0-1,.4,1.6,1.6,0,0,0-.39,1.16V10H91.28V4.42h1.16v.64a2,2,0,0,1,.73-.54,2.34,2.34,0,0,1,1-.19A2.57,2.57,0,0,1,95.31,4.6Z" fill="#1f3568"/><path d="M99.06,11.14a1.53,1.53,0,0,1-.41,1.2,1.71,1.71,0,0,1-1.2.37h-.6v-1h.4a.67.67,0,0,0,.5-.14.58.58,0,0,0,.15-.45V4.42h1.16ZM98,3.46a.72.72,0,0,1-.21-.53A.72.72,0,0,1,98,2.4a.75.75,0,0,1,.53-.22A.71.71,0,0,1,99,2.4a.69.69,0,0,1,.22.53.73.73,0,0,1-.74.74A.74.74,0,0,1,98,3.46Z" fill="#1f3568"/><path d="M105.68,4.42V10h-1.16V9.38a1.8,1.8,0,0,1-.72.54,2.3,2.3,0,0,1-.94.2,2.57,2.57,0,0,1-1.19-.27,2,2,0,0,1-.83-.82,2.67,2.67,0,0,1-.3-1.31V4.42h1.16V7.55a1.65,1.65,0,0,0,.37,1.16,1.34,1.34,0,0,0,1,.4,1.36,1.36,0,0,0,1-.4,1.65,1.65,0,0,0,.38-1.16V4.42Z" fill="#1f3568"/><path d="M108.57,5.37V8.48a.58.58,0,0,0,.15.45.75.75,0,0,0,.5.14h.72v1H109a1.73,1.73,0,0,1-1.2-.37,1.5,1.5,0,0,1-.42-1.19V5.37h-.67v-1h.67V3h1.17v1.4h1.37v1Z" fill="#1f3568"/><path d="M21.88,22.37a3.26,3.26,0,0,1,3-1.47,3.26,3.26,0,0,1,3,1.47,8,8,0,0,1,.89,4.09A8.05,8.05,0,0,1,28,30.58a3.25,3.25,0,0,1-3,1.49,3.25,3.25,0,0,1-3-1.49A8.06,8.06,0,0,1,21,26.46,8,8,0,0,1,21.88,22.37Zm5.12,2A2.77,2.77,0,0,0,26.36,23a1.86,1.86,0,0,0-1.44-.54,1.82,1.82,0,0,0-1.43.54,2.61,2.61,0,0,0-.64,1.38,11,11,0,0,0-.16,2.07,12.59,12.59,0,0,0,.15,2.12A2.61,2.61,0,0,0,23.48,30a2.22,2.22,0,0,0,2.88,0A2.61,2.61,0,0,0,27,28.58a12.59,12.59,0,0,0,.15-2.12A12,12,0,0,0,27,24.39Z" fill="#fff"/><path d="M31,23.87a2.85,2.85,0,0,1,.4-1.49,2.9,2.9,0,0,1,1.23-1.08,5.13,5.13,0,0,1,4,0,2.85,2.85,0,0,1,1.23,1.08,2.76,2.76,0,0,1,.41,1.49,2.58,2.58,0,0,1-.43,1.49,2.81,2.81,0,0,1-1.14,1,2.77,2.77,0,0,1,1.36,1,2.91,2.91,0,0,1,.5,1.69A3.08,3.08,0,0,1,38,30.8,3.12,3.12,0,0,1,36.6,32a4.68,4.68,0,0,1-2,.41,4.57,4.57,0,0,1-2-.41,3.24,3.24,0,0,1-1.39-1.16,3.07,3.07,0,0,1-.49-1.73,2.86,2.86,0,0,1,.49-1.69,2.78,2.78,0,0,1,1.35-1A2.59,2.59,0,0,1,31,23.87Zm2,3.73A1.66,1.66,0,0,0,32.33,29a1.77,1.77,0,0,0,.6,1.39,2.41,2.41,0,0,0,1.65.54,2.29,2.29,0,0,0,1.62-.55A1.77,1.77,0,0,0,36.8,29a1.73,1.73,0,0,0-.61-1.41,2.5,2.5,0,0,0-1.61-.5A2.53,2.53,0,0,0,33,27.6ZM36,22.79a2.17,2.17,0,0,0-1.45-.45,2.13,2.13,0,0,0-1.43.45,1.61,1.61,0,0,0-.53,1.31,1.55,1.55,0,0,0,.55,1.23,2.31,2.31,0,0,0,2.83,0,1.56,1.56,0,0,0,.56-1.23A1.62,1.62,0,0,0,36,22.79Z" fill="#fff"/><path d="M41.25,29.76c1-.83,1.73-1.52,2.29-2.06A9.24,9.24,0,0,0,44.93,26a3.2,3.2,0,0,0,.56-1.75,2.11,2.11,0,0,0-.43-1.42,1.68,1.68,0,0,0-1.35-.51,1.72,1.72,0,0,0-1.38.56,2.34,2.34,0,0,0-.52,1.52H40.15a3.55,3.55,0,0,1,1-2.64,3.6,3.6,0,0,1,2.51-.91,3.52,3.52,0,0,1,2.58.91,3.21,3.21,0,0,1,.93,2.41,4.35,4.35,0,0,1-.55,2.09,8.52,8.52,0,0,1-1.32,1.8c-.51.53-1.15,1.14-1.94,1.83l-.68.6H47.5V32H40.16V30.7Z" fill="#fff"/><path d="M48.78,22.67V21.1h3.14v11H50.19V22.67Z" fill="#fff"/><path d="M65.19,22.43,61,32.1H59.26l4.24-9.49H57.91V21.14h7.28Z" fill="#fff"/><path d="M67.55,22.37a3.88,3.88,0,0,1,6.08,0,8,8,0,0,1,.88,4.09,8.06,8.06,0,0,1-.88,4.12,3.85,3.85,0,0,1-6.08,0,8.05,8.05,0,0,1-.89-4.12A8,8,0,0,1,67.55,22.37Zm5.11,2A2.69,2.69,0,0,0,72,23a1.82,1.82,0,0,0-1.43-.54,1.84,1.84,0,0,0-1.44.54,2.77,2.77,0,0,0-.64,1.38,12,12,0,0,0-.15,2.07,12.59,12.59,0,0,0,.15,2.12A2.61,2.61,0,0,0,69.15,30a1.86,1.86,0,0,0,1.44.53A1.89,1.89,0,0,0,72,30a2.61,2.61,0,0,0,.64-1.39,12.59,12.59,0,0,0,.15-2.12A11,11,0,0,0,72.66,24.39Z" fill="#fff"/><path d="M77.22,22.37a3.88,3.88,0,0,1,6.08,0,8,8,0,0,1,.89,4.09,8.05,8.05,0,0,1-.89,4.12,3.85,3.85,0,0,1-6.08,0,8.06,8.06,0,0,1-.88-4.12A8,8,0,0,1,77.22,22.37Zm5.12,2A2.77,2.77,0,0,0,81.7,23a1.84,1.84,0,0,0-1.44-.54,1.82,1.82,0,0,0-1.43.54,2.69,2.69,0,0,0-.64,1.38A11,11,0,0,0,78,26.46a12.59,12.59,0,0,0,.15,2.12A2.61,2.61,0,0,0,78.82,30a1.89,1.89,0,0,0,1.44.53A1.86,1.86,0,0,0,81.7,30a2.69,2.69,0,0,0,.65-1.39,12.59,12.59,0,0,0,.15-2.12A11.92,11.92,0,0,0,82.34,24.39Z" fill="#fff"/><path d="M86.9,22.37a3.88,3.88,0,0,1,6.08,0,8,8,0,0,1,.88,4.09A8.06,8.06,0,0,1,93,30.58a3.85,3.85,0,0,1-6.08,0A8.05,8.05,0,0,1,86,26.46,8,8,0,0,1,86.9,22.37Zm5.11,2A2.69,2.69,0,0,0,91.37,23a2.18,2.18,0,0,0-2.87,0,2.77,2.77,0,0,0-.64,1.38,11.92,11.92,0,0,0-.16,2.07,12.59,12.59,0,0,0,.15,2.12A2.62,2.62,0,0,0,88.5,30a1.86,1.86,0,0,0,1.44.53A1.89,1.89,0,0,0,91.38,30,2.68,2.68,0,0,0,92,28.58a12.59,12.59,0,0,0,.15-2.12A11,11,0,0,0,92,24.39Z" fill="#fff"/><path d="M96.57,22.37a3.88,3.88,0,0,1,6.08,0,8,8,0,0,1,.88,4.09,8.06,8.06,0,0,1-.88,4.12,3.85,3.85,0,0,1-6.08,0,8.06,8.06,0,0,1-.88-4.12A8,8,0,0,1,96.57,22.37Zm5.12,2A2.7,2.7,0,0,0,101,23a2.16,2.16,0,0,0-2.86,0,2.7,2.7,0,0,0-.65,1.38,12,12,0,0,0-.15,2.07,12.59,12.59,0,0,0,.15,2.12A2.61,2.61,0,0,0,98.17,30a2.22,2.22,0,0,0,2.88,0,2.61,2.61,0,0,0,.64-1.39,12.59,12.59,0,0,0,.15-2.12A12,12,0,0,0,101.69,24.39Z" fill="#fff"/><path d="M109.06,22.67V21.1h3.14v11h-1.74V22.67Z" fill="#fff"/><path d="M115.45,22.37a3.88,3.88,0,0,1,6.08,0,8,8,0,0,1,.88,4.09,8.06,8.06,0,0,1-.88,4.12,3.85,3.85,0,0,1-6.08,0,8.06,8.06,0,0,1-.88-4.12A8,8,0,0,1,115.45,22.37Zm5.12,2a2.7,2.7,0,0,0-.65-1.38,2.16,2.16,0,0,0-2.86,0,2.7,2.7,0,0,0-.65,1.38,12,12,0,0,0-.15,2.07,12.59,12.59,0,0,0,.15,2.12,2.61,2.61,0,0,0,.64,1.39,2.22,2.22,0,0,0,2.88,0,2.61,2.61,0,0,0,.64-1.39,12.59,12.59,0,0,0,.15-2.12A12,12,0,0,0,120.57,24.39Z" fill="#fff"/><path d="M125.19,29.76c1-.83,1.73-1.52,2.29-2.06A9.24,9.24,0,0,0,128.87,26a3.2,3.2,0,0,0,.56-1.75,2.11,2.11,0,0,0-.43-1.42,1.68,1.68,0,0,0-1.35-.51,1.72,1.72,0,0,0-1.38.56,2.34,2.34,0,0,0-.52,1.52h-1.66a3.55,3.55,0,0,1,1-2.64,3.61,3.61,0,0,1,2.52-.91,3.51,3.51,0,0,1,2.57.91,3.21,3.21,0,0,1,.93,2.41,4.35,4.35,0,0,1-.55,2.09,8.52,8.52,0,0,1-1.32,1.8c-.5.53-1.15,1.14-1.94,1.83l-.68.6h4.79V32H124.1V30.7Z" fill="#fff"/><path d="M6.17,32.13,7,29.05A5.7,5.7,0,1,1,9.27,31.3Zm3.25-2,.2.12a4.67,4.67,0,0,0,2.35.65A4.62,4.62,0,1,0,7.36,26.3,4.53,4.53,0,0,0,8,28.69l.12.2-.47,1.72Z" fill="#fff"/><path d="M14.09,27.09a1,1,0,0,0-.81-.19c-.22.09-.35.42-.49.59a.2.2,0,0,1-.26.06A3.74,3.74,0,0,1,10.69,26a.22.22,0,0,1,0-.31,1.17,1.17,0,0,0,.33-.54,1.1,1.1,0,0,0-.15-.64,1.54,1.54,0,0,0-.47-.72.67.67,0,0,0-.71.11A1.43,1.43,0,0,0,9.22,25a2.08,2.08,0,0,0,0,.36,3.16,3.16,0,0,0,.34.8,6.61,6.61,0,0,0,.37.55,5.39,5.39,0,0,0,1.56,1.45,5.19,5.19,0,0,0,1,.47,2.3,2.3,0,0,0,1.13.18,1.37,1.37,0,0,0,1-.77.65.65,0,0,0,.05-.39C14.67,27.38,14.31,27.22,14.09,27.09Z" fill="#fff" fill-rule="evenodd"/></g></g></svg>